<mxfile host="app.diagrams.net" modified="2022-11-29T19:52:45.653Z" agent="5.0 (Macintosh; Intel Mac OS X 10_15_7) AppleWebKit/537.36 (KHTML, like Gecko) Chrome/107.0.0.0 Safari/537.36" etag="kkZUh40tGEwuXNg_3XnX" version="20.6.0" type="github">
  <diagram id="XeitPLsjih--VH7lZSAs" name="Page-1">
    <mxGraphModel dx="3605" dy="1035" grid="0" gridSize="10" guides="1" tooltips="1" connect="1" arrows="1" fold="1" page="0" pageScale="1" pageWidth="827" pageHeight="1169" math="0" shadow="0">
      <root>
        <mxCell id="0" />
        <mxCell id="1" parent="0" />
        <mxCell id="OMyN0Gsu02lCNr_6fPPk-34" style="edgeStyle=orthogonalEdgeStyle;rounded=0;orthogonalLoop=1;jettySize=auto;html=1;fontSize=20;curved=1;entryX=0.237;entryY=0.075;entryDx=0;entryDy=0;entryPerimeter=0;" parent="1" source="OMyN0Gsu02lCNr_6fPPk-28" target="OMyN0Gsu02lCNr_6fPPk-32" edge="1">
          <mxGeometry relative="1" as="geometry" />
        </mxCell>
        <mxCell id="OMyN0Gsu02lCNr_6fPPk-28" value="Pipeline ML RAMI" style="ellipse;whiteSpace=wrap;html=1;fillColor=none;labelPosition=center;verticalLabelPosition=top;align=center;verticalAlign=bottom;fontSize=20;dashed=1;strokeColor=#999999;" parent="1" vertex="1">
          <mxGeometry x="-110" y="-40" width="1230" height="530" as="geometry" />
        </mxCell>
        <mxCell id="OMyN0Gsu02lCNr_6fPPk-12" style="edgeStyle=orthogonalEdgeStyle;rounded=0;orthogonalLoop=1;jettySize=auto;html=1;entryX=0;entryY=0.5;entryDx=0;entryDy=0;" parent="1" source="OMyN0Gsu02lCNr_6fPPk-2" target="OMyN0Gsu02lCNr_6fPPk-4" edge="1">
          <mxGeometry relative="1" as="geometry" />
        </mxCell>
        <mxCell id="OMyN0Gsu02lCNr_6fPPk-14" style="edgeStyle=orthogonalEdgeStyle;rounded=0;orthogonalLoop=1;jettySize=auto;html=1;entryX=-0.006;entryY=0.402;entryDx=0;entryDy=0;entryPerimeter=0;" parent="1" source="OMyN0Gsu02lCNr_6fPPk-2" target="OMyN0Gsu02lCNr_6fPPk-3" edge="1">
          <mxGeometry relative="1" as="geometry" />
        </mxCell>
        <mxCell id="OMyN0Gsu02lCNr_6fPPk-2" value="convert to json" style="rounded=1;whiteSpace=wrap;html=1;" parent="1" vertex="1">
          <mxGeometry x="120" y="210" width="120" height="60" as="geometry" />
        </mxCell>
        <mxCell id="OMyN0Gsu02lCNr_6fPPk-16" style="edgeStyle=orthogonalEdgeStyle;rounded=0;orthogonalLoop=1;jettySize=auto;html=1;entryX=0.25;entryY=0;entryDx=0;entryDy=0;" parent="1" source="OMyN0Gsu02lCNr_6fPPk-3" target="OMyN0Gsu02lCNr_6fPPk-6" edge="1">
          <mxGeometry relative="1" as="geometry" />
        </mxCell>
        <mxCell id="OMyN0Gsu02lCNr_6fPPk-3" value="extract text from attachment" style="rounded=1;whiteSpace=wrap;html=1;" parent="1" vertex="1">
          <mxGeometry x="310" y="140" width="120" height="60" as="geometry" />
        </mxCell>
        <mxCell id="OMyN0Gsu02lCNr_6fPPk-13" style="edgeStyle=orthogonalEdgeStyle;rounded=0;orthogonalLoop=1;jettySize=auto;html=1;entryX=0;entryY=0.5;entryDx=0;entryDy=0;" parent="1" source="OMyN0Gsu02lCNr_6fPPk-4" target="OMyN0Gsu02lCNr_6fPPk-5" edge="1">
          <mxGeometry relative="1" as="geometry" />
        </mxCell>
        <mxCell id="OMyN0Gsu02lCNr_6fPPk-4" value="split pdf to pages" style="rounded=1;whiteSpace=wrap;html=1;" parent="1" vertex="1">
          <mxGeometry x="210" y="320" width="120" height="60" as="geometry" />
        </mxCell>
        <mxCell id="OMyN0Gsu02lCNr_6fPPk-17" style="edgeStyle=orthogonalEdgeStyle;rounded=0;orthogonalLoop=1;jettySize=auto;html=1;entryX=0.25;entryY=1;entryDx=0;entryDy=0;" parent="1" source="OMyN0Gsu02lCNr_6fPPk-5" target="OMyN0Gsu02lCNr_6fPPk-6" edge="1">
          <mxGeometry relative="1" as="geometry">
            <Array as="points">
              <mxPoint x="530" y="350" />
            </Array>
          </mxGeometry>
        </mxCell>
        <mxCell id="OMyN0Gsu02lCNr_6fPPk-5" value="ocr" style="rounded=1;whiteSpace=wrap;html=1;" parent="1" vertex="1">
          <mxGeometry x="380" y="320" width="120" height="60" as="geometry" />
        </mxCell>
        <mxCell id="OMyN0Gsu02lCNr_6fPPk-18" style="edgeStyle=orthogonalEdgeStyle;rounded=0;orthogonalLoop=1;jettySize=auto;html=1;exitX=0.75;exitY=0;exitDx=0;exitDy=0;entryX=0;entryY=0.5;entryDx=0;entryDy=0;" parent="1" source="OMyN0Gsu02lCNr_6fPPk-6" target="OMyN0Gsu02lCNr_6fPPk-8" edge="1">
          <mxGeometry relative="1" as="geometry" />
        </mxCell>
        <mxCell id="OMyN0Gsu02lCNr_6fPPk-6" value="feature engineering" style="rounded=1;whiteSpace=wrap;html=1;" parent="1" vertex="1">
          <mxGeometry x="500" y="210" width="120" height="60" as="geometry" />
        </mxCell>
        <mxCell id="OMyN0Gsu02lCNr_6fPPk-24" style="edgeStyle=orthogonalEdgeStyle;rounded=0;orthogonalLoop=1;jettySize=auto;html=1;entryX=0;entryY=0.5;entryDx=0;entryDy=0;" parent="1" source="OMyN0Gsu02lCNr_6fPPk-7" target="OMyN0Gsu02lCNr_6fPPk-9" edge="1">
          <mxGeometry relative="1" as="geometry" />
        </mxCell>
        <mxCell id="OMyN0Gsu02lCNr_6fPPk-7" value="prediction" style="rounded=1;whiteSpace=wrap;html=1;" parent="1" vertex="1">
          <mxGeometry x="700" y="210" width="120" height="60" as="geometry" />
        </mxCell>
        <mxCell id="OMyN0Gsu02lCNr_6fPPk-27" style="edgeStyle=orthogonalEdgeStyle;rounded=0;orthogonalLoop=1;jettySize=auto;html=1;entryX=0.25;entryY=0;entryDx=0;entryDy=0;" parent="1" source="OMyN0Gsu02lCNr_6fPPk-8" target="OMyN0Gsu02lCNr_6fPPk-7" edge="1">
          <mxGeometry relative="1" as="geometry">
            <Array as="points">
              <mxPoint x="730" y="160" />
            </Array>
          </mxGeometry>
        </mxCell>
        <mxCell id="OMyN0Gsu02lCNr_6fPPk-8" value="training" style="rounded=1;whiteSpace=wrap;html=1;fillColor=#fff2cc;strokeColor=#d6b656;" parent="1" vertex="1">
          <mxGeometry x="620" y="140" width="90" height="40" as="geometry" />
        </mxCell>
        <mxCell id="OMyN0Gsu02lCNr_6fPPk-29" style="edgeStyle=orthogonalEdgeStyle;rounded=0;orthogonalLoop=1;jettySize=auto;html=1;fontSize=20;entryX=0;entryY=0.5;entryDx=0;entryDy=0;" parent="1" source="OMyN0Gsu02lCNr_6fPPk-9" target="OMyN0Gsu02lCNr_6fPPk-26" edge="1">
          <mxGeometry relative="1" as="geometry">
            <Array as="points">
              <mxPoint x="900" y="160" />
              <mxPoint x="900" y="160" />
            </Array>
          </mxGeometry>
        </mxCell>
        <mxCell id="OMyN0Gsu02lCNr_6fPPk-9" value="score&lt;br&gt;validation" style="rounded=1;whiteSpace=wrap;html=1;fillColor=#fff2cc;strokeColor=#d6b656;" parent="1" vertex="1">
          <mxGeometry x="780" y="140" width="90" height="40" as="geometry" />
        </mxCell>
        <mxCell id="OMyN0Gsu02lCNr_6fPPk-11" style="edgeStyle=orthogonalEdgeStyle;rounded=0;orthogonalLoop=1;jettySize=auto;html=1;" parent="1" source="OMyN0Gsu02lCNr_6fPPk-10" target="OMyN0Gsu02lCNr_6fPPk-2" edge="1">
          <mxGeometry relative="1" as="geometry" />
        </mxCell>
        <mxCell id="OMyN0Gsu02lCNr_6fPPk-10" value="eml" style="image;html=1;image=img/lib/clip_art/networking/Email_128x128.png;labelPosition=center;verticalLabelPosition=top;align=center;verticalAlign=bottom;" parent="1" vertex="1">
          <mxGeometry x="40" y="80" width="30" height="40" as="geometry" />
        </mxCell>
        <mxCell id="OMyN0Gsu02lCNr_6fPPk-20" value="" style="image;html=1;image=img/lib/clip_art/networking/Email_128x128.png" parent="1" vertex="1">
          <mxGeometry x="50" y="90" width="40" height="40" as="geometry" />
        </mxCell>
        <mxCell id="OMyN0Gsu02lCNr_6fPPk-21" value="" style="image;html=1;image=img/lib/clip_art/networking/Email_128x128.png" parent="1" vertex="1">
          <mxGeometry x="60" y="100" width="40" height="40" as="geometry" />
        </mxCell>
        <mxCell id="OMyN0Gsu02lCNr_6fPPk-26" value="" style="image;html=1;image=img/lib/clip_art/finance/Graph_128x128.png" parent="1" vertex="1">
          <mxGeometry x="920" y="130" width="80" height="60" as="geometry" />
        </mxCell>
        <mxCell id="OMyN0Gsu02lCNr_6fPPk-97" style="edgeStyle=orthogonalEdgeStyle;curved=1;rounded=0;orthogonalLoop=1;jettySize=auto;html=1;entryX=1;entryY=0;entryDx=0;entryDy=0;fontSize=12;" parent="1" source="OMyN0Gsu02lCNr_6fPPk-32" target="OMyN0Gsu02lCNr_6fPPk-62" edge="1">
          <mxGeometry relative="1" as="geometry">
            <Array as="points">
              <mxPoint x="1890" y="1567" />
            </Array>
          </mxGeometry>
        </mxCell>
        <mxCell id="OMyN0Gsu02lCNr_6fPPk-32" value="Pipeline de PROD" style="ellipse;whiteSpace=wrap;html=1;fillColor=none;labelPosition=center;verticalLabelPosition=top;align=center;verticalAlign=bottom;fontSize=20;dashed=1;strokeColor=#999999;" parent="1" vertex="1">
          <mxGeometry x="1364" y="521" width="1091" height="530" as="geometry" />
        </mxCell>
        <mxCell id="OMyN0Gsu02lCNr_6fPPk-35" style="edgeStyle=orthogonalEdgeStyle;rounded=0;orthogonalLoop=1;jettySize=auto;html=1;entryX=0;entryY=0.5;entryDx=0;entryDy=0;" parent="1" source="OMyN0Gsu02lCNr_6fPPk-37" target="OMyN0Gsu02lCNr_6fPPk-41" edge="1">
          <mxGeometry relative="1" as="geometry" />
        </mxCell>
        <mxCell id="OMyN0Gsu02lCNr_6fPPk-36" style="edgeStyle=orthogonalEdgeStyle;rounded=0;orthogonalLoop=1;jettySize=auto;html=1;entryX=-0.006;entryY=0.402;entryDx=0;entryDy=0;entryPerimeter=0;" parent="1" source="OMyN0Gsu02lCNr_6fPPk-37" target="OMyN0Gsu02lCNr_6fPPk-39" edge="1">
          <mxGeometry relative="1" as="geometry" />
        </mxCell>
        <mxCell id="OMyN0Gsu02lCNr_6fPPk-37" value="convert to json" style="rounded=1;whiteSpace=wrap;html=1;" parent="1" vertex="1">
          <mxGeometry x="1602" y="783" width="120" height="60" as="geometry" />
        </mxCell>
        <mxCell id="OMyN0Gsu02lCNr_6fPPk-38" style="edgeStyle=orthogonalEdgeStyle;rounded=0;orthogonalLoop=1;jettySize=auto;html=1;entryX=0.25;entryY=0;entryDx=0;entryDy=0;" parent="1" source="OMyN0Gsu02lCNr_6fPPk-39" target="OMyN0Gsu02lCNr_6fPPk-45" edge="1">
          <mxGeometry relative="1" as="geometry" />
        </mxCell>
        <mxCell id="OMyN0Gsu02lCNr_6fPPk-39" value="extract text from attachment" style="rounded=1;whiteSpace=wrap;html=1;" parent="1" vertex="1">
          <mxGeometry x="1792" y="696" width="120" height="60" as="geometry" />
        </mxCell>
        <mxCell id="OMyN0Gsu02lCNr_6fPPk-40" style="edgeStyle=orthogonalEdgeStyle;rounded=0;orthogonalLoop=1;jettySize=auto;html=1;entryX=0;entryY=0.5;entryDx=0;entryDy=0;" parent="1" source="OMyN0Gsu02lCNr_6fPPk-41" target="OMyN0Gsu02lCNr_6fPPk-43" edge="1">
          <mxGeometry relative="1" as="geometry" />
        </mxCell>
        <mxCell id="OMyN0Gsu02lCNr_6fPPk-41" value="split pdf to pages" style="rounded=1;whiteSpace=wrap;html=1;" parent="1" vertex="1">
          <mxGeometry x="1692" y="876" width="120" height="60" as="geometry" />
        </mxCell>
        <mxCell id="OMyN0Gsu02lCNr_6fPPk-42" style="edgeStyle=orthogonalEdgeStyle;rounded=0;orthogonalLoop=1;jettySize=auto;html=1;entryX=0.25;entryY=1;entryDx=0;entryDy=0;" parent="1" source="OMyN0Gsu02lCNr_6fPPk-43" target="OMyN0Gsu02lCNr_6fPPk-45" edge="1">
          <mxGeometry relative="1" as="geometry">
            <Array as="points">
              <mxPoint x="2012" y="906" />
            </Array>
          </mxGeometry>
        </mxCell>
        <mxCell id="OMyN0Gsu02lCNr_6fPPk-43" value="ocr" style="rounded=1;whiteSpace=wrap;html=1;" parent="1" vertex="1">
          <mxGeometry x="1862" y="876" width="120" height="60" as="geometry" />
        </mxCell>
        <mxCell id="OMyN0Gsu02lCNr_6fPPk-57" style="edgeStyle=orthogonalEdgeStyle;curved=1;rounded=0;orthogonalLoop=1;jettySize=auto;html=1;fontSize=20;" parent="1" source="OMyN0Gsu02lCNr_6fPPk-45" target="OMyN0Gsu02lCNr_6fPPk-47" edge="1">
          <mxGeometry relative="1" as="geometry" />
        </mxCell>
        <mxCell id="OMyN0Gsu02lCNr_6fPPk-45" value="feature engineering" style="rounded=1;whiteSpace=wrap;html=1;" parent="1" vertex="1">
          <mxGeometry x="1982" y="766" width="120" height="60" as="geometry" />
        </mxCell>
        <mxCell id="OMyN0Gsu02lCNr_6fPPk-61" style="edgeStyle=orthogonalEdgeStyle;curved=1;rounded=0;orthogonalLoop=1;jettySize=auto;html=1;fontSize=12;dashed=1;" parent="1" source="OMyN0Gsu02lCNr_6fPPk-47" target="OMyN0Gsu02lCNr_6fPPk-59" edge="1">
          <mxGeometry relative="1" as="geometry" />
        </mxCell>
        <mxCell id="OMyN0Gsu02lCNr_6fPPk-47" value="prediction" style="rounded=1;whiteSpace=wrap;html=1;" parent="1" vertex="1">
          <mxGeometry x="2182" y="766" width="120" height="60" as="geometry" />
        </mxCell>
        <mxCell id="OMyN0Gsu02lCNr_6fPPk-52" style="edgeStyle=orthogonalEdgeStyle;rounded=0;orthogonalLoop=1;jettySize=auto;html=1;entryX=0.5;entryY=0;entryDx=0;entryDy=0;" parent="1" source="OMyN0Gsu02lCNr_6fPPk-53" target="OMyN0Gsu02lCNr_6fPPk-102" edge="1">
          <mxGeometry relative="1" as="geometry" />
        </mxCell>
        <mxCell id="OMyN0Gsu02lCNr_6fPPk-53" value="eml" style="image;html=1;image=img/lib/clip_art/networking/Email_128x128.png;labelPosition=center;verticalLabelPosition=top;align=center;verticalAlign=bottom;" parent="1" vertex="1">
          <mxGeometry x="1522" y="636" width="30" height="40" as="geometry" />
        </mxCell>
        <mxCell id="OMyN0Gsu02lCNr_6fPPk-59" value="&lt;font style=&quot;font-size: 12px;&quot;&gt;Réponse au client&lt;/font&gt;" style="shape=parallelogram;perimeter=parallelogramPerimeter;whiteSpace=wrap;html=1;fixedSize=1;strokeColor=#999999;fontSize=20;fillColor=none;" parent="1" vertex="1">
          <mxGeometry x="2204" y="876" width="154" height="46" as="geometry" />
        </mxCell>
        <mxCell id="OMyN0Gsu02lCNr_6fPPk-159" style="edgeStyle=orthogonalEdgeStyle;rounded=0;orthogonalLoop=1;jettySize=auto;html=1;entryX=1.014;entryY=0.564;entryDx=0;entryDy=0;entryPerimeter=0;fontSize=12;curved=1;exitX=0.5;exitY=1;exitDx=0;exitDy=0;" parent="1" source="OMyN0Gsu02lCNr_6fPPk-62" target="OMyN0Gsu02lCNr_6fPPk-118" edge="1">
          <mxGeometry relative="1" as="geometry" />
        </mxCell>
        <mxCell id="OMyN0Gsu02lCNr_6fPPk-62" value="Pipeline de PROD HA" style="ellipse;whiteSpace=wrap;html=1;fillColor=none;labelPosition=center;verticalLabelPosition=top;align=center;verticalAlign=bottom;fontSize=20;dashed=1;strokeColor=#999999;" parent="1" vertex="1">
          <mxGeometry x="734" y="1489" width="1091" height="530" as="geometry" />
        </mxCell>
        <mxCell id="OMyN0Gsu02lCNr_6fPPk-63" style="edgeStyle=orthogonalEdgeStyle;rounded=0;orthogonalLoop=1;jettySize=auto;html=1;entryX=0;entryY=0.5;entryDx=0;entryDy=0;" parent="1" source="OMyN0Gsu02lCNr_6fPPk-65" target="OMyN0Gsu02lCNr_6fPPk-69" edge="1">
          <mxGeometry relative="1" as="geometry" />
        </mxCell>
        <mxCell id="OMyN0Gsu02lCNr_6fPPk-64" style="edgeStyle=orthogonalEdgeStyle;rounded=0;orthogonalLoop=1;jettySize=auto;html=1;entryX=-0.006;entryY=0.402;entryDx=0;entryDy=0;entryPerimeter=0;" parent="1" source="OMyN0Gsu02lCNr_6fPPk-65" target="OMyN0Gsu02lCNr_6fPPk-67" edge="1">
          <mxGeometry relative="1" as="geometry" />
        </mxCell>
        <mxCell id="OMyN0Gsu02lCNr_6fPPk-65" value="convert to json" style="rounded=1;whiteSpace=wrap;html=1;" parent="1" vertex="1">
          <mxGeometry x="972" y="1734" width="120" height="60" as="geometry" />
        </mxCell>
        <mxCell id="OMyN0Gsu02lCNr_6fPPk-66" style="edgeStyle=orthogonalEdgeStyle;rounded=0;orthogonalLoop=1;jettySize=auto;html=1;entryX=0.25;entryY=0;entryDx=0;entryDy=0;" parent="1" source="OMyN0Gsu02lCNr_6fPPk-67" target="OMyN0Gsu02lCNr_6fPPk-73" edge="1">
          <mxGeometry relative="1" as="geometry" />
        </mxCell>
        <mxCell id="OMyN0Gsu02lCNr_6fPPk-67" value="extract text from attachment" style="rounded=1;whiteSpace=wrap;html=1;" parent="1" vertex="1">
          <mxGeometry x="1162" y="1664" width="120" height="60" as="geometry" />
        </mxCell>
        <mxCell id="OMyN0Gsu02lCNr_6fPPk-68" style="edgeStyle=orthogonalEdgeStyle;rounded=0;orthogonalLoop=1;jettySize=auto;html=1;entryX=0;entryY=0.5;entryDx=0;entryDy=0;" parent="1" source="OMyN0Gsu02lCNr_6fPPk-69" target="OMyN0Gsu02lCNr_6fPPk-71" edge="1">
          <mxGeometry relative="1" as="geometry" />
        </mxCell>
        <mxCell id="OMyN0Gsu02lCNr_6fPPk-69" value="split pdf to pages" style="rounded=1;whiteSpace=wrap;html=1;" parent="1" vertex="1">
          <mxGeometry x="1062" y="1844" width="120" height="60" as="geometry" />
        </mxCell>
        <mxCell id="OMyN0Gsu02lCNr_6fPPk-70" style="edgeStyle=orthogonalEdgeStyle;rounded=0;orthogonalLoop=1;jettySize=auto;html=1;" parent="1" source="OMyN0Gsu02lCNr_6fPPk-71" target="OMyN0Gsu02lCNr_6fPPk-94" edge="1">
          <mxGeometry relative="1" as="geometry">
            <Array as="points">
              <mxPoint x="1430" y="1874" />
            </Array>
          </mxGeometry>
        </mxCell>
        <mxCell id="OMyN0Gsu02lCNr_6fPPk-71" value="ocr" style="rounded=1;whiteSpace=wrap;html=1;" parent="1" vertex="1">
          <mxGeometry x="1232" y="1844" width="120" height="60" as="geometry" />
        </mxCell>
        <mxCell id="OMyN0Gsu02lCNr_6fPPk-72" style="edgeStyle=orthogonalEdgeStyle;curved=1;rounded=0;orthogonalLoop=1;jettySize=auto;html=1;fontSize=20;" parent="1" source="OMyN0Gsu02lCNr_6fPPk-73" target="OMyN0Gsu02lCNr_6fPPk-75" edge="1">
          <mxGeometry relative="1" as="geometry" />
        </mxCell>
        <mxCell id="OMyN0Gsu02lCNr_6fPPk-73" value="feature engineering" style="rounded=1;whiteSpace=wrap;html=1;" parent="1" vertex="1">
          <mxGeometry x="1352" y="1734" width="120" height="60" as="geometry" />
        </mxCell>
        <mxCell id="OMyN0Gsu02lCNr_6fPPk-74" style="edgeStyle=orthogonalEdgeStyle;curved=1;rounded=0;orthogonalLoop=1;jettySize=auto;html=1;fontSize=12;dashed=1;" parent="1" source="OMyN0Gsu02lCNr_6fPPk-75" target="OMyN0Gsu02lCNr_6fPPk-78" edge="1">
          <mxGeometry relative="1" as="geometry" />
        </mxCell>
        <mxCell id="OMyN0Gsu02lCNr_6fPPk-75" value="prediction" style="rounded=1;whiteSpace=wrap;html=1;" parent="1" vertex="1">
          <mxGeometry x="1552" y="1734" width="120" height="60" as="geometry" />
        </mxCell>
        <mxCell id="OMyN0Gsu02lCNr_6fPPk-77" value="eml" style="image;html=1;image=img/lib/clip_art/networking/Email_128x128.png;labelPosition=center;verticalLabelPosition=top;align=center;verticalAlign=bottom;" parent="1" vertex="1">
          <mxGeometry x="860" y="1604" width="30" height="40" as="geometry" />
        </mxCell>
        <mxCell id="OMyN0Gsu02lCNr_6fPPk-78" value="&lt;font style=&quot;font-size: 12px;&quot;&gt;Réponse au client&lt;/font&gt;" style="shape=parallelogram;perimeter=parallelogramPerimeter;whiteSpace=wrap;html=1;fixedSize=1;strokeColor=#999999;fontSize=20;fillColor=none;" parent="1" vertex="1">
          <mxGeometry x="1574" y="1844" width="154" height="46" as="geometry" />
        </mxCell>
        <mxCell id="OMyN0Gsu02lCNr_6fPPk-79" value="convert to json" style="rounded=1;whiteSpace=wrap;html=1;" parent="1" vertex="1">
          <mxGeometry x="982" y="1744" width="120" height="60" as="geometry" />
        </mxCell>
        <mxCell id="OMyN0Gsu02lCNr_6fPPk-80" value="convert to json" style="rounded=1;whiteSpace=wrap;html=1;" parent="1" vertex="1">
          <mxGeometry x="992" y="1754" width="120" height="60" as="geometry" />
        </mxCell>
        <mxCell id="OMyN0Gsu02lCNr_6fPPk-83" value="extract text from attachment" style="rounded=1;whiteSpace=wrap;html=1;" parent="1" vertex="1">
          <mxGeometry x="1172" y="1674" width="120" height="60" as="geometry" />
        </mxCell>
        <mxCell id="OMyN0Gsu02lCNr_6fPPk-84" value="extract text from attachment" style="rounded=1;whiteSpace=wrap;html=1;" parent="1" vertex="1">
          <mxGeometry x="1182" y="1684" width="120" height="60" as="geometry" />
        </mxCell>
        <mxCell id="OMyN0Gsu02lCNr_6fPPk-85" value="split pdf to pages" style="rounded=1;whiteSpace=wrap;html=1;" parent="1" vertex="1">
          <mxGeometry x="1072" y="1854" width="120" height="60" as="geometry" />
        </mxCell>
        <mxCell id="OMyN0Gsu02lCNr_6fPPk-86" value="split pdf to pages" style="rounded=1;whiteSpace=wrap;html=1;" parent="1" vertex="1">
          <mxGeometry x="1082" y="1864" width="120" height="60" as="geometry" />
        </mxCell>
        <mxCell id="OMyN0Gsu02lCNr_6fPPk-87" value="split pdf to pages" style="rounded=1;whiteSpace=wrap;html=1;" parent="1" vertex="1">
          <mxGeometry x="1092" y="1874" width="120" height="60" as="geometry" />
        </mxCell>
        <mxCell id="OMyN0Gsu02lCNr_6fPPk-88" value="ocr" style="rounded=1;whiteSpace=wrap;html=1;" parent="1" vertex="1">
          <mxGeometry x="1242" y="1854" width="120" height="60" as="geometry" />
        </mxCell>
        <mxCell id="OMyN0Gsu02lCNr_6fPPk-89" value="ocr" style="rounded=1;whiteSpace=wrap;html=1;" parent="1" vertex="1">
          <mxGeometry x="1252" y="1864" width="120" height="60" as="geometry" />
        </mxCell>
        <mxCell id="OMyN0Gsu02lCNr_6fPPk-90" value="ocr" style="rounded=1;whiteSpace=wrap;html=1;" parent="1" vertex="1">
          <mxGeometry x="1262" y="1874" width="120" height="60" as="geometry" />
        </mxCell>
        <mxCell id="OMyN0Gsu02lCNr_6fPPk-91" value="ocr" style="rounded=1;whiteSpace=wrap;html=1;" parent="1" vertex="1">
          <mxGeometry x="1272" y="1884" width="120" height="60" as="geometry" />
        </mxCell>
        <mxCell id="OMyN0Gsu02lCNr_6fPPk-92" value="ocr" style="rounded=1;whiteSpace=wrap;html=1;" parent="1" vertex="1">
          <mxGeometry x="1282" y="1894" width="120" height="60" as="geometry" />
        </mxCell>
        <mxCell id="OMyN0Gsu02lCNr_6fPPk-93" value="feature engineering" style="rounded=1;whiteSpace=wrap;html=1;" parent="1" vertex="1">
          <mxGeometry x="1362" y="1744" width="120" height="60" as="geometry" />
        </mxCell>
        <mxCell id="OMyN0Gsu02lCNr_6fPPk-94" value="feature engineering" style="rounded=1;whiteSpace=wrap;html=1;" parent="1" vertex="1">
          <mxGeometry x="1372" y="1754" width="120" height="60" as="geometry" />
        </mxCell>
        <mxCell id="OMyN0Gsu02lCNr_6fPPk-95" value="prediction" style="rounded=1;whiteSpace=wrap;html=1;" parent="1" vertex="1">
          <mxGeometry x="1562" y="1744" width="120" height="60" as="geometry" />
        </mxCell>
        <mxCell id="OMyN0Gsu02lCNr_6fPPk-96" value="prediction" style="rounded=1;whiteSpace=wrap;html=1;" parent="1" vertex="1">
          <mxGeometry x="1572" y="1754" width="120" height="60" as="geometry" />
        </mxCell>
        <mxCell id="OMyN0Gsu02lCNr_6fPPk-98" value="eml" style="image;html=1;image=img/lib/clip_art/networking/Email_128x128.png;labelPosition=center;verticalLabelPosition=top;align=center;verticalAlign=bottom;" parent="1" vertex="1">
          <mxGeometry x="870" y="1614" width="30" height="40" as="geometry" />
        </mxCell>
        <mxCell id="OMyN0Gsu02lCNr_6fPPk-99" value="eml" style="image;html=1;image=img/lib/clip_art/networking/Email_128x128.png;labelPosition=center;verticalLabelPosition=top;align=center;verticalAlign=bottom;" parent="1" vertex="1">
          <mxGeometry x="880" y="1624" width="30" height="40" as="geometry" />
        </mxCell>
        <mxCell id="OMyN0Gsu02lCNr_6fPPk-104" style="edgeStyle=orthogonalEdgeStyle;rounded=0;orthogonalLoop=1;jettySize=auto;html=1;exitX=0.5;exitY=1;exitDx=0;exitDy=0;entryX=0.5;entryY=0;entryDx=0;entryDy=0;fontSize=12;" parent="1" source="OMyN0Gsu02lCNr_6fPPk-102" target="OMyN0Gsu02lCNr_6fPPk-37" edge="1">
          <mxGeometry relative="1" as="geometry" />
        </mxCell>
        <mxCell id="OMyN0Gsu02lCNr_6fPPk-102" value="api upload" style="rounded=1;whiteSpace=wrap;html=1;" parent="1" vertex="1">
          <mxGeometry x="1602" y="690" width="120" height="60" as="geometry" />
        </mxCell>
        <mxCell id="OMyN0Gsu02lCNr_6fPPk-105" value="redis in memory" style="shape=cylinder3;whiteSpace=wrap;html=1;boundedLbl=1;backgroundOutline=1;size=15;strokeColor=#000000;fontSize=12;fillColor=none;" parent="1" vertex="1">
          <mxGeometry x="1912" y="575" width="60" height="80" as="geometry" />
        </mxCell>
        <mxCell id="OMyN0Gsu02lCNr_6fPPk-106" value="redis in memory" style="shape=cylinder3;whiteSpace=wrap;html=1;boundedLbl=1;backgroundOutline=1;size=15;strokeColor=#000000;fontSize=12;fillColor=default;" parent="1" vertex="1">
          <mxGeometry x="1270" y="1519" width="60" height="80" as="geometry" />
        </mxCell>
        <mxCell id="OMyN0Gsu02lCNr_6fPPk-109" value="redis in memory" style="shape=cylinder3;whiteSpace=wrap;html=1;boundedLbl=1;backgroundOutline=1;size=15;strokeColor=#000000;fontSize=12;fillColor=default;" parent="1" vertex="1">
          <mxGeometry x="1280" y="1529" width="60" height="80" as="geometry" />
        </mxCell>
        <mxCell id="OMyN0Gsu02lCNr_6fPPk-110" value="redis in memory" style="shape=cylinder3;whiteSpace=wrap;html=1;boundedLbl=1;backgroundOutline=1;size=15;strokeColor=#000000;fontSize=12;fillColor=default;" parent="1" vertex="1">
          <mxGeometry x="1290" y="1539" width="60" height="80" as="geometry" />
        </mxCell>
        <mxCell id="OMyN0Gsu02lCNr_6fPPk-114" style="edgeStyle=orthogonalEdgeStyle;rounded=0;orthogonalLoop=1;jettySize=auto;html=1;fontSize=12;" parent="1" source="OMyN0Gsu02lCNr_6fPPk-111" target="OMyN0Gsu02lCNr_6fPPk-65" edge="1">
          <mxGeometry relative="1" as="geometry" />
        </mxCell>
        <mxCell id="OMyN0Gsu02lCNr_6fPPk-111" value="api upload" style="rounded=1;whiteSpace=wrap;html=1;" parent="1" vertex="1">
          <mxGeometry x="972" y="1624" width="120" height="60" as="geometry" />
        </mxCell>
        <mxCell id="OMyN0Gsu02lCNr_6fPPk-115" value="api upload" style="rounded=1;whiteSpace=wrap;html=1;" parent="1" vertex="1">
          <mxGeometry x="982" y="1634" width="120" height="60" as="geometry" />
        </mxCell>
        <mxCell id="OMyN0Gsu02lCNr_6fPPk-117" style="edgeStyle=orthogonalEdgeStyle;rounded=0;orthogonalLoop=1;jettySize=auto;html=1;fontSize=12;" parent="1" source="OMyN0Gsu02lCNr_6fPPk-99" target="OMyN0Gsu02lCNr_6fPPk-115" edge="1">
          <mxGeometry relative="1" as="geometry" />
        </mxCell>
        <mxCell id="OMyN0Gsu02lCNr_6fPPk-276" style="edgeStyle=orthogonalEdgeStyle;curved=1;rounded=0;orthogonalLoop=1;jettySize=auto;html=1;entryX=0.5;entryY=1;entryDx=0;entryDy=0;fontSize=12;" parent="1" source="OMyN0Gsu02lCNr_6fPPk-118" target="OMyN0Gsu02lCNr_6fPPk-228" edge="1">
          <mxGeometry relative="1" as="geometry" />
        </mxCell>
        <mxCell id="OMyN0Gsu02lCNr_6fPPk-118" value="Pipeline de PROD HA / Async" style="ellipse;whiteSpace=wrap;html=1;fillColor=none;labelPosition=center;verticalLabelPosition=top;align=center;verticalAlign=bottom;fontSize=20;dashed=1;strokeColor=#999999;" parent="1" vertex="1">
          <mxGeometry x="-666" y="1941" width="1091" height="530" as="geometry" />
        </mxCell>
        <mxCell id="OMyN0Gsu02lCNr_6fPPk-119" style="edgeStyle=orthogonalEdgeStyle;rounded=0;orthogonalLoop=1;jettySize=auto;html=1;entryX=0;entryY=0.5;entryDx=0;entryDy=0;" parent="1" source="OMyN0Gsu02lCNr_6fPPk-121" target="OMyN0Gsu02lCNr_6fPPk-125" edge="1">
          <mxGeometry relative="1" as="geometry">
            <Array as="points">
              <mxPoint x="-395" y="2331" />
            </Array>
          </mxGeometry>
        </mxCell>
        <mxCell id="OMyN0Gsu02lCNr_6fPPk-120" style="edgeStyle=orthogonalEdgeStyle;rounded=0;orthogonalLoop=1;jettySize=auto;html=1;entryX=-0.006;entryY=0.402;entryDx=0;entryDy=0;entryPerimeter=0;" parent="1" source="OMyN0Gsu02lCNr_6fPPk-121" target="OMyN0Gsu02lCNr_6fPPk-123" edge="1">
          <mxGeometry relative="1" as="geometry" />
        </mxCell>
        <mxCell id="OMyN0Gsu02lCNr_6fPPk-121" value="convert to json" style="rounded=1;whiteSpace=wrap;html=1;" parent="1" vertex="1">
          <mxGeometry x="-428" y="2191" width="120" height="60" as="geometry" />
        </mxCell>
        <mxCell id="OMyN0Gsu02lCNr_6fPPk-122" style="edgeStyle=orthogonalEdgeStyle;rounded=0;orthogonalLoop=1;jettySize=auto;html=1;entryX=0.25;entryY=0;entryDx=0;entryDy=0;" parent="1" source="OMyN0Gsu02lCNr_6fPPk-123" target="OMyN0Gsu02lCNr_6fPPk-129" edge="1">
          <mxGeometry relative="1" as="geometry" />
        </mxCell>
        <mxCell id="OMyN0Gsu02lCNr_6fPPk-123" value="extract text from attachment" style="rounded=1;whiteSpace=wrap;html=1;" parent="1" vertex="1">
          <mxGeometry x="-238" y="2121" width="120" height="60" as="geometry" />
        </mxCell>
        <mxCell id="OMyN0Gsu02lCNr_6fPPk-125" value="split pdf to pages" style="rounded=1;whiteSpace=wrap;html=1;" parent="1" vertex="1">
          <mxGeometry x="-338" y="2301" width="120" height="60" as="geometry" />
        </mxCell>
        <mxCell id="OMyN0Gsu02lCNr_6fPPk-126" style="edgeStyle=orthogonalEdgeStyle;rounded=0;orthogonalLoop=1;jettySize=auto;html=1;" parent="1" source="OMyN0Gsu02lCNr_6fPPk-127" target="OMyN0Gsu02lCNr_6fPPk-147" edge="1">
          <mxGeometry relative="1" as="geometry">
            <Array as="points">
              <mxPoint x="23" y="2331" />
            </Array>
          </mxGeometry>
        </mxCell>
        <mxCell id="OMyN0Gsu02lCNr_6fPPk-127" value="ocr" style="rounded=1;whiteSpace=wrap;html=1;" parent="1" vertex="1">
          <mxGeometry x="-168" y="2301" width="120" height="60" as="geometry" />
        </mxCell>
        <mxCell id="OMyN0Gsu02lCNr_6fPPk-128" style="edgeStyle=orthogonalEdgeStyle;curved=1;rounded=0;orthogonalLoop=1;jettySize=auto;html=1;fontSize=20;exitX=1;exitY=0.75;exitDx=0;exitDy=0;" parent="1" source="OMyN0Gsu02lCNr_6fPPk-147" target="OMyN0Gsu02lCNr_6fPPk-131" edge="1">
          <mxGeometry relative="1" as="geometry" />
        </mxCell>
        <mxCell id="OMyN0Gsu02lCNr_6fPPk-129" value="feature engineering" style="rounded=1;whiteSpace=wrap;html=1;" parent="1" vertex="1">
          <mxGeometry x="-48" y="2191" width="120" height="60" as="geometry" />
        </mxCell>
        <mxCell id="OMyN0Gsu02lCNr_6fPPk-130" style="edgeStyle=orthogonalEdgeStyle;curved=1;rounded=0;orthogonalLoop=1;jettySize=auto;html=1;fontSize=12;dashed=1;" parent="1" source="OMyN0Gsu02lCNr_6fPPk-131" target="OMyN0Gsu02lCNr_6fPPk-133" edge="1">
          <mxGeometry relative="1" as="geometry" />
        </mxCell>
        <mxCell id="OMyN0Gsu02lCNr_6fPPk-131" value="prediction" style="rounded=1;whiteSpace=wrap;html=1;" parent="1" vertex="1">
          <mxGeometry x="152" y="2191" width="120" height="60" as="geometry" />
        </mxCell>
        <mxCell id="OMyN0Gsu02lCNr_6fPPk-132" value="eml" style="image;html=1;image=img/lib/clip_art/networking/Email_128x128.png;labelPosition=center;verticalLabelPosition=top;align=center;verticalAlign=bottom;" parent="1" vertex="1">
          <mxGeometry x="-540" y="2061" width="30" height="40" as="geometry" />
        </mxCell>
        <mxCell id="OMyN0Gsu02lCNr_6fPPk-133" value="&lt;font style=&quot;font-size: 12px;&quot;&gt;Réponse au client&lt;/font&gt;" style="shape=parallelogram;perimeter=parallelogramPerimeter;whiteSpace=wrap;html=1;fixedSize=1;strokeColor=#999999;fontSize=20;fillColor=none;" parent="1" vertex="1">
          <mxGeometry x="174" y="2301" width="154" height="46" as="geometry" />
        </mxCell>
        <mxCell id="OMyN0Gsu02lCNr_6fPPk-134" value="convert to json" style="rounded=1;whiteSpace=wrap;html=1;" parent="1" vertex="1">
          <mxGeometry x="-418" y="2201" width="120" height="60" as="geometry" />
        </mxCell>
        <mxCell id="OMyN0Gsu02lCNr_6fPPk-135" value="convert to json" style="rounded=1;whiteSpace=wrap;html=1;" parent="1" vertex="1">
          <mxGeometry x="-408" y="2211" width="120" height="60" as="geometry" />
        </mxCell>
        <mxCell id="OMyN0Gsu02lCNr_6fPPk-136" value="extract text from attachment" style="rounded=1;whiteSpace=wrap;html=1;" parent="1" vertex="1">
          <mxGeometry x="-228" y="2131" width="120" height="60" as="geometry" />
        </mxCell>
        <mxCell id="OMyN0Gsu02lCNr_6fPPk-137" value="extract text from attachment" style="rounded=1;whiteSpace=wrap;html=1;" parent="1" vertex="1">
          <mxGeometry x="-218" y="2141" width="120" height="60" as="geometry" />
        </mxCell>
        <mxCell id="OMyN0Gsu02lCNr_6fPPk-138" value="split pdf to pages" style="rounded=1;whiteSpace=wrap;html=1;" parent="1" vertex="1">
          <mxGeometry x="-328" y="2311" width="120" height="60" as="geometry" />
        </mxCell>
        <mxCell id="OMyN0Gsu02lCNr_6fPPk-139" value="split pdf to pages" style="rounded=1;whiteSpace=wrap;html=1;" parent="1" vertex="1">
          <mxGeometry x="-318" y="2321" width="120" height="60" as="geometry" />
        </mxCell>
        <mxCell id="OMyN0Gsu02lCNr_6fPPk-170" style="edgeStyle=orthogonalEdgeStyle;curved=1;rounded=0;orthogonalLoop=1;jettySize=auto;html=1;fontSize=12;entryX=0;entryY=1;entryDx=0;entryDy=0;" parent="1" source="OMyN0Gsu02lCNr_6fPPk-140" target="OMyN0Gsu02lCNr_6fPPk-145" edge="1">
          <mxGeometry relative="1" as="geometry">
            <Array as="points">
              <mxPoint x="-248" y="2412" />
              <mxPoint x="-153" y="2412" />
              <mxPoint x="-153" y="2427" />
              <mxPoint x="-118" y="2427" />
            </Array>
          </mxGeometry>
        </mxCell>
        <mxCell id="OMyN0Gsu02lCNr_6fPPk-140" value="split pdf to pages" style="rounded=1;whiteSpace=wrap;html=1;" parent="1" vertex="1">
          <mxGeometry x="-308" y="2331" width="120" height="60" as="geometry" />
        </mxCell>
        <mxCell id="OMyN0Gsu02lCNr_6fPPk-141" value="ocr" style="rounded=1;whiteSpace=wrap;html=1;" parent="1" vertex="1">
          <mxGeometry x="-158" y="2311" width="120" height="60" as="geometry" />
        </mxCell>
        <mxCell id="OMyN0Gsu02lCNr_6fPPk-142" value="ocr" style="rounded=1;whiteSpace=wrap;html=1;" parent="1" vertex="1">
          <mxGeometry x="-148" y="2321" width="120" height="60" as="geometry" />
        </mxCell>
        <mxCell id="OMyN0Gsu02lCNr_6fPPk-143" value="ocr" style="rounded=1;whiteSpace=wrap;html=1;" parent="1" vertex="1">
          <mxGeometry x="-138" y="2331" width="120" height="60" as="geometry" />
        </mxCell>
        <mxCell id="OMyN0Gsu02lCNr_6fPPk-144" value="ocr" style="rounded=1;whiteSpace=wrap;html=1;" parent="1" vertex="1">
          <mxGeometry x="-128" y="2341" width="120" height="60" as="geometry" />
        </mxCell>
        <mxCell id="OMyN0Gsu02lCNr_6fPPk-145" value="ocr" style="rounded=1;whiteSpace=wrap;html=1;" parent="1" vertex="1">
          <mxGeometry x="-118" y="2351" width="120" height="60" as="geometry" />
        </mxCell>
        <mxCell id="OMyN0Gsu02lCNr_6fPPk-146" value="feature engineering" style="rounded=1;whiteSpace=wrap;html=1;" parent="1" vertex="1">
          <mxGeometry x="-38" y="2201" width="120" height="60" as="geometry" />
        </mxCell>
        <mxCell id="OMyN0Gsu02lCNr_6fPPk-147" value="feature engineering" style="rounded=1;whiteSpace=wrap;html=1;" parent="1" vertex="1">
          <mxGeometry x="-28" y="2211" width="120" height="60" as="geometry" />
        </mxCell>
        <mxCell id="OMyN0Gsu02lCNr_6fPPk-148" value="prediction" style="rounded=1;whiteSpace=wrap;html=1;" parent="1" vertex="1">
          <mxGeometry x="162" y="2201" width="120" height="60" as="geometry" />
        </mxCell>
        <mxCell id="OMyN0Gsu02lCNr_6fPPk-149" value="prediction" style="rounded=1;whiteSpace=wrap;html=1;" parent="1" vertex="1">
          <mxGeometry x="172" y="2211" width="120" height="60" as="geometry" />
        </mxCell>
        <mxCell id="OMyN0Gsu02lCNr_6fPPk-150" value="eml" style="image;html=1;image=img/lib/clip_art/networking/Email_128x128.png;labelPosition=center;verticalLabelPosition=top;align=center;verticalAlign=bottom;" parent="1" vertex="1">
          <mxGeometry x="-530" y="2071" width="30" height="40" as="geometry" />
        </mxCell>
        <mxCell id="OMyN0Gsu02lCNr_6fPPk-151" value="eml" style="image;html=1;image=img/lib/clip_art/networking/Email_128x128.png;labelPosition=center;verticalLabelPosition=top;align=center;verticalAlign=bottom;" parent="1" vertex="1">
          <mxGeometry x="-520" y="2081" width="30" height="40" as="geometry" />
        </mxCell>
        <mxCell id="OMyN0Gsu02lCNr_6fPPk-152" value="redis in memory" style="shape=cylinder3;whiteSpace=wrap;html=1;boundedLbl=1;backgroundOutline=1;size=15;strokeColor=#000000;fontSize=12;fillColor=default;" parent="1" vertex="1">
          <mxGeometry x="-130" y="1976" width="60" height="80" as="geometry" />
        </mxCell>
        <mxCell id="OMyN0Gsu02lCNr_6fPPk-153" value="redis in memory" style="shape=cylinder3;whiteSpace=wrap;html=1;boundedLbl=1;backgroundOutline=1;size=15;strokeColor=#000000;fontSize=12;fillColor=default;" parent="1" vertex="1">
          <mxGeometry x="-120" y="1986" width="60" height="80" as="geometry" />
        </mxCell>
        <mxCell id="OMyN0Gsu02lCNr_6fPPk-154" value="redis in memory" style="shape=cylinder3;whiteSpace=wrap;html=1;boundedLbl=1;backgroundOutline=1;size=15;strokeColor=#000000;fontSize=12;fillColor=default;" parent="1" vertex="1">
          <mxGeometry x="-110" y="1996" width="60" height="80" as="geometry" />
        </mxCell>
        <mxCell id="OMyN0Gsu02lCNr_6fPPk-156" value="api upload" style="rounded=1;whiteSpace=wrap;html=1;" parent="1" vertex="1">
          <mxGeometry x="-428" y="2081" width="120" height="60" as="geometry" />
        </mxCell>
        <mxCell id="OMyN0Gsu02lCNr_6fPPk-164" style="edgeStyle=orthogonalEdgeStyle;curved=1;rounded=0;orthogonalLoop=1;jettySize=auto;html=1;fontSize=12;" parent="1" source="OMyN0Gsu02lCNr_6fPPk-157" target="OMyN0Gsu02lCNr_6fPPk-121" edge="1">
          <mxGeometry relative="1" as="geometry" />
        </mxCell>
        <mxCell id="OMyN0Gsu02lCNr_6fPPk-157" value="api upload" style="rounded=1;whiteSpace=wrap;html=1;" parent="1" vertex="1">
          <mxGeometry x="-418" y="2091" width="120" height="60" as="geometry" />
        </mxCell>
        <mxCell id="OMyN0Gsu02lCNr_6fPPk-158" style="edgeStyle=orthogonalEdgeStyle;rounded=0;orthogonalLoop=1;jettySize=auto;html=1;fontSize=12;" parent="1" source="OMyN0Gsu02lCNr_6fPPk-151" target="OMyN0Gsu02lCNr_6fPPk-157" edge="1">
          <mxGeometry relative="1" as="geometry" />
        </mxCell>
        <mxCell id="OMyN0Gsu02lCNr_6fPPk-160" value="" style="shape=cylinder3;whiteSpace=wrap;html=1;boundedLbl=1;backgroundOutline=1;size=6.275232927159323;strokeColor=#9673a6;fontSize=12;fillColor=#e1d5e7;rotation=90;" parent="1" vertex="1">
          <mxGeometry x="-373" y="2141" width="15.09" height="52" as="geometry" />
        </mxCell>
        <mxCell id="OMyN0Gsu02lCNr_6fPPk-165" value="" style="shape=cylinder3;whiteSpace=wrap;html=1;boundedLbl=1;backgroundOutline=1;size=6.275232927159323;strokeColor=#9673a6;fontSize=12;fillColor=#e1d5e7;rotation=90;" parent="1" vertex="1">
          <mxGeometry x="-388.09" y="2305" width="15.09" height="52" as="geometry" />
        </mxCell>
        <mxCell id="OMyN0Gsu02lCNr_6fPPk-166" value="" style="shape=cylinder3;whiteSpace=wrap;html=1;boundedLbl=1;backgroundOutline=1;size=6.275232927159323;strokeColor=#9673a6;fontSize=12;fillColor=#e1d5e7;rotation=90;" parent="1" vertex="1">
          <mxGeometry x="-278.99999999999994" y="2151" width="15.09" height="52" as="geometry" />
        </mxCell>
        <mxCell id="OMyN0Gsu02lCNr_6fPPk-172" value="" style="shape=cylinder3;whiteSpace=wrap;html=1;boundedLbl=1;backgroundOutline=1;size=6.275232927159323;strokeColor=#9673a6;fontSize=12;fillColor=#e1d5e7;rotation=90;" parent="1" vertex="1">
          <mxGeometry x="-189.99999999999997" y="2387" width="15.09" height="52" as="geometry" />
        </mxCell>
        <mxCell id="OMyN0Gsu02lCNr_6fPPk-173" value="" style="shape=cylinder3;whiteSpace=wrap;html=1;boundedLbl=1;backgroundOutline=1;size=6.275232927159323;strokeColor=#9673a6;fontSize=12;fillColor=#e1d5e7;rotation=90;" parent="1" vertex="1">
          <mxGeometry x="-56.99999999999994" y="2126" width="15.09" height="52" as="geometry" />
        </mxCell>
        <mxCell id="OMyN0Gsu02lCNr_6fPPk-176" value="" style="shape=cylinder3;whiteSpace=wrap;html=1;boundedLbl=1;backgroundOutline=1;size=6.275232927159323;strokeColor=#9673a6;fontSize=12;fillColor=#e1d5e7;rotation=90;" parent="1" vertex="1">
          <mxGeometry x="8.000000000000057" y="2303" width="15.09" height="52" as="geometry" />
        </mxCell>
        <mxCell id="OMyN0Gsu02lCNr_6fPPk-178" value="" style="shape=cylinder3;whiteSpace=wrap;html=1;boundedLbl=1;backgroundOutline=1;size=6.275232927159323;strokeColor=#9673a6;fontSize=12;fillColor=#e1d5e7;rotation=90;" parent="1" vertex="1">
          <mxGeometry x="113.00000000000006" y="2217" width="15.09" height="52" as="geometry" />
        </mxCell>
        <mxCell id="gDeRItCsJUCmX3u7agb1-17" style="edgeStyle=orthogonalEdgeStyle;rounded=0;orthogonalLoop=1;jettySize=auto;html=1;entryX=0;entryY=0.5;entryDx=0;entryDy=0;dashed=1;dashPattern=1 1;curved=1;exitX=0.5;exitY=0;exitDx=0;exitDy=0;" parent="1" source="OMyN0Gsu02lCNr_6fPPk-228" target="OMyN0Gsu02lCNr_6fPPk-28" edge="1">
          <mxGeometry relative="1" as="geometry" />
        </mxCell>
        <mxCell id="OMyN0Gsu02lCNr_6fPPk-228" value="Pipeline de PROD HA / Async + Monitoring" style="ellipse;whiteSpace=wrap;html=1;fillColor=none;labelPosition=center;verticalLabelPosition=top;align=center;verticalAlign=bottom;fontSize=20;dashed=1;strokeColor=#999999;" parent="1" vertex="1">
          <mxGeometry x="-1945" y="864" width="1091" height="530" as="geometry" />
        </mxCell>
        <mxCell id="OMyN0Gsu02lCNr_6fPPk-229" style="edgeStyle=orthogonalEdgeStyle;rounded=0;orthogonalLoop=1;jettySize=auto;html=1;entryX=0;entryY=0.5;entryDx=0;entryDy=0;" parent="1" source="OMyN0Gsu02lCNr_6fPPk-231" target="OMyN0Gsu02lCNr_6fPPk-234" edge="1">
          <mxGeometry relative="1" as="geometry">
            <Array as="points">
              <mxPoint x="-1674" y="1254" />
            </Array>
          </mxGeometry>
        </mxCell>
        <mxCell id="OMyN0Gsu02lCNr_6fPPk-230" style="edgeStyle=orthogonalEdgeStyle;rounded=0;orthogonalLoop=1;jettySize=auto;html=1;entryX=-0.006;entryY=0.402;entryDx=0;entryDy=0;entryPerimeter=0;" parent="1" source="OMyN0Gsu02lCNr_6fPPk-231" target="OMyN0Gsu02lCNr_6fPPk-233" edge="1">
          <mxGeometry relative="1" as="geometry" />
        </mxCell>
        <mxCell id="gDeRItCsJUCmX3u7agb1-15" style="edgeStyle=orthogonalEdgeStyle;rounded=0;orthogonalLoop=1;jettySize=auto;html=1;dashed=1;dashPattern=1 1;entryX=0.75;entryY=0;entryDx=0;entryDy=0;" parent="1" source="OMyN0Gsu02lCNr_6fPPk-231" target="gDeRItCsJUCmX3u7agb1-12" edge="1">
          <mxGeometry relative="1" as="geometry" />
        </mxCell>
        <mxCell id="OMyN0Gsu02lCNr_6fPPk-231" value="convert to json" style="rounded=1;whiteSpace=wrap;html=1;" parent="1" vertex="1">
          <mxGeometry x="-1707" y="1114" width="120" height="60" as="geometry" />
        </mxCell>
        <mxCell id="OMyN0Gsu02lCNr_6fPPk-232" style="edgeStyle=orthogonalEdgeStyle;rounded=0;orthogonalLoop=1;jettySize=auto;html=1;entryX=0.25;entryY=0;entryDx=0;entryDy=0;" parent="1" source="OMyN0Gsu02lCNr_6fPPk-233" target="OMyN0Gsu02lCNr_6fPPk-238" edge="1">
          <mxGeometry relative="1" as="geometry" />
        </mxCell>
        <mxCell id="OMyN0Gsu02lCNr_6fPPk-233" value="extract text from attachment" style="rounded=1;whiteSpace=wrap;html=1;" parent="1" vertex="1">
          <mxGeometry x="-1517" y="1044" width="120" height="60" as="geometry" />
        </mxCell>
        <mxCell id="gDeRItCsJUCmX3u7agb1-11" style="edgeStyle=orthogonalEdgeStyle;rounded=0;orthogonalLoop=1;jettySize=auto;html=1;dashed=1;dashPattern=1 1;entryX=0.5;entryY=1;entryDx=0;entryDy=0;" parent="1" source="OMyN0Gsu02lCNr_6fPPk-234" target="gDeRItCsJUCmX3u7agb1-2" edge="1">
          <mxGeometry relative="1" as="geometry">
            <Array as="points">
              <mxPoint x="-1521" y="1015" />
              <mxPoint x="-1533" y="1015" />
              <mxPoint x="-1533" y="959" />
            </Array>
          </mxGeometry>
        </mxCell>
        <mxCell id="OMyN0Gsu02lCNr_6fPPk-234" value="split pdf to pages" style="rounded=1;whiteSpace=wrap;html=1;" parent="1" vertex="1">
          <mxGeometry x="-1617" y="1224" width="120" height="60" as="geometry" />
        </mxCell>
        <mxCell id="OMyN0Gsu02lCNr_6fPPk-235" style="edgeStyle=orthogonalEdgeStyle;rounded=0;orthogonalLoop=1;jettySize=auto;html=1;" parent="1" source="OMyN0Gsu02lCNr_6fPPk-236" target="OMyN0Gsu02lCNr_6fPPk-257" edge="1">
          <mxGeometry relative="1" as="geometry">
            <Array as="points">
              <mxPoint x="-1256" y="1254" />
            </Array>
          </mxGeometry>
        </mxCell>
        <mxCell id="OMyN0Gsu02lCNr_6fPPk-236" value="ocr" style="rounded=1;whiteSpace=wrap;html=1;" parent="1" vertex="1">
          <mxGeometry x="-1447" y="1224" width="120" height="60" as="geometry" />
        </mxCell>
        <mxCell id="OMyN0Gsu02lCNr_6fPPk-237" style="edgeStyle=orthogonalEdgeStyle;curved=1;rounded=0;orthogonalLoop=1;jettySize=auto;html=1;fontSize=20;exitX=1;exitY=0.75;exitDx=0;exitDy=0;" parent="1" source="OMyN0Gsu02lCNr_6fPPk-257" target="OMyN0Gsu02lCNr_6fPPk-240" edge="1">
          <mxGeometry relative="1" as="geometry" />
        </mxCell>
        <mxCell id="gDeRItCsJUCmX3u7agb1-10" style="edgeStyle=orthogonalEdgeStyle;rounded=0;orthogonalLoop=1;jettySize=auto;html=1;exitX=0.5;exitY=0;exitDx=0;exitDy=0;dashed=1;dashPattern=1 1;" parent="1" source="OMyN0Gsu02lCNr_6fPPk-238" edge="1">
          <mxGeometry relative="1" as="geometry">
            <mxPoint x="-1537.6190476190477" y="953.5714285714284" as="targetPoint" />
            <Array as="points">
              <mxPoint x="-1267" y="1020" />
              <mxPoint x="-1538" y="1020" />
            </Array>
          </mxGeometry>
        </mxCell>
        <mxCell id="OMyN0Gsu02lCNr_6fPPk-238" value="feature engineering" style="rounded=1;whiteSpace=wrap;html=1;" parent="1" vertex="1">
          <mxGeometry x="-1327" y="1114" width="120" height="60" as="geometry" />
        </mxCell>
        <mxCell id="OMyN0Gsu02lCNr_6fPPk-239" style="edgeStyle=orthogonalEdgeStyle;curved=1;rounded=0;orthogonalLoop=1;jettySize=auto;html=1;fontSize=12;dashed=1;" parent="1" source="OMyN0Gsu02lCNr_6fPPk-240" target="OMyN0Gsu02lCNr_6fPPk-242" edge="1">
          <mxGeometry relative="1" as="geometry" />
        </mxCell>
        <mxCell id="OMyN0Gsu02lCNr_6fPPk-240" value="prediction" style="rounded=1;whiteSpace=wrap;html=1;" parent="1" vertex="1">
          <mxGeometry x="-1127" y="1114" width="120" height="60" as="geometry" />
        </mxCell>
        <mxCell id="OMyN0Gsu02lCNr_6fPPk-241" value="eml" style="image;html=1;image=img/lib/clip_art/networking/Email_128x128.png;labelPosition=center;verticalLabelPosition=top;align=center;verticalAlign=bottom;" parent="1" vertex="1">
          <mxGeometry x="-1819" y="984" width="30" height="40" as="geometry" />
        </mxCell>
        <mxCell id="OMyN0Gsu02lCNr_6fPPk-242" value="&lt;font style=&quot;font-size: 12px;&quot;&gt;Réponse au client&lt;/font&gt;" style="shape=parallelogram;perimeter=parallelogramPerimeter;whiteSpace=wrap;html=1;fixedSize=1;strokeColor=#999999;fontSize=20;fillColor=none;" parent="1" vertex="1">
          <mxGeometry x="-1105" y="1224" width="154" height="46" as="geometry" />
        </mxCell>
        <mxCell id="OMyN0Gsu02lCNr_6fPPk-243" value="convert to json" style="rounded=1;whiteSpace=wrap;html=1;" parent="1" vertex="1">
          <mxGeometry x="-1697" y="1124" width="120" height="60" as="geometry" />
        </mxCell>
        <mxCell id="OMyN0Gsu02lCNr_6fPPk-244" value="convert to json" style="rounded=1;whiteSpace=wrap;html=1;" parent="1" vertex="1">
          <mxGeometry x="-1687" y="1134" width="120" height="60" as="geometry" />
        </mxCell>
        <mxCell id="gDeRItCsJUCmX3u7agb1-9" style="edgeStyle=orthogonalEdgeStyle;rounded=0;orthogonalLoop=1;jettySize=auto;html=1;exitX=0.5;exitY=0;exitDx=0;exitDy=0;dashed=1;dashPattern=1 1;" parent="1" source="OMyN0Gsu02lCNr_6fPPk-245" target="gDeRItCsJUCmX3u7agb1-2" edge="1">
          <mxGeometry relative="1" as="geometry">
            <Array as="points">
              <mxPoint x="-1447" y="988" />
              <mxPoint x="-1535" y="988" />
            </Array>
          </mxGeometry>
        </mxCell>
        <mxCell id="OMyN0Gsu02lCNr_6fPPk-245" value="extract text from attachment" style="rounded=1;whiteSpace=wrap;html=1;" parent="1" vertex="1">
          <mxGeometry x="-1507" y="1054" width="120" height="60" as="geometry" />
        </mxCell>
        <mxCell id="OMyN0Gsu02lCNr_6fPPk-246" value="extract text from attachment" style="rounded=1;whiteSpace=wrap;html=1;" parent="1" vertex="1">
          <mxGeometry x="-1497" y="1064" width="120" height="60" as="geometry" />
        </mxCell>
        <mxCell id="OMyN0Gsu02lCNr_6fPPk-247" value="split pdf to pages" style="rounded=1;whiteSpace=wrap;html=1;" parent="1" vertex="1">
          <mxGeometry x="-1607" y="1234" width="120" height="60" as="geometry" />
        </mxCell>
        <mxCell id="OMyN0Gsu02lCNr_6fPPk-248" value="split pdf to pages" style="rounded=1;whiteSpace=wrap;html=1;" parent="1" vertex="1">
          <mxGeometry x="-1597" y="1244" width="120" height="60" as="geometry" />
        </mxCell>
        <mxCell id="OMyN0Gsu02lCNr_6fPPk-249" style="edgeStyle=orthogonalEdgeStyle;curved=1;rounded=0;orthogonalLoop=1;jettySize=auto;html=1;fontSize=12;entryX=0;entryY=1;entryDx=0;entryDy=0;" parent="1" source="OMyN0Gsu02lCNr_6fPPk-250" target="OMyN0Gsu02lCNr_6fPPk-255" edge="1">
          <mxGeometry relative="1" as="geometry">
            <Array as="points">
              <mxPoint x="-1527" y="1335" />
              <mxPoint x="-1432" y="1335" />
              <mxPoint x="-1432" y="1350" />
              <mxPoint x="-1397" y="1350" />
            </Array>
          </mxGeometry>
        </mxCell>
        <mxCell id="gDeRItCsJUCmX3u7agb1-16" style="edgeStyle=orthogonalEdgeStyle;rounded=0;orthogonalLoop=1;jettySize=auto;html=1;exitX=0;exitY=0.75;exitDx=0;exitDy=0;entryX=1;entryY=0.75;entryDx=0;entryDy=0;dashed=1;dashPattern=1 1;" parent="1" source="OMyN0Gsu02lCNr_6fPPk-250" target="gDeRItCsJUCmX3u7agb1-12" edge="1">
          <mxGeometry relative="1" as="geometry" />
        </mxCell>
        <mxCell id="OMyN0Gsu02lCNr_6fPPk-250" value="split pdf to pages" style="rounded=1;whiteSpace=wrap;html=1;" parent="1" vertex="1">
          <mxGeometry x="-1587" y="1254" width="120" height="60" as="geometry" />
        </mxCell>
        <mxCell id="OMyN0Gsu02lCNr_6fPPk-251" value="ocr" style="rounded=1;whiteSpace=wrap;html=1;" parent="1" vertex="1">
          <mxGeometry x="-1437" y="1234" width="120" height="60" as="geometry" />
        </mxCell>
        <mxCell id="OMyN0Gsu02lCNr_6fPPk-252" value="ocr" style="rounded=1;whiteSpace=wrap;html=1;" parent="1" vertex="1">
          <mxGeometry x="-1427" y="1244" width="120" height="60" as="geometry" />
        </mxCell>
        <mxCell id="OMyN0Gsu02lCNr_6fPPk-253" value="ocr" style="rounded=1;whiteSpace=wrap;html=1;" parent="1" vertex="1">
          <mxGeometry x="-1417" y="1254" width="120" height="60" as="geometry" />
        </mxCell>
        <mxCell id="OMyN0Gsu02lCNr_6fPPk-254" value="ocr" style="rounded=1;whiteSpace=wrap;html=1;" parent="1" vertex="1">
          <mxGeometry x="-1407" y="1264" width="120" height="60" as="geometry" />
        </mxCell>
        <mxCell id="OMyN0Gsu02lCNr_6fPPk-255" value="ocr" style="rounded=1;whiteSpace=wrap;html=1;" parent="1" vertex="1">
          <mxGeometry x="-1397" y="1274" width="120" height="60" as="geometry" />
        </mxCell>
        <mxCell id="OMyN0Gsu02lCNr_6fPPk-256" value="feature engineering" style="rounded=1;whiteSpace=wrap;html=1;" parent="1" vertex="1">
          <mxGeometry x="-1317" y="1124" width="120" height="60" as="geometry" />
        </mxCell>
        <mxCell id="OMyN0Gsu02lCNr_6fPPk-257" value="feature engineering" style="rounded=1;whiteSpace=wrap;html=1;" parent="1" vertex="1">
          <mxGeometry x="-1307" y="1134" width="120" height="60" as="geometry" />
        </mxCell>
        <mxCell id="OMyN0Gsu02lCNr_6fPPk-258" value="prediction" style="rounded=1;whiteSpace=wrap;html=1;" parent="1" vertex="1">
          <mxGeometry x="-1117" y="1124" width="120" height="60" as="geometry" />
        </mxCell>
        <mxCell id="OMyN0Gsu02lCNr_6fPPk-259" value="prediction" style="rounded=1;whiteSpace=wrap;html=1;" parent="1" vertex="1">
          <mxGeometry x="-1107" y="1134" width="120" height="60" as="geometry" />
        </mxCell>
        <mxCell id="OMyN0Gsu02lCNr_6fPPk-260" value="eml" style="image;html=1;image=img/lib/clip_art/networking/Email_128x128.png;labelPosition=center;verticalLabelPosition=top;align=center;verticalAlign=bottom;" parent="1" vertex="1">
          <mxGeometry x="-1809" y="994" width="30" height="40" as="geometry" />
        </mxCell>
        <mxCell id="OMyN0Gsu02lCNr_6fPPk-261" value="eml" style="image;html=1;image=img/lib/clip_art/networking/Email_128x128.png;labelPosition=center;verticalLabelPosition=top;align=center;verticalAlign=bottom;" parent="1" vertex="1">
          <mxGeometry x="-1799" y="1004" width="30" height="40" as="geometry" />
        </mxCell>
        <mxCell id="OMyN0Gsu02lCNr_6fPPk-262" value="redis in memory" style="shape=cylinder3;whiteSpace=wrap;html=1;boundedLbl=1;backgroundOutline=1;size=15;strokeColor=#000000;fontSize=12;fillColor=default;" parent="1" vertex="1">
          <mxGeometry x="-1409" y="899" width="60" height="80" as="geometry" />
        </mxCell>
        <mxCell id="OMyN0Gsu02lCNr_6fPPk-263" value="redis in memory" style="shape=cylinder3;whiteSpace=wrap;html=1;boundedLbl=1;backgroundOutline=1;size=15;strokeColor=#000000;fontSize=12;fillColor=default;" parent="1" vertex="1">
          <mxGeometry x="-1399" y="909" width="60" height="80" as="geometry" />
        </mxCell>
        <mxCell id="OMyN0Gsu02lCNr_6fPPk-264" value="redis in memory" style="shape=cylinder3;whiteSpace=wrap;html=1;boundedLbl=1;backgroundOutline=1;size=15;strokeColor=#000000;fontSize=12;fillColor=default;" parent="1" vertex="1">
          <mxGeometry x="-1389" y="919" width="60" height="80" as="geometry" />
        </mxCell>
        <mxCell id="OMyN0Gsu02lCNr_6fPPk-265" value="api upload" style="rounded=1;whiteSpace=wrap;html=1;" parent="1" vertex="1">
          <mxGeometry x="-1707" y="1004" width="120" height="60" as="geometry" />
        </mxCell>
        <mxCell id="OMyN0Gsu02lCNr_6fPPk-266" style="edgeStyle=orthogonalEdgeStyle;curved=1;rounded=0;orthogonalLoop=1;jettySize=auto;html=1;fontSize=12;" parent="1" source="OMyN0Gsu02lCNr_6fPPk-267" target="OMyN0Gsu02lCNr_6fPPk-231" edge="1">
          <mxGeometry relative="1" as="geometry" />
        </mxCell>
        <mxCell id="gDeRItCsJUCmX3u7agb1-7" style="edgeStyle=orthogonalEdgeStyle;rounded=0;orthogonalLoop=1;jettySize=auto;html=1;dashed=1;dashPattern=1 1;" parent="1" source="OMyN0Gsu02lCNr_6fPPk-267" target="gDeRItCsJUCmX3u7agb1-2" edge="1">
          <mxGeometry relative="1" as="geometry" />
        </mxCell>
        <mxCell id="OMyN0Gsu02lCNr_6fPPk-267" value="api upload" style="rounded=1;whiteSpace=wrap;html=1;" parent="1" vertex="1">
          <mxGeometry x="-1697" y="1014" width="120" height="60" as="geometry" />
        </mxCell>
        <mxCell id="OMyN0Gsu02lCNr_6fPPk-268" style="edgeStyle=orthogonalEdgeStyle;rounded=0;orthogonalLoop=1;jettySize=auto;html=1;fontSize=12;" parent="1" source="OMyN0Gsu02lCNr_6fPPk-261" target="OMyN0Gsu02lCNr_6fPPk-267" edge="1">
          <mxGeometry relative="1" as="geometry" />
        </mxCell>
        <mxCell id="OMyN0Gsu02lCNr_6fPPk-269" value="" style="shape=cylinder3;whiteSpace=wrap;html=1;boundedLbl=1;backgroundOutline=1;size=6.275232927159323;strokeColor=#9673a6;fontSize=12;fillColor=#e1d5e7;rotation=90;" parent="1" vertex="1">
          <mxGeometry x="-1652" y="1064" width="15.09" height="52" as="geometry" />
        </mxCell>
        <mxCell id="OMyN0Gsu02lCNr_6fPPk-270" value="" style="shape=cylinder3;whiteSpace=wrap;html=1;boundedLbl=1;backgroundOutline=1;size=6.275232927159323;strokeColor=#9673a6;fontSize=12;fillColor=#e1d5e7;rotation=90;" parent="1" vertex="1">
          <mxGeometry x="-1667.0900000000001" y="1228" width="15.09" height="52" as="geometry" />
        </mxCell>
        <mxCell id="OMyN0Gsu02lCNr_6fPPk-271" value="" style="shape=cylinder3;whiteSpace=wrap;html=1;boundedLbl=1;backgroundOutline=1;size=6.275232927159323;strokeColor=#9673a6;fontSize=12;fillColor=#e1d5e7;rotation=90;" parent="1" vertex="1">
          <mxGeometry x="-1558" y="1074" width="15.09" height="52" as="geometry" />
        </mxCell>
        <mxCell id="OMyN0Gsu02lCNr_6fPPk-272" value="" style="shape=cylinder3;whiteSpace=wrap;html=1;boundedLbl=1;backgroundOutline=1;size=6.275232927159323;strokeColor=#9673a6;fontSize=12;fillColor=#e1d5e7;rotation=90;" parent="1" vertex="1">
          <mxGeometry x="-1469" y="1310" width="15.09" height="52" as="geometry" />
        </mxCell>
        <mxCell id="OMyN0Gsu02lCNr_6fPPk-273" value="" style="shape=cylinder3;whiteSpace=wrap;html=1;boundedLbl=1;backgroundOutline=1;size=6.275232927159323;strokeColor=#9673a6;fontSize=12;fillColor=#e1d5e7;rotation=90;" parent="1" vertex="1">
          <mxGeometry x="-1336" y="1049" width="15.09" height="52" as="geometry" />
        </mxCell>
        <mxCell id="OMyN0Gsu02lCNr_6fPPk-274" value="" style="shape=cylinder3;whiteSpace=wrap;html=1;boundedLbl=1;backgroundOutline=1;size=6.275232927159323;strokeColor=#9673a6;fontSize=12;fillColor=#e1d5e7;rotation=90;" parent="1" vertex="1">
          <mxGeometry x="-1271" y="1226" width="15.09" height="52" as="geometry" />
        </mxCell>
        <mxCell id="OMyN0Gsu02lCNr_6fPPk-275" value="" style="shape=cylinder3;whiteSpace=wrap;html=1;boundedLbl=1;backgroundOutline=1;size=6.275232927159323;strokeColor=#9673a6;fontSize=12;fillColor=#e1d5e7;rotation=90;" parent="1" vertex="1">
          <mxGeometry x="-1166" y="1140" width="15.09" height="52" as="geometry" />
        </mxCell>
        <mxCell id="gDeRItCsJUCmX3u7agb1-6" value="Monitoring + alerting" style="edgeStyle=orthogonalEdgeStyle;rounded=0;orthogonalLoop=1;jettySize=auto;html=1;entryX=1;entryY=0.5;entryDx=0;entryDy=0;" parent="1" source="gDeRItCsJUCmX3u7agb1-1" target="gDeRItCsJUCmX3u7agb1-4" edge="1">
          <mxGeometry relative="1" as="geometry" />
        </mxCell>
        <mxCell id="gDeRItCsJUCmX3u7agb1-1" value="Grafana" style="shape=image;verticalLabelPosition=top;verticalAlign=bottom;imageAspect=0;aspect=fixed;image=data:image/png,iVBORw0KGgoAAAANSUhEUgAAAggAAAD5CAYAAABCrc32AAAAAXNSR0IArs4c6QAAIABJREFUeF7sXQV4VMcW/uPu7gYEd3d3h+IUt+I8rBQrpVjxUqQUK06LF4cWJ7h7QiDu7vq+M5vd7CabZJPchMjM+/rC7s6cO/PP3Dv/PXNEycrGIR0FLMrKyoiLjStga96MI8AR4AhwBDgCHIGSioASJwgldWp4vzgCHAGOAEeAI/D1EMiVIKytoobZb5Nz7B3XIHy9ieNX5ghwBDgCHAGOQFEikI0gdDVXgYYyUE1XGUNsVHA6MA0BicAmz6Rs/eAEoSinhsvmCHAEOAJlCwElJSXQvlHeSmpqqmTIKioqxTr8tLQ0pKeLLAkIe5qDvArVp3bZCMLzFppQVwb+9k/Fog8i7cEYO1WcCUpFcKKsuQInCHnBzH/nCHAEOAIcATECKqoqUFNTK3eAqKupIyoqio1bU0tTofHr6ugiJjZGobq5VVJVUUVMjEiOnr4ekpNzPhUQy9FQ10BkZGR2glDHSAXLa6mh2/UE7G0mmsh//dMQm6SM4z6ygjlBKPTccQEcAY4AR6DcIFBeCYJ4w/0aBIE0FrExsfkiCOrq6oiKjJIlCLZ6StjYRh2nP6YiKD4db0IA75hU7OqghjFXsrOOnAhCnTr1oaWlhVevXqBVy7YIjwjH7dvXJTdB1arV4eJcEUFBgbj/4G6Bbo5q1Wri9esXkrakNqlevRZevnwGS0trNKjfCGHhobhz5ya0tLRhb++A9+/fonXr9rh+/Spr17ZtR7jdu42GDZsgIjICz549hrW1LRIS4tG0aQsEBwfh/n3Z/tWpUw+2Nvb45Okhc33pQXTr2gvnzp9mX3Xr1gvnzon+rUgZPOhbHD7yJ6vaqlVb6OsZwNvHi/WtRo3aCAz0Z7hJl5Yt2+LmzX+zie/UsSsuXT4v97KtW7VjKqSbt/5TpFu8DkeAI8ARKDQCWQkCPUuVVZShp6uH129eyshXVVVFSkpKntekfYieZRoamqx+amr2NrRJSqv58xRagAq079Bbv6aWFj5+fI/ExASJlJwIgoODE4wMjRAbG4v4+Dj4+HpL2mTVINAeR6p/bW0dxMWJNnxFSk4EwcWlIhLi4yUidHR08eHjO/ZZLkHo4qqEjd2V4B2lgqGHU6GjoQTPsFSMqq+EBz5KeOWfJtOfnAgCbWwB/v4IDgkSEYTwMFy/cY21VVVVw5/7jmHI0D743/8WYPPmtahZszZCQoIREhyMatVqID4hnm30jRo1g6enO1JT01CzRm08fvIATZq0wL//XkK3br1x6tRfkv4YGhrB1taOkZKGDZsiIMAPjRs3w7FjB/Hbll1so/9z/y78sfMATp8+Drf7d7Dz9/2YMHEkxo79DlWrVMPQYX3x25Y/oKWtg9GjB2PN6k2YO2+6zJjnzV2E1Wt+wtEjZzBx0kiYmVowQhEY5I/GjZrj+YsnmD17AU6dOo6PH99i3rzF+OefU3jx4hk7+6FN/tEjN2hqaoFIzuNH92FiYgYzM3Po6Opi6pRZDBsjI2MsWbwCM2ZOxIoV67B48XzUrdsAb9++RM2adZCamo5Xr56BbqIqVWrgzZsX0NDQgJGRCfT19OHu8QGTJ8/E8uWLJP2nSadFQNceOmQEqleviZGjBimyxngdjgBHgCNQaASkCQJtULShV69Wk71QjRg+Fvv2/5GxT6hi4IBhOHhoLzuSIBV9UnIS1OhvUiLq1mmABw/voX//IYiKisS9e7fQulVbvHr1Ep6fPdgmKi70fDY2NkFcnMglPy01FSmpKVBTVYOtnT08PT9BXV2N9YX2J3mbr5iE5AZADXpBffWcValSpTrevn2VJ0Ho12cgPn/xZHtblcrV8O79G4m9gDRBmDh+Kh48cmN9p73uw8f3bF+lQsRCuoiJhPi7nAjCgG+G4thfByVNZ0yfi42b1uRMENjALJWwYXAaPgQpY/rBdAxspILZnVIw45AybrsrZoNQwaUSnJ0rMK1B8+atERkZIdEUGBubss3JP8APtWrVwcGDe9G2TUe2edLbrKWFFSwsreDl9QVOjk4MjEePHwDp6fDz90XlylURGhrC3vSlCULTJi3g7vERQUEBaNq0JYYPGwV39w/Y8tt6zJu7GJ8+uePAwT3Yvm0vHj9+yCbkx6UrMXbccIwZPRHBwYF49folOnXsgqU/LgBpAejatEB79uzHGC79W0wQzMws4FqpMlLT0jD5uxk4f/4MiA2eOv0Xhg4dhe3bN2Pd2i345OnO/v3Lmi148OAujh47iBnT52D7ji1MQ0DY0KKnzf3OnRtY8P2PGDlqIOjmiY+LQ/36jVChQiVYWdngxo1/0bZdB9jZ2mPmrEmYNnU2nJ0r4sCB3ejarRcuX76AZ88eoWLFypg5Yy7DU5ogEGEg7QmdRxHj9vb+UugbngvgCHAEOAKKIiBNEBo2aII3b19h9MgJ2LxlLYwMjREZFcGeTfTiIyYI5uaW6NtnAN69ewNzcwucv3AG9eo2wI0MrWn9+o3ZZkxa66pVqrPn3uxZC9h+4OX1GRER4UyLXKVKNeho6yAxKZFpZENDg2Fraw8bazskp6bA3Mycbbr/nDuVbTjVqtWCo4OjRDMsb7wtW7RBUpLImJ9exqS1szlpEBo2aIwHD91YGyJCNjb2+PzZg32WJgikHaF9QFNDE6/fvIBrpaqgtpevnMcXr8+svp6ePtM46+nr492715Iu5kQQRnw7VqaPfXp9g/UbV+VOEOjXvTMSYWOkCmVlJVSwTsSU7Zo4+zC75WNOGoS2bTswgwxPTw906tgNoWEhuHTpHLswDXTb1t2YNn0Chg4ZiStXL6BZ0xYICAhgBIAmmTbDiIgImBgbM9VLXHwc0wgMHzYa27ZvhoODowxBoH7s+uMQRo0WvQ2LNQi0yf/zz0kMGTKCbcT0hu5aqQru3L2Fxo2aQlNTE/O/n8UIwoqVS3D50m107NScbc5du/bE1q0bs6mliCDs+H0LpkyehStXLqB5i1aoWaMODh/+E0HBgfhx6SqmRVi4cA7+/uscPDw+YsPGNdi8aQdu376Jv/4+iKVLViIhIQEnT/2N6tVqMGJiYWHBtCaz/7cAo8cMgYmJKQYNHI7de3YwTQapls7+cxLmZhbo3bs/vhnQHb+s2QwnJxesWrUMrVu3w81b19GmdTtcuXoJK1esw63b12UIQsWKrmjbpgMjZ1aWNgzT02eOK3pv83ocAY4AR6BQCEgTBNrMvby/ICYmmsns0a0PzrLNOZ0RhOFDR+PV6+egl0ra/N5/eAdzMzM8fOSG5s1aM6JAhV6iPNw/wtW1MpSUVZg2gQjC8xdP2bEy7SkqqqpwdHCCgb4homOi2Ju424O7TDOdmJjItMCRUZGoUa0Wzl88k82Qz8DAkO0huZUmjZvj2fPH0NXVh6WlFXuei0tOBKF9u064eu0Sq1atag2ZY5ZsBIFeGhMSYGlhCR8fL5hbWKJalRoSrQvJcHZyYcff0iUngtCxQ1eEh4dKqlqYW+Gf8yJyJPeIQd7gG1VTxf3X8s+BciII/fsNYpvYrP9Nwfp1W+Dh4Y4lS+fLiKe3emJYNJm0kSspK+H+/XvsTZpU5G/fvWYbZECAP1MZRUdHMTV8m9Yd4OZ2h6mbxDYIzZq2xJ27NyXy7ewcEB0dzYiErY0dbty8xt6av/lmCNLT0nHx0j+MTRKY586fYTYI//57mRELessfPnw0NDW1kZychIMH98gsljZtOsDR0Rl79/7ONu3vvpvB3txJLTVgwBDs3LkNLVq0xsWLZ/Ht8DEICPSDs1MFbN/xK/T0DDB61Hhs2vwLenTvw8ZArNnt/l3GGieMnwLS0fz++xY2FsJ3zuwfcPjIfsaEZ86Yx2wK6tVrgP37dzP7BtJcTJ82h2lH1NU04Ofvg1mzvmfj//TpI65lLL6sc7vwh59gYGCAOXOnFeqG5405AhwBjoCiCGS1Qejdqz98fLzZS9nRYwcUFVNi67m6VmXa71o1RUfiYo+BnAgCHS937tSNaXNpX6FjcHERyoshNyPFkd+Ow123W8wm8MLFs5JrK0wQcpsJ7sVQYtcp7xhHgCPAEShxCHAvhuJ3cxTMiyG/q4kThPwixutzBDgCHIHyiwAnCJwglN/Vz0fOEeAIcAQ4AjkiQLYFdIxc3grZ0omLtra2QtEMhcKI7N3ELp50dKBIoCqyyyCvDp6sSahZ4HI4AhwBjgBHgCNQhhDgBKEMTSYfCkeAI8AR4AhwBIRCgBMEoZDkcjgCHAGOAEeAI1CGEOAEoQxNJh8KR4AjwBHgCHAEhEKgWAgChfYdNGgYiwJFkQQpOAXFIbj/4B4qVnCFsbEx3r57gxs3rrFQwBQFkeIB7Njxa7ZxkudEl849WEQrCrpEASm+fPFUCA8KiLRr93aF6vJKHAGOAEeAI8ARKM8IFBlBoLwIFACDcgqQBSVFA1z64/f4YcEyWFhYYsDAHli/7jfo6xuy+M+UD2HOnCkwMDDClMkzcer039DXNwBFsKIASVevXsDgQSNw5sxxDBw4FAGBASzE8MgR41kyKAq7TASAcj6QpWy7tp1YnGkKVvT38SNo0bw1C4g0dtzQ8jzffOwcAY4AR4AjwBFQCIEiIwhVq9ZguQ6GDuvHQhpTkiTKQrhy1Y8suuLAQb2wdeseplVYv2EVS0B0/PhhFm2QCAKRCUr0NH78FJiammHR4nlYtPAnjJ8wAqNGjsWzZ09w89a/oOs42DsiLR14/uwxhg4dySITTp0yE9euXUaNGrVY2GcKj/y/Wd9zgqDQsuCVOAIcAY4AR6C8I1BkBEEaWNIEkAaBsh9SGTNmEgvz++mTBwuz7OvrDT8/H+z8YyvLbLhh/Vb4+vpg46bV+GnZGpa+ed++P+Ds7IKw8HCWo4HibFMyqDmzFyIkNBgnT/4FSj5BcbYp+RGFQabsEXSU8euW9SyPAyVf4hqE8r7k+fg5AhwBjgBHQBEEioUgKNIRXocjwBHgCHAEOAIcgZKDACcIJWcueE84AhwBjgBHgCNQYhDgBKHETAXvCEeAI8AR4AhwBEoOApwglJy54D3hCHAEOAIcAY5AiUGAE4QSMxW8IxwBjgBHgCPAESg5CBQJQdDS1kJaWlrJGWUp60l6OpCUmMh6ramlBQ0trVxHkJ6WjsSEuFI2yuLprpKSEhLiE9jF1DU0oESuLbxwBEoAAhQfJiU5hfVERUUFqmqqJaBXvAscAUBVVR2xMdFFk81RR1cXqamihc9L/hEgN83oqCjWUEdPH1o6OixqJO1tCYmizU5cyJ0zPjYGaRzvHIEWEwS+LvO/FnmLokOAXqKSEpPYBZRVlEGpeHnhCJQEBGgtRkVGcYJQEiYjax/kEQQ1VTUQQ0hOTpYhB3HRkSzmAy85I8AJAl8dJREBThBK4qzwPhECpYIg9OrZH69ePUdySjK8vD5nmzmK0GhlaQPPzx5yZ7Vdu064du2SzG+kcqZ8DzEx0flaCRUqVGI5H6Q3aLEAJSVl1K5dFybGprh67WK+5MqrLI8gtGrRGmFhoXj5+iVrItIcRCMtNbXQ11u0cDmio6NZYKqcirGRCXr27Id9f/4BPT09REVFZqs6bOhoODk5M7XpytVLQVgbGhojPDyU1a1cuRpiY2Pg7f2l0H3Oj4DyRBD69hkIZ+cK2LZ9E8NaXMzNLBEUHMA+0rzo6uohOjoKNPdUbt26jus3rrJ/U2Az8fyK76HateshLDQUXt6y96G1tS0Lcpbf0rRpS9y9e1Nus2lT5yA2NrrM500pLwSB1giFwX/w0A2XLv0jM+d0tKKiooqkJNGRqmS9mlsiKCgAgwd9C3r2pqSkYOWqpVBWVoG2tg5iYkQa1vbtOuHJ00cwNjaR+3ymPEAJCfH5XZ4YPWoidu+Rn7endav2iE+Ix4sXTxEfXzaPdnMlCBVdq6By1RpsMwz098XTxw/kAkyJk+JiswMklCp304YdcHtwFy9fPoO5uSUSExJQvVpNBAYFIjk5kUVbdHBwYpPk5OiCs+dOonateggLC4Hb/TssTwNtpLRAnj57DEcHRwSHhKCCS0VERUexc7/IiAhoa2vjxctnqFO7HnuokjqfNrGKFV2RmpqGCxfPsNwOlOehc6duCAkJBi16esC6e3yAnq4+dHR0UK1aDUEeavIIQu1adREQ4MdyULAxxcYIdowzbepsqKqowfOzOxISEnHr9n9o2LAp4uJi4eJckd28hJ+zkwt8fL0ZTsEhQQy/oMBAaOvo4MGDe0hMTMCqlRtZyGwzM0uGZe9e/bH/4G7o6+kjJTUV5mYWiI2NxY2b19C6VTsEBvoz2UVZyhNB+PvYORw5sh9m5hb499/LMDY2hZqaGkZ8OwYHD+3Du/dvUK9uAzg6OOPX39YxotCta288f/EElhZWbH4pxPnnzx7Q0dUDEcO9+35H+/ZdYGFuAW9vL4SGhsDc3II9rMeP+w6/rPsZujp6uHX7Oho3agZNLU1oaGiwHCxeXz7DzMwCKirK0NDQwsVLZ9lUT5wwjf0eGBiAd+9ew9bOHm/evGKJ3AYNHI5FS+bC0cEJd3IgEUW5XopLdnkhCJUqVkbnzt1hZ+vAiKuTswtbR3XrNICXlyd7iaDnib2dA8uj8/bta3w3aTqmTh+P5OQkrFv7G/7cvws21nZIT09D1SrVcfXfyzAyNEKliq745/xpWFlZs5fJRg2bgfYlIgxEcimXz5mzx9GmdQf22cbGDrFxsQgM8Gc5fmiP09LSEq3dxs1Zf2jN1qhRmx3n0kvf06eP0LhxM7ZnGBkaw8W5Ak6d+RspKcnw8/MtruVSrNfJkSBoaWnDzt4RH96/YR3q2LUnoiMjce/OjWwdLGqC0KxpS0wYPw1r1//MHmRmpuYsZPLde7ewf/8ujBs7GZeunIO9vSP69RmIAwf3YOyY7xAaGowJk0YwgtCsaQvExcfj6NH9mDL5f/j+h1nsATl0yAjQm/+Jk8fw4MFdTJo0Hct++oE9OH9Y8CN7WJFFm62NLUaPHYLvJs7A1u0b0aZ1e7Rr1xm6Orpsw3705CGuX7+K+vUawsjIhJGJwhZ5BEEsk8iB0McKPy9fx25OCnlNb59nz57Eg0duaNK4GWgO4uLiGOa02c+dNw3NmrXCoEHDkZqSgsNH96NZ01aYO28qu9mIINBNNX3mBCxdvBLJKSkIDPRDjRp1cOjwXgwZ9C27aU+c/AutW7XF23evsWnzL4WFLNf25YUgkGbA1NQc48dNhr+/Hw4d3oe1a7YgMCiAbf5PnjzAy1cv0LFDZ3h+9sTBQ3skBIGMN++53WbGxTTn/fsNZgTw9JnjEoJA9xJpkDp17Mbe4kxMTBnZvnzlPFq1aofxE4ajaZOWaN6sFSpXroox44bgh++XwcWlIvbs3cHu14GDe0JDXYNpo/r2GYD1G1ejV49+WL5iIfr2HsiINj2oqe2woaOw/8DuIl0bX1N4eSIIkyZOx/sPb9mGOnjQMCxbvgiLfliOH39aAC1NLZZIr06d+uzfEyZ9izWrNrNnCBUiCEQ4582fiQ3rfmO5duhz3Tr12Vv88ZPHJASB1l+TJs2hraXNDLxPnDjK6u/Yvg/BQYGIiIgAGdF7+3jhwIE9WLp4BdNQLF+xBLNmzMPhI3/i4SM3FpafXjbpRbNXz364e/cWZs/+Af/8c5Kp3y9fuQArKxs8e/boay6hIrt2jgRh5txF2P7rOhnVSa++A3H6xNFiJwi0kdBDj9RLlI8hNSUZunr6iIyMYA9AG2tb9juxThrQh4/v4OJSCSnJSXD3+MgmkGSkpaWyNvRW6+7+ni0mWkBEAOhtKCoqgrFOOq4gY6G01DT4B/ixzZIMAynvQ/16jdjfPr2+wYNH95galnJSk8qV2tJmOWLEOGz+dW2hJy0ngiDksYJ0J4lVszf8lBQkJSchIMCfPdQbNmiCR4/ckJaejtCQYJiZE37vYGFhBQN9A5aSm/BTV9dg5ILYfgWXSox5GxoYITwiDLVq1MH7j2/pTARh4WEs8VZyUjJ7U61SuSpj5Yqm6y4osOWFIBA+lPSM3swjwsOY14aRoQkiI8PZA5U0N4R/aFgIexu7c/cGIwH0HRUiFx4eH2BpYQ1dXV12b4WEhsDf35e9kdG9RPcdEQO6f2iDI+1RQkICyEbm3fvXrA79R/cHrVd6U9PU1Iaevh7iYmPh5f2Fab6mTJ7FMqwuWTofYeGhTAsXGOQPBwdnpKelsXGQBiQoOLCg017i25UXgkBk0tjIGKTuj4iMYOsrOjqC5cyhYmBoxJ6f9PxIRzrevXuDKlWq4/37t+wtnTS5MTExbA3GxsSgUqXK+Oj+nrWll5Lg4ED2DCKNZdb1R9pe0lJaW9lCQ1ODHX/SM560ylpaOtDU0EBiYiIjDKSNoGcUHW1M+W4WW6tv3r7Cly+f4OJcCckpIoPSpKQk9jyLT0hgL4llseRIEPoMGIob1y4hLDSEjZs2vx69v/kqBKEkAU8ag9S0NNjY2MLd/UO2rjVo0BgPH7oJ0mV5BEHoYwVFOtqoYVPcf3BXkaoluk55IggleiKkOkdvbaRp2Ltvp9wuN2nSAvfu3SotwylQP8sLQSgQOF+5UYP6jZiG+cHDe3J70rFDF6ZFKKslR4JA55V9Bw7D+dPH2dj7D/oWly+eha8cw7KiPmIoq+DnNa6sBEFTWxtx0VHs/I2X/CPACUL+MeMtih4BThCKHmN+hYIhkKuRoqmZObR1dJnk6KhINGrSAhfPncp2JU4QCgZ+Xq2kCYK2nh6QlsaOSXgpGAKcIBQMN96qaBHgBKFo8eXSC45AqXBzLPjwSndLaYJAGh0VVZXSPaCv3HtOEL7yBPDLy0WAEwS+MEoqApwglNSZAZjxjjiSIicIhZ8oThAKjyGXIDwCnCAIjymXKAwCnCAIg2ORSOEEQVhYOUEQFk8uTRgEOEEQBkcuRXgEOEEQHlPBJHKCIBiUTBAnCMLiyaUJgwAnCMLgyKUIjwAnCMJjKphEThAEg5ITBGGh5NIERIATBAHB5KIERYATBEHhFFYYJwjC4sk1CMLiyaUJgwAnCMLgyKUIjwAnCMJjKphEThAEg5JrEISFkksTEAFOEAQEk4sSFIEcCQIFSaJQxBQ+9eC+nfhu2hwWynjNz4uzdYDHQRB0TiTCOEEQFleuQSg4nurKgL1WEgs5bqqRjloGqdj9RQt2PSyQFJuGyE9xSEtKQ3JMKhIjMlORF/yK5aclJwjlZ65L20hzJAg/rlyPJd/PQv2GTfDq5TPY2NqDAifdv5s97CknCEUz7ZwgCIsrJwj5x1NZCVhZNQAWGqkwVE9hAtLTiCYAI5/aoOqyyiwXh3KG6NSkdKTGp+Hj3wGIdC+bKXDzj2LuLThBEBpRLk8oBHIkCPMWLcer509hYmqGY4f3oe83Q6GlrY1d2zdzDYJQ6OchhxMEYYHmBCF/eI53DEdXyyiWjCyN6Q4ohQ77yMqYJ7aostRVSqgS5T1jhf7GBSTB598whLyMzt+Fy1ltThDK2YSXouHmSBAcnVwkw/D64gl7Byf2+bOnBycIxTTBnCAICzQnCIrhaVhJB1BKxwbdjzBQS0F6uhKjBmJiQFLo3+Oe2KLyEmmCICIGIoKgBMYplJTgey0UvjfDkZrIc4jImwFOEBRbl7xW8SOQyxHDBqxZvgi16zbA40ducKngChNTU9z87yonCMU0T5wgCAs0Jwh542nd0hiOXUxZimbri58xONFdojUQEwTx3/FPbOG6SEQQGC9QEv1C5CArUUiKTMXjVZ/y7kA5rMEJQjmc9FIy5BwJwvI1m/HowV2YmVlg/97fMWDwCGhqaeH33zaUGIJAD6KePfvB1sYu4yEletOhQvm///r7EMtVL2SxtLRC86atZERGx8bg0qV/hLwMk1WUBEFPzwBGRkbw8vpc4H5XrVIdbdp0yNb+0yd3XLh4tsByaV6HDBkJQwNDGRmhoSE4euwA27wKUjhByB01u3YmsGtvwvCl/2J8EtH80ku0MYuUOlqge4xKOiY+sUWlHypJhDJSIGIKUFJKlxAFsTYhPQV4scULcYGJBZm+MtuGE4QyO7WlfmCl0s3R2NgEDeo1xpQps/KcgH1/7sTde7fh5+eTZ11FKqxcsRHVq9WQqRocHITRYwcr0jxfdYQmCK6uVaGvp4/Fi35m/fhx2QI8enw/X32iyvXqNsTUKf+DiYlprm3Xrl+Bly+fISwsVKFr0EbStElLzJ+X3VNGWsCevb/j1u3/QLjnp3CCkDNa5vX1UaGfJdKIfDGCwP5A6UUYJn1+BvJikD5mSFcCJj+2RcUFFaUIguh8gcgBlJQzSQJ9pyzSKiTHpuHpWk+kJAhL3POzDkpaXU4QStqM8P6IESh1BMHM1Bw7tu9jb9eKlpSUFHwzsBvob2HKpAnT0LVrr2wiSjpBcHauiNUrN0BdXQPkcSIuBSEI/fsNwohvxykMY3JyEvr275JnferX0cNnoKmplWddqpCcnIy+/TsrVFdciRME+XBZNDCAcz8LIE1MDEQaBCIIpIAzPeyO4UZe2Y4a5j61hfXcCiJSIGIGYgWCjPZAKWPJKZNLhBIQ/CQK7n8F5mvuynJlThDK8uyW7rGVKoKgoqKCPbuPwsjQKN+ox8fHY/LUMQgOLviDae/uo3LfmksiQejYoSuqV6+F1q3aiQzG5JT8EoShQ0Zi0MDh+cbex8cLU6ePR0pKzv7xa1ZvRpXK1fIlOz4hHlOmjkFQkGJzygmCfHjrznaChokq0mUIArkzkhYhHfGBSeh8/QlqGsbLHDV8/8wGVv/LMGbOIAeiYwaRtkBsi8D+KosMGEXfKeHdPj+EvYvJ13yX1cqcIJTVmS394yo1BIE0Bif+vpANcdIKPHp0Hz6+3njx4inq1q0PSwsrNGrULNvGWNCNXFlZBYcOnICOjq7cGS+o3LyWT36PGIyMjNGieWuMGT1JRlOQ03XyQxD09PSx9bfRfp2OAAAgAElEQVQ92ewCwiPC8OrVC7i7f4C9nSN0dHTQuHGzbJdcv2El/rue3cCVKi74/kc0adxcpg1tTM+eP0FQUAAiIyNgZ+uAhg2bgEiidDlx8hj27N2RF5Tsd04QssPk0NkM1q0MmbaANAhpGUcL7KiBfRCRBL0HQRgR+QbpyLTzWfjMFhazRAQhq1GiDDkQEwMpkoA04OHPn5ASn6rQ3JXlSpwglOXZLd1jKzUEoXmzVpg3N/vZ9P/mTMaHD++yzULnTt0x+buZ2b5fuHgOnj9/kq9Zq1mzDn7+aW2ObUoKQWjUsCkW/vCTwmPLD0GoVNEV69ZulZF96/YN/LJ2OdLpVVOqjB41AX16D8jWjx692snt25lTV7ORuaHD+yEqKkKmftMmLfD9/KXZZEyYNEIhGxNOEGShU9FURt1ZjlDVVxWRgwxCwP4wbULGkUOGZkFv51uMcA6SuDuufmMD7cnOLEwSszuQ8mAQGybSsYI8TQKUlfBujy/C38cqvF7LakVOEMrqzJb+cZUagtC370CMGjFeBnEyVjtx8miOszBl8ix06thN5vfDR/bj0OG9Cs+cqqoajh05CzU1tVJNEO7cuYlmzVrKjCE/BEHeJv7dlFHw9vaSi8uSxStRv15Dmd9W//ITbt++LvOdvDmiOlRXXmnXthNmTJ8r89OZsyew84/f8pxTThBkIdKx1kCtaQ6iQEji44UMYkC2B2JvBvFRQ7JXPEa/ewpdio0AYP0ba2hMdCGfBebimO1YQXzUICYJyiBekGGwqISkiBQ8Ws1dHzlByPPW5RW+EgKlhiDs2LYP1ta2Epjo4fXDwv/h5avnOUJHLpq7/zgk8zu5yR04uEdhuOfPW4JmTTM31tTU1Gxq7pKoQSDPgVevnuPKtUt49uwR5GlgFCUINja22L51nwxmvn4+mDhpRI44Vq1aA6tXbpT5feu2jdncH0+fvJLtOGTw0D6IiYmSK5uMGLdv3StjC5KUlIR+3+RtCMkJgiyk9eY4Q8NYVUIE0tKURP+WIgl09iAmD/Tv6LNBmKMv0thtemMDtQniIwZRpEWRrYGU1kBKg8C0CRm/iw0WH634hKSowhkPK3wzl9CKnCCU0Inh3UKeBIFu9rYdu+FaLn7+JTUXg6mpGfbsOlJggiDP7mHHzi0YP3ayjEq8pBCEBvWbYNLEqSCVO1n5S5fCEIS+fQZg1MgJMvKmz5wAineQU3F2roD1a7fKkKn3799i9twpkia0tk6duJyNIOR0FCFuuGrlRlSrKutqmlcbassJguxsNVvtKkUGiBiIXBvpuCFVQhQyP4MiKqano9Jfz9HWMgoH3K0QNSKTICgpk4WCMtjfDJIgIgWZRouiIwciEkqgf/vdjoDnP/lzVy1rz21OEPI3o0oqSui+qiX0rHRkGv676gECXoXkLkwJGLSnM5RVRa41h4adz9/Fy1ntPAnCt6Mn4s3rl7C1s8epvw/LhaekEgRzcwvs2lkwDQK9qe7ZdRi6unqSMZMq+969W1jx8/oSSRByW7uFIQj9+g7EyCzHO99NGQ1v7y85XpLWxJ97/4aBgYFMHemN3NW1Cn5Z/asMlh6f3DFjpiwZyXqRObMXomWLNjJfj5swHAEBfrnevpwgZMJjWEEH1cbaSNkdkKZAFEOZaQwybBJYUKo04gxit8d0JL2JxtTw5zjqYYXwYc4iA0UprQF50opIgYgYiLQFIkIg+j5d9J2yEoIfRcL9b8W8UMrqs5kThPzNbM8NraFrpi230csTH0H/5VTqDKqMKt3JbkZUOEHIHftcCULHLj3x9PF9BAcFYsyEqdi149dSRRDmz12S7dx93fqVuH5DvjW99OBGfDsW/fvJBj+iTdFA34ATBAB5EQTC8sCfx2GQJRqiNEGoVbMulv/0i8yacnO7g59X5h4oaeCA4Rg2dKRMu2v/XsbGTas5QVDwWWvd3AhO3c2kbA/EdggZ5IBpEER2CCLCINIuiI8glK74wTAoDmFDKkgIAu35tOkrS7k1ZpICIggizQERB7HxYujLaLw/5K9gr8tmNU4QFJ/XHmtbQc9SB4nRSXiw6yW8HwVCy0gTHRY2hq6FNpJik3FyyjWkJmcPxKWiroJvfu8g0R5wgpA37rkShJFjv8ORjPP64aMmYO/O37KprukSJVGD8E3/wfh2+FgZBCgWwoBB3fNExczMHLv/kNWWDBrSC7GxMaherSYnCAIRhEqVqmDtGlkNQlx8HAYO6pHrHDVo0BiLF4qiQYqLt48Xvps8ihOEPFe3qEKeBCFDg0DOCXTcINIuiP6SdiEhOAmO173h19+ZpXoWawREMQ8yyIDk31mPGES2CNQm1jcRz7fkrIlScDiluhonCIpPX7dVLaFlrIGQjxG4/stDmYZDDnRln4+NvoSUJFn3WTqWGLxPZKeUmpQKIgucIOSNe44EQVVNDQ0aNkVQYCa7r16zDk6fyO41UJIIQr9+g1G3dj2Qa6J0SUpKxNRp4+Dn75snKjt37IelpbWk3kf395g9ZyrS0lI5QchARQgNgqqqKo7/dSHfNgjyCAIdL9AxQ26FHzFkopMvgpBxxCA2WBS7Q4Y/jYFhbV3mmcA0B2Jbg4zNP5MskGWCdJ1MgkBE48n6gucDyfNmLgUVOEEQZpJyIwh29S3QYkY9pCan4uGe12g8viYnCArAniNBoIA0nbv1hqNzBVhaWePDu9d4/vQRXjzLHkPgaxKEs6ev5TlMirR3+MifuHrtYp51u3bphUkTp0nq0c1L2oP4+Dj2HdcgiKARgiCQnFMnL0NFWTb4EcVWuHnrvxznatHC5WjYoInM7/7+fhg/kROEPBd4RgUiCI7dzWQ8FsSRFKVtEBgpyAi5LAmkJImRQDkXRJs/OzqQuDPSMUPGcQI7csi0ScgkEUQogGivRLzcJt9VVtGxlPZ6nCAUbgbVddXQfkEjGNrrIzY0Hmf/dwNpKZlHDAY2uui2uiWzr7m89C4zbmwysRYnCArAnqeRIsmgN73c8hiUZIIgysPQPdcwv2KcrK1ssHnTTmhoaEig2/Lbely6fE7ymRMEYQnCvHlL0FzKjZSkU1TMadPHyT3OcnBwwpbNf2Rb2l++fMKUabnniOAahEzYrJoawrGneUb+BbGdARkiKmUxUlSSCpokHUxJFGWRisgGUWR0yGIhSGsQJPYGIpLAUoFkGC4SWQh5FYsPB3M3LlXgOVaqq3CCkP/p0zHVQtdVLaCmqSppnByXwshBQrRsttBWs+rBpq4F4sIScGrav3BqbsMJgoKQK0QQ8pJVkgkC9f3LF09MmSZrjyBvTL9u/gOODk6Sn8gga+DgnhLtAf3ACYKwBIGknTx+iZFQ6UIeEhs3r5GJkvnj0lWoW6eB3OXIvEtWZY+yKF2ZE4RMNHRtNVFjir2EIIi8FjLjIDCvhYzgSRIjRTJDyIjFzAwWM8SJAySxjT9L3gVpN0ciECpSwZPotyDyYjjOvRiSEpNEZEtFmfme85I7AkQQSCugqpGpfYwOjMPZ2TcyfHVF7a1qmKLNvIaICY7DmZmiIG2cICi+uko9QaCYBOKipq6BVi3bQksre0ZAMlAkH3wvL/nnna1atcPsWQskskjzMHLUAERGRcqgyQmC8ARh4IBhGDZUvoGhOJqfdBZKect7ztxpePf+da4rnxOETHiUVZXQZHlFmQiKor0/gxiIXRtlQi5LeTKwgAmiQqSAPjENAXN5FBkgSiIrSjwXMr0YxMcRvv+FwetyHr7rij/PSmVNrkHI/7QRkTJ20IOathosapjCtb0DVDRUEOUfi/PzbyItNZ25QvZY34ppt+7vfAmPG96cIOQT6lJPEOSNlxbEdoq8aGWT7edBQ3oiNlY2/juFU6ZEUNJZD2/fuYHVa5Zla88JgvAEgSRmjZSZ2zom8pZV40Canri43OP6c4Igi2qdWY7QMFOjKMlSroyiuAcsUJKUFiEzL4NIBouPIFVEMQ9EAZLEBIHZJ0jZH4gIhCgss9jr4d78D/l8ZJW96pwgCDOnYiPFE1OuISEiEVW7uaD2YFcmPCpAZENGRU1LBVoGomNk+j45PgWXFt0WphNlTEqZJAg0R7SBzJq5AC2at5KZskNH/sThw7Jhg5cv+wW1atWV1EtMTGTukHTjZi2cIBQNQdDW1kG7th0xflxmpEV59xodI/To3gc1qouMjMSFR1LM/5NJ21IDtac7SIVaFidnktIkiLUKUn/JcFGaHrBk4hnpHEU2CLIJmsRhlaWPH4g5xPkm4UU5d3Ek6DhBUGztkmuisZMBI6GxwXHMIFG6DNzdibkv3tr0BN4PAzBwTyeoqMkaQMu7UlJcMv4ef0WxTpSzWmWWINA8mphQqOVDUCKrqYzi5f0Fk6eMlnyuWqUGVq3cIKM9oHwL9J+8Qg870jhIF3qbkg5tTBEX9/25s9BLKb/pnnO7YHFHUqS+5BUoSV5/69VtiCpVqsHZuSLq1W3AXCDfvX/DMnA+ffoIr9+8RNZQy2SvQF4VeRWuQZBFSFlNCbVnOELTWDXzqCEjQBIdN5DXgkRzIM7syJiBiEiIi4ggiHMwiL7NShIyczCIoy4Cb3f5IsI9880ur/krq79zgqDYzGrqa6D7Ly2hrqOG4HdhuLLcTaahWINwasZ/iAuJR7WeLnIJgqG9HmzrWbC2r066M9fH12c8FOtEOatVpgkCbeSbNu6AvZ2DzLRKv20u/GE5GjWUdZkr7Bo4dfov7Nq9vbBiUJoJgrxQy7TZ9OzdvlC46OjoYOeOg9DTywyBffLUMezesyNPuZwgZIfIuZc5LJsYigwS6T9miCgKrUwfJGmfRXGS2P9lOV3IJAqSkMuZZEEUCyH757SEdNz/MedcHnlOZhmqwAmC4pPZaVlTmDgbsgbXVtxHQlQSlFWU0GFRY6hqqiIlIQXHJ12VG0lRfBVupKg43qWGIFBchqwlp7d8cT1lZRVsXL8NTk6ihDLiIk0QunXthYkTMuMeKA5dzjXLGkHo03sARo+SzY8wc9ZEuHvkHPPc0dEZG9Ztk7EVePbsMRYtkU3VnF+8nZ1csGnj7zLNVqxcgntueZ8hcoIgH+2aUxyga6MuipKYQQyYwSJTI4jTPovyNIhtD2QtEJgCQaRFoP9lJQosiZM0UVDC4zWeSAyXTSiW37VQVupzgqD4TBIJ6PpzcxZWWV65uPAOwj7LGpZnrccJguJ4lxqCkDUgEtkJ9B8gCq2ZU9HW0sZvW3aDsjqKC92Mvfp0kHxu06YDZs2YrzhiCtQsawTBwd4RW37dJTPyyMgIDPu2X45oyE33vH0jLlw4qwCC8qtUrOjKMkRKl4SEBHwzsJtCMjlBkA+Tnr0makyyp4MDiWuj6GhBiakT6K+YOEiIQcZRQwYrkAiWuDxmmCUw7YHUkQN9CH0egw9Hynf+BemZ4ARBods3c40pK6Fqd2eoaKhC11QT8eGJIDsC36dBiPCOzlOYga0ebOuas3r8aCF3uEoNQTh98opMSF56YM3/fgbevH2V4whtrG2ZN4N08fT0wLQZ4/NcRDlVKI9GioTFmVNXZew06LtRYwYhJCRYLlSU8TKrIeGqNctw586NAmFvY2OHXzf9zo5dpMnejFkTQXOqSOEEIWeUTKrrodIgS1BYRLHdgeg4ISM2AjWV0iAwSZJACCK5Yi8g8maQZHdkmgP6LGIMSaEpeLLWU5HpKjd1OEEoN1Nd6gZaaggCJV6iBEzSJbe3WHpYkZGcvr5suuGjxw7gQEYCqoLMVnklCNWqkjHnRhnIPn1yx3Q5qZkHDBiK4UOzGw2S5kaeZ0hu88BcVrfug5mZmQw5oDahoSEYPXawwjI5QcgFaSXAuacFLBrri/Z98XGD2KWRiAIjBWmgAwMZNwa297NICCJiIP6cERRJ7O5IbdyWuCMtOesBRUHuxLLThhOEsjOXZW0kpYYgVKzgivXrZNXLNBlfvD7jyZOHOHP2OHubpfTC/foORO3a9eHkmJn3Wzxxk6eOyTFYkiKTW14Jgo6OLrZu2Q1jYxMZmCjPxc1b/+KL1xdYWlpBV0cXPXv0zaZt+H3nFpz952SuEBMZGDVyAlRUlKGiooq2bTpAS0v+WePr1y8wf8FMRaZMUocThLzhMq1FmgQr0XFDhlEi0xyIjRTZB6IAWRwdGUGQ1iKIzxhEyoNY70S82Fq+cy7khD4nCHmvS17j6yBQaggCwbPy5/WonsX/XVHY6CZcvGQenr/InmxKURlUr7wSBBr7hPFT0b1b7/zAxepSNsw5c6fm6DoqFkieD8f/Op/NjTTrBelIgTQXWYP15NUxThDyQkj0u6aJGlyHW0PbQl3WMFGaE8i4MoiCI4kIgviv6Dv66HsjAl8uyj+KUqxHZbsWJwhle35L8+hKFUEgoJcsXon69RrmG/M/9+/C8RNHFFZH53SB8kwQCJNvh4/BN/2HKIw/PfwGD+2dZ5RDEqgIQZj//UwWFyE1NUXhPogrcoKgOGRKKkqwamwIhx5mUMri2ijiBrLHBOkZWR3FJIE+x3on4O1eXyTHyo8ponhvynZNThDK9vyW5tGVOoJAYDdq2BTfz18Kea6PWSfjydOHOHJkP96+yz1Ov6KTWN4JAuHUvn0XfDtsNIyMjHOFbc/e3/Hvf5cRERGuELw5EYTPnz/h3PnTuHX7OmJjYxSSJa8SJwj5h05VSwUm1XRhVkcf+i5aopwLcgIhMLsEJSAtLhVfroQixjsBMT4J+b9gOWzBCUI5nPRSMuRSSRDE2JKvPZ1ZkxpTTU0NFPcgNS2VRTVMSU7Gr1vWISJSsc1J0fmyt3fE6FETZc7YIyPDsX7DKkVFKFxPyEBJmppaMDQ0krl2eHgYEhML/hAnzwKWLEusV86Qfv/+XZy/cFrhcYorkg3CvDmLEBYeikePH+LNmxcgN0ahCicIhURSCVDXV4NdW2NoGmVm36TASqGvYhD0LArpKdwAMb8oc4KQX8R4/eJCoFQTBGmQpBMt5fdsurjAzu91hCQI+b12WazPCUJZnNXSPyZOEEr/HJbVEZQZglAWJ4gTBGFnlRMEYfHk0oRBgBMEYXDkUoRHgBME4TEVTCInCIJByQRxgiAsnlyaMAhwgiAMjlyK8AhwgiA8poJJ5ARBMCg5QRAWSi5NQAQ4QRAQTC5KUAQ4QRAUTmGFcYIgLJ5cgyAsnlyaMAhwgiAMjlyK8AhwgiA8poJJ5ARBMCi5BkFYKLk0ARHgBEFAMLkoQRHgBEFQOIUVxgmCsHgKoUEgd1pKM55TTgk1VTUkpxQsjTHJTk6mAFCKuQpS3Iis/ZD3nTwUKYaIspKypK+qqjSuFJnolOQZpIhHENVTVVVFSopse/F1qU9UJ6/07PL6KR6Pon0RdsUUjzROEIoHZ36V/CPACUL+MSu2FpwgCAt1YQkCbVb9+w1CTEwsXrx4irj4OPTs0QeXLp8HZQ5VVVNF9669cePWfwgNCYaZmTni4+NZroq8SpPGzVm0yeiYGKgoK7O2FHPj0qVzaN++MyiFeI/ufXHm7AkMHzYae/buwNw5i7B23c/o328wLl76B/37DsKLV8/w6NH9vC6Hhg2bIiYmGlZW1ogID0eXzj1w8vRfoAfC69cv0b17b3h+8sDTZ4/ylEWJvLR1dEBxNWrWqIMzZ45j4MBhOHT4T4weNQFPnz5CtWo1kJqWhitXLqBlizZ48fIpPn58n6dsCop2/8FduLpWpTSTCAoOZMGyVFVUYWxsCl8/b7i4VER4eDhiY6MZSSHc0tPS8PmLp0IEJ89OFHEFThCKGGAuvsAIcIJQYOiKviEnCMJirChBGLC7E1TVVSQXv772IfyeBbNQ0NOnzWVv7ffcbiMsLARdu/REi+atMfN/k2FpackCPc2a/R0qVqgMTU1NaGtr4+/jRySyfIcHSuJKpaUrwXa/KC+9o4MzunTpgXPnTqFq1Ros58X3P8xCr579WSIy2hQrVKiE6tVq4crVC1i9ciN+/+M3vH37GhSwyrVSZUYS6tZtICEIa2YkoXfrOMm1D13QwNIdWuxz717fQF9PH3fu3WKb6IL5S7Bh0xoWxtzS0hq792yHqYmZJAKpmX01DF96TiIrMtgb+xZ1REpSPEvr7Vq5Kvx8fRCfkICAAD84ODhi6OCRLGdG7Vr1WAK1RUvmokP7rnj/4Q2qVK6OCxfPMHn6Kqp4VLWJRHZUagrqv7nHPjdu1IwRBMLEy+sznJxckJAQDx8fH2hoaCA5OYlpPhzsnRATG4O01FSYmJjCx8cbsXExSEpKEnYRFYE0ThCKAFQuUhAEOEEQBMaiEcIJgrC4KkoQcroqEQTagHV19DF69HgcPXaQaQ6aNGmO+fNnwNTMDLNn/YAFC/8HJydnDB08Cp883bFu/Yo8B0LHC3t2H8W06eOwYvl6llSsdq26WLt+BQsrPnnKaKxbuxWLF89lWU1nz52GNas3YvSYwfh9x378vGIxfv5pLX5Z+7NCb/3OzhXx6dNH/LRsDd6/f4cGDRph27ZNaNigCby8vzANAmkrbt7MW/tRuXI1eHl5Ii4ujqXmnjZjPGrUqAX6vmvnnli9Zhl69OiLlauWoGbNOpjzvx+wZ+9OXL12IU9cCPNWrdrBze0OVFVU4ODgxJJ/qatrsAiqpMVp3Lg53Nxuo07t+kwDEhwcCMoySr9xgpAnxLwCRyBHBDhBKMGLgxMEYSensAQhv72hzKOUebIw+SPye83SUJ/ymbx6/aI0dLVY+sg1CMUCM79IARDgBKEAoBVXE04QhEW6uAmCsL3n0soqApwglNWZLf3j4gShBM8hJwjCTg4nCMLiyaUJgwAnCMLgyKUIj0CREgRtXV1oqGsI3+tyIjEhPh7x8SIjM3UNdejo6JWTkQs/zKSkRMTGiFJFU9ZPfUN9KEFZ+AtxiRyBfCJA3iuJGVlLyebCwNCQkmrnUwqvzhEQGoF0xERHs+zISlY2Doo5X8vpAy3quNhMa2mhu8nlcQQ4AhwBjgBHgCPwdRDgBOHr4M6vyhHgCHAEOAIcgRKNQJEQBB0dHRa4hBeOAEfg6yFAUQ5jY2NZByguQ0EiGn693vMrcwQ4Al8LAU1NLURGRhTNEYOOri4LYsILR4Aj8PUQoEBIiQmJrAMmpmYs4iAvHAGOAEcgLwSK1EiRE4S84Oe/cwSERYAYv5aWNuLjY2FoaMyiGnKCICzGXBpHoCwioKOjCyUlyu+SynKnUPwWThBK4UxTbP66dRrg1y3rJF4OigyDJv/7+UtY1RUrRX+zllUrN2L+9zPQoEFjPHzopohYhepsWLcNM/83SW7dYUNHQUNDE7t2b1NIFq+UMwI1a9SGu8cH2Ng4oEP7Tti6bSMnCKV8wVCY6oSEBJw7fzrPkWhr62DG9DnMC2LjxtUsmmTWsmTxSvy47Hu0bNlWoUiZeV40o8LWLbvx3ZTRcquPHzeFqaqPHjugqDher5gRoJwmPj5e6N69D6Iio3Dl6nlOEIp5DgS53Lix32H/gT3YtfMg2wCI5dnZObAbMCQ0hCXNMTezYLkDXF2r4MFDN3Tp1B3LVyxi1581cz5CgoMRGxeLqKhIFlrX1sYOqWmpGPntOIwcPRA9e/TDv/9dQpPGLREVFYEqVWogKMgfTk4VcOnyP4yg0JspJfx5/eYlqlSuBspkqKmlxeLjP3n6iNV59uwxdHV14e3jhc6duoOyCAYE+MPExIzJNTO3YLH8z549gTt3bwqCT3kWQljHZLhzVqzgysIScw1C6V4RlJTrxs1/YWxkAh+fL6hQwRVampqgSJ30HPjk+RG1atZD8+atsH7DSjbYsWO+Y6Gv6Yg3JSUZb9+9gaW5JcuVMXzYKLaREzGn/B10b0dHR7KcGYGBonvz6dOHqF69NnubVFFWwYeP72BsbAIlKMHcwoIlIXv85AHs7Rzx5YsnLCws8fTZY/Tp9Q3SldLx5bMnrK1tWd4SfQMD1KvTAFevXcT5C6L8G7yUPATMzS1YiHIqlPvkzZuXnCCUvGnKu0dEENTUNHD79n+Y/b8fEBEZwR4g7dp2xO7d2/Hy1TP8uHQ1oqOjWGz9Xn06YN7cxSwmvpggNG3SEhs3rUGH9p3x088LMX/eUujq6LBEPWKCcPfeTRgZGaN9u85o1rQltm3fBAdHZ7x/9xqzZi5gi+e7KaPQvl0X9hCiePjLflzD1FO/bd2A4cPHYMnSebC3c4C7x0d07NgVYaGhmDhxGqbPGI/tW/di6rRxGDx4BGt7+86NvAfPa+SKQNeuPdlDnLAkbcKt29c5QSjla8bU1Azfz1uKXbu3s/AIi35YDmUVZTx//gQPH92Hm9stODtVQNOMe1RMEOie3X9gNzq074Jly3/Agvk/sg2fMoWKCcLduzcRFx/PngNUb8PG1bC2tmOEYdLEaUzlPG7CMMyfu5itJcrCuXnjTqZ+/n3nFvTtMxA//rSArTUi+IMGfIvwiFAM+GYI5s6bjp2/72fXGj92Ch48vIcLF8+W8tkou93v13cQoqKj8Pjxfejp6uOLlycnCKVxuumNm2LZd+rYDb6+3tDR1YO7+3uWwtft3m00adICyUmJCI8Ih5WVDcsGSHUvXRZl46OEQ6RKqle3Ee7cuYH2HbogMTGBZcuzsrLF5cv/wMW5Ivz8KWOeJsuUR8Th7duX7K2AtAG2NvYgxklvBaS90NbSBp1/e352R7VqtfD69Qs0qN+YJeSh9LsREeGMaAQHB+Pho3to1qwV7t29hXbtOiEgMAApyUksQyIvhUOAom+qqamyN7fk5BT2Bsk1CIXD9Gu3piRUaurq7K2e3tgrV6nGwiilpafj1avncHJ0YW97dF+L73F6RoSGhbL027fv/IeOHbshPS0dnp89mCbi3/8uM62fn78vI/d0j9N9+vzFU6Z1pGcB2bDQ84OeBw3qNwEFG6O1RBqD2rXrMc1hg/qN2DVdXCrB398P3br0gj9nnxQAACAASURBVH+ADx4/eYiWzdvg9t0baNO6A0JDQ5gHDdcgfO3VlPP1KTuqiooqgHQkJiYybydug1By56tM9axz5+54/folvL2/yB1XvXoN8fjxgzI15pIyGE4QSspMlO1+9OjeB69evWAkRF6pUb02027yUnoQ4ASh9MwV7ylHoEAIcIJQINh4I45AuUeAE4RyvwQ4AGUdAU4QyvoM8/FxBIoGAU4QigZXLpUjUGIQ4AShxEwF7whHoFQhwAlCqZou3lmOQP4R4AQh/5jxFhwBjgC4kSJfBByBso4AJwhlfYb5+DgCRYNAsWkQKEgOBeZxdnJhrjQUQIcXjgBHoOgRyIsgkHsqRes7eGgv60yTxs3Z/Tl48LfYvWdH0XeQX4EjwBEokQgUG0Egv9wuXXri6NEDgJISvnz5VCIB4Z3iCJQ1BPIiCBTr4tdNv2P8xG9ZRM2mzVqhgktFuLndYf7yvHAEOALlE4FiIwjdu/VmscQpWhcF+fHz82GIa2pqsjjjQhQjQ0OER0QUWhSFAxYiJS5FFKSHc2GLg70dvnh5F1YMKlWsgA8f3QstRygB0mGBhZJZHuWoaOlDRd8USYHySXdeBIEw+337n4wgUHjsNm06sDTtFNb3+ImjRQqpmakpgkNCBLuGtbUV/Pz8BZNHgoRepzo62oiNzZ4joTCdNjY2QlhYeGFEyLSloDm0BoR4DooFC/U8FGyQXFCeCBQbQbCyskZycjJLIkKZ5sT56TlByHOOIBRBcK1UEe8/fMz7gsVUQ+gHbzF1u9guYzJiHeIenYV2k75Qs6mM2Ku7kBLmh9ToUOh3nYyUMH8kvLsNTee6SAn+gph7x+X2TRGCQFExo6OjWfIvVVVVpKSkwszUDMEhQUU6XqEJgo21FXw5QSj0nJVWgkCh4SkXTVEU0rRRxFlxob1LWVkFcXGx0NPTZ6HtxYXwo0imFNq6NJdiIwg5gcQJQt7LhxOEvDEqizWMBixGwqvr0HBtDHWHmog6uwlpSXFIDvSEVs22SIuNQMK7u9Cp0xlIS0Xss0sFJghfCz9OEIRBvrxrECjvhKenB3r1/gYvXz7Du3evQcnK9PQN4O/vy5LEJSUmIig4kH1//8E9VKlcFckpyVBWUmZJqliCorevoK9nACNjY/b9k6cPMWTwCFCkV8pF8eTJQ5ZcLjAoEFWrVGdHcIMGDIePrxe7LiXLo0y4YCGpPzOCTQnx1q79DcuWLQBlTKQcGjY2dlBTVcXEidOx+de1UFZWYgn0UlJTWFj6klI4QZAzE2X1iIFrEErKbVe8/VBEg1C8Pcq8GicIwiBfHgjC2G09ZcA6MPcSEqIT2XdzZi+EjY0t3n94h5Yt2jD7GdJQUnIoynpJOSvI8JZySFCCu2nTx8LRwQWtWrZDo0ZN8fOKRfAPEGWr/d+s+Swk/E/LF2LNqk24ffsG6tVrhN17d8DUxBS9e/VDdEwM7ty5jgcP3JhmfO0vW7Dkx/lMi1C/XiNGOHx9fbD8p7VQU1fDzFmTUMGlEpSUlaCnqwfKmdK0aQuWQM/VtSp++nENO875Ze1yltSqpBROEDhB+GprkR8xFA/0nCAUDmeh1ym3QSjYfNhVt5A0TEtJg//HEKSlimy8KFV1eEQYs/miTITuHh9gZ2sPH19vWFvZICQ0mG3eBgaGLJ012deQ946jgxMCAwOYhx291VP2ypCQIOjp6eHTJ5G9lpaWFmxs7JGelobIqEjo6+tDR0cXgQH+iImNhra2DkuAFRoWwq5BvxFpoKRpqqrqTCOgq6tHtvnMroNeQCkJVp/e3+DQ4X0ICwtl16MjDCImSUlJBQOoCFpxgsAJQhEsK8VECv3gVeyq5a8WJwiFm3Oh1yknCIWbj6JqXbFiZXz8+K6oxMvIpeyZlE65pBdOEDhB+GprVOgHb9aBcKtpESKcIBRuiQu9TjlBKNx88NbFhwAnCJwgFN9qy3IloR+8WQfStUtPmfzzlhZWiI2LYdb6ZbHQ2WpQUAD+3L9LZnicIBRutoVep5wg5H8+VFXVoKKimv+GvEW+ECCvi+TkzCMOThA4QcjXAhKycmEevJWa2kNNXUXSHfcHPkiMIzdaMGOltWu24Oq1S/jw8R2mTp6F02dOIDg4EFFRUWjYoDEqVnJlxkJXrl5E5cpVyegYZ86eQONGTZmR0569vzPXpR49RDnu6exywQ+zhBy+4LJOnbiMhw/d8PPKxYUiCGLNS3FoYLiRojDLoKwbKZJRH/3HS9EiQIaSiYnxkosUG0GYNeN7rN+4Er9u/gO/rP0ZXhnnL9zNMe8J526O2TFqO6Y+LCoYS344ufImEqJEPsr6evoYMGAYc2G6cvkCLCytYGRkhPfv3yI2NgYN6jdCgwZNYGlpjb/+OoS6desz62eych42dBRcK1XGzj+2wsnJBZ06dcOuXdtQqVJlRhpKctn22148f/EE23dszhdBoAinZDA1fsJwdOncg2HRuFEzZpy1a/e2Ih0yJwjCwMsJgghHMjr8/EX2bJ/iehDZFcXhUayQgaO3j1eelfX1DZgbo3Qh40e6XkJCvCCB8vLshIAVvhpBqFChEtzdP7CHrq2tPW7d+g/KqurQNTZGokCRFA0MDRAZITtZBcFOGDdHJbZI0tPTCtIFmTa2tjbw8fEttBwXF2d4eJScENc6OjqIjYtjPsPikhwXi7QUxW/k/IKirKyMtLTMOSG1ZWpqikSM+K25cuVqUFNTY77NZNksxDzmt68FqZ91fCRDkSMGcSRFqj/lu1kwMTXFf9ev4ubNfwvSDYXbcIKgMFS5VizvBGHWzPm4cfMayyNCXgwUtbdtmw54/PQR7GzsEBMbwzSHR44eQIcOXZh20draBtpa2qCgRqR5I7dDF+eKOPrXAQwa+C3evn3F6k+aOA2GBkaIT4jD3Xu30bhhU5YugF4oSMP4+vVL+Pp6s5eIfX/uQu+e/fDm3Su4u3/MRh6Eme2ik/LVCIKJiSlCQ0PQp/cAlqzp06ePUFHTgJ6ZGRITRL6shS0GBvqIjMyMZlVQecIQBFpDwoRatrG1hq+PX0GHI2nn7OKETx4lx3JW3llsUkwUUpOEWQ+FBqyMCFCEIPTtMxAPHtyDiYmJyNUrNBi1atXFuXOnihQFThCEgbc8EIRH200lYCUmA70WRSMyVvRysfuPg3j56jnTEpC9AgUjatK4GZ4+ewKPTx9Rp3Y95j5489Z/mDhhKottQDERVFSUER0VhXtud1gE0cquVXHz9n8sJUDrVu3wz7lTLOUxEY/4hHjcuHGNHUFGREbgypUL6N37G6axJPfE+MQE5hrZsEETHD26H37+fpwg0OTQW0ucnNjiOrq6Mm9nWW8FThAUezhwgiCLExEvCtnNS04IpMuoNhUhCF8LS04QhEG+PBCEvGwQaCMnEiA+thZ/1tLSZiHEqdCzg+QkJSWy2AQxMdEsLkJoaLDkd/pHTjl0tLW1EUdaT0ASkhxIZzEV6EhBXAz0DREZVfi8QMKsDsWlfDUNgrwucoKg2MRxgiCLE934FICEF/kIUDCWpKTMmPGcIBRupRTGmFbelbkXQ/7ngxsp5h+zgrTgBEEB1PgRgwIgCVCloEcMihIEoQxg1dU12BtHaSmcIPBsjoVdqyUtWRMnCIWdUcXac4KgAE6cICgAkgBVioogkHGhuZkFmjdvhRMnj8HS0orFPqDv585eyFwb6SyRMhiS8RKdPdJ/pG6kcKf0HxGC2JgYkO1MixZtcPHiWYQVUZY4AaBkIrb8uhNeXl+wYuVSrkEQClSe7lkwJIWyyRKsQ1xQnggUm5sjP2LIcy5yrMCPGLIfMfwx2xjG+pnfz9waD98QUWpVOzt7LF/2C+653cb582ewauUGnDr9N+gssnr1mizTG3nUvHv/Fl06dUd0TBQ6d+qO1LQ0lp2tT6/++HHZQhgYGDCXqXZtOuLZiyd48+ZVwSexGFoeOnCCZZtbteYnThAExJsfMQgDJicIwuBYnFI4QZCDNtcgFM8SLIwGoUsjXVgaZRoqHr+VhLhEkUUz+e+T+xIlRCF1u6WVNUsFSxoBIgiUVOXzZ084OjojPDyUZVGrU6c+nj9/yvyoKaf89RvXWFIVIhv0u5+fLyIjS7bRUbeuPRESEoI7d29ygiDgEuYEQRgwi5IgUBwPutfP/nMyW2fpPqcoqm7377Df6HOzJi1x8PBe9pk8FOge9/zsgeDgIPZd48bN4eZ2G9279YaHx0fmHUFGh+LfxRch759Tp/9irtMuLpXg4fFBGLBKiBROEDhB+GpLsTAEgRsp5jxt3AaB2yAU9qYuaTYINB5j16oyw4pw/4C0jBgm+/Ycg3+AH5b++D0SExMwcsR4lm6ZXBw9Pd0xcMBwmJqaMi0iBUyzsLCEhroGvnh9hq2NLdw/ubPIqRQkjVwbY2JiQGGHV63YgCPHDiA1JQXW1rbMg+H1mxeoWqUGKI5LrZp1EBERwbJHGhsZw8zckrlOBvj7Y+eu30r8S0Ve66TYCML06XOxadMaTJo4A/9dv4x3797wOAh5zU7G7/yIQRYoRY0UFYS3zFUTgiD8vHwd7t+/izNnjxcpPtzNURh4y7qbI6HU/9xNCVgUUO3CqAFIihHlVflj50E8f/YEx/4+iNatO7DARikpScwGqVLFynD3+Ihf1mxmdQ4c3INtW/fg0eMHuHzlAgYNHIaU5BRcuPQPHB2dWHwDcqOOj4/FkkUrcPvOdbjdv8sIBMVAIA1dXFwsi3dA9kn+/j64e/c2UtNS0aljN3aE+fTpI/j5+bD00KW5FBtBoEiKXl6foadnAAN9A3zydIeWrh6sHJ0Ey3+tp6eL6OiYQs+HirIyO48uTGHKb4ECJVlamCMgUKT6Kkyxs7OFt7dPYUQI2lZbSwvx8fHIjKMIpMRGIy0jWUhERKTctUGqfwrmw4t8BCjqI6lMxaWgbo4DBwzD0WMHmJixvWuxeCeiIj1jhZsFTS0tJMRn+o8XThrYW11sbGxhxci0Jwt66QQ2hRVOgXxSBI4WqqGpKVhEWhofRRgltbmwEUTpqZjz2vnvaRDcP/sXKjxxXlFPs0ZOFY0zla1tumdyOwaRjnVA8RBq166Pu3dFpKViBVemraB7LacYCoVdN1+jfbERBBsbOxaOcsqUWbh16zqLdMXjICg25VyDoBhOvFZOhCFdEq3UxNQMsbGKZbNs07oD/rt+hQldPG4wiDgLXYQ+lxZantDjZfRKCVASjmMVRRe/isxtf59HQGj4V7k2v6h8BIqNIMi7PCcIii1LThAUw0lcizYJio5Gb6YxCm6G+btC6apdUA2C9Cg5QRBuzjlBkI8lJwjCrTGhJHGCIAdJ7sUg1PLKXU5BjRTz6l3jRs0RFR2J/v0GYdPmX5h1c69e/XDo0L68mpbK32vWrAMrSxvUrFELb9+/wT9ZLLk5QShZ08oJQv4JAg+UVDxruEQFStJW14WNiR2SkrJn70tOT0Ea8mcHoKevh+goxdSnucGtrKKCNKkz3IJNDWVzzDmmd35kWlhaIDAgMD9N5Na1s7eDt5d3oeUUVoA61NhZn5amJuKzZPIMjvZHXFLeZ8iddx6CrrWtpCuXxg1FtJ9obHZ2DuzvvLmLsXbtzyzOwchvx2HdhpWF7XqJbd+pY3cEBvqha5deWLFqiUw/OUEoWdPGCULJIghEPsjWgl4kClNIDtmWSNsgyMuuWphrFHXbEkUQNNR1YG5ihcSkJDnjTs+3KZS+nh6iogtPEIQyUqRNME0qlXFBJ9faygp+/oV33XK0t8dnr7xznBe0n4q2E0UvUIK2thbi42SNFCOjg5GYlLfRmrIakYzMM/FUMmzMwFqUzEmUTMXc3JJZE4sTtCjax9JWT1lZhY2XokBGR8taTnOCULJmkxME4QnCmNETsGv3jgJN9Lw5ixAdE42t2zbKtN+0YRumz5wk812H9p3ZM+XChTOYPm0OC8BWo2YdeLi/h5OTC27c/I9ldhSXRg2b4P6De5LPw4aORJvW7TFm3DDJdwMHDIWpqRmqV6uJbTs2o2aN2sxbYvzEEQUaT2EalSiCYKxnh0q2TZm1bNaSlBqP1LTsmoXcBk++u4mJhY+ZL5ShU+42u4pPo1DeGYYGhixN6dcuGqo6UFZSYYGIpK3tqV8ffe8gPKbwqa2/9hhL0vU5QShJs8GNFHOajdxsEIjgr25rJNN0pVscYpMz0j3vOoTr16/BysoalV2r4NLl83BxrogaNWriw4d3CA0LZbEJkpKT4O/vy14+1VTVoK+vz1JBR8VEw1DfgG3yO37/jR1RTpvyPxw/cQwUKKt69Vr4/NmD2TbRPkPHlfr6BjA2NkZkZCSqVasBf38/lknS188HvXv2x+Gj+1G7Vl0WuI08a+7eu8VcJQMDA/BN/8FwsHfEwcP70LxpSygpK8PC3ALPnj/By5fP2TUqVnRFUFAgHj95WGwLuEQRBE0NPViY2wvm5ihUxDOh1EJCEQ0Lc3MEBgng5mhrA28f32JbbHldSEtLE/HxmVkHqX54hD8SEgvvqprXtcvT75wglKzZ5hqEgmkQNnbIJAgJKcAKtzjEp2QShI0b18De3hG6ero4c+Yk+vTuzyIhLl4yD7FxsVBWUoaPrzfTABCJUNdQZxFVKdgRuVuHhAZDXU0dAQH+7OWlVau28PHxgudnT1Sq5IrTp0UxQapUrsaiLlZ2rYq09DS2idvZ2iMg0B+WltYIDgpEkybNoaOji4cP3WBra8/cZClAE+WECY8IY8cQffsMgKWFJY4cO8hIyj23OyyYEyWHo1DwLVq0xp07N+W+QBfViuYEQQFkOUFQACQBqhSUIPBASbmDL0SgpKxX4F4MAiz4DBGcIBSMIJAWQV6hpGsUFdHbR/b4lFT1L189L1NxCYRbhfIlfXWCMGnSDERFRuLgoT3gGgTFpptrEGRx4gRBGIJA6s5BA4dj5x+/wdDQCD179MODh/fQvFkrHDl6AO3bdWJx5qlwgqDYvapILU4QhCUIimDO6yiGwFcnCL+s+RVbftuAL18+QVfHEHY2FZCUnD9bg5yGKs9tTjFYZGsJoUEQRVKU2M0VpBuSNmamJggOCS2UDGpsbWUJP/+AQssRSoCmpgYL4CMdMyYqOhCJGV4McXHxci2L8yIIpB6kktW+Qah+l1Q5des2YHHoKelUUlLm0U1ORwzt23VBbGwM7rndQr26jdC5czecOXuCGVlt2fwHzp0/jcNH/hQRhPFDoJJh/Cnk+IU6hhP3SWh5Qo5VIkso46Qi6VyGUJELVlFeIZvs/RduwMPbV+4bP0U8pP94KVoE0tNTWWIqcSn2OAhjxkyCj7cXLl0+xzUICs411yDIAkWLVkdDg7mRiktiKoU4FX2ysbbFgu+X4srViyz5Cp07Nm/Wmrk59u87CLp6enjy5AFu3rqB5ctWM8L6ydODxVcvzYWle376CKtWL1OIIDRs2BRGRkYs9nyvnv1ZIpqIiDB8/Pgey3/6hcWcP3hIlPGOaxCEWxlcgyAfSx4oSbg1JpSkYicIpMqkEhERzgmCgrPICUJ2gnCsjylcjUWaAio9j0fCN0bkDUMWwFT69h6A+IR4mJmZ4e3bNwgNDWYWxLVq1UXrVu1YOteXr1+gc8du2LVnR6k/q9y/7y88efIQv6xboRBBILdIMqqKjo5i5IhS4lIqbFNTc5Y3hc52yQCLEwQFb1QFq3GCUPIJQm6aKHFOEnnedwougVJTrdgJgjQy3AZBsXXCCUJ2gqBoumfaBCnj2vXrVyUEgBKt0NsyFXKLql+vkdw88orNTsmqRVbYcfFxChGE/PScaxDyg1budTlBEJ4grFm1CTt3bYWerj6MjIxZSuaKFSpDS1sLXv9v70qgqqq68IeMTxBwBhUHHHFGRJMcccghNa3UstIyUxscK4c0cSinftJy1iyHzKEcUst5yDkkcUCcUBHDGQRkkulf+yBIirz3ePfxzrtvn7VcKpy7zz7fPvfe7+6zz94R12Bnby8I8N59u8RJAa9adUUp5qSkRISdD0X9et7Cs2hvZydKPdOxw0cpKeJYJOUVoVpCx44dRr16DUWpaKrWWLOGl6gSSacUaGuPCPXRowfh2/gFXLp8URyzPHzkAPr3GwjPKtWxZ+8O+Pq+gBeavoglS+cjLT0NHw4ehuN/HxG5WoiUx8XFio8aygZL23+UH2Hhou9Qo4YXSpUshWrVaoq5ORZ1EkmZQs+dQfdur2LN2pWoU6c+7ty5JcpcK9WYIOSBpBIxCCRWqf1QJggFJwhK3SjmJIdPMRTu3rm+a4MJQsEIwnGfqjkXkoU7nbqGmLSsqqVrVm/G3r274ObuLso7Hzq0Hy6uxeHXrAWibv4rSjDv2bsTXTp3Fx8HDRp4ixfywYP7REr21atXwKNSZeFZnPrVBHHs8YelP+NRyiOs/uUnBJ04jskBM7B3304cPLRfvLznzV2Ga1fDUczZGffv3cO8Bd+KfAeLF64UhQmnfj0BQwYPw86df+D8hXMiB4KtrS2IzFAQcEjICdg7FEVk5DXUrOmF06dPClJxOfwi+r0zEOvW/4wXX2wpPKGLl8yFt3djXLlyWZAF+jvkVLAgJVRVcv++XaDKqEQ0lMgFlA00EwQmCPo+3xTrz8ccFYPyP4KYIDBBMM7KMq5UbTEI3sU0OQpQhtqzCSlIfxx4RARhzLgRIjCZvIaUv8Db2xfjxgSg37u98OhRiijpTC/wopqioDy95G2gVO/kIaCXNyU0cnF2xb17d5CalgYPj4qIiY7Gw4SHIjdBdPQ9kUhJ46DBpcsX4O5ePituKdNK5F6glzONX7aMG5JTkoU3gO7FClTJOOoGyrmXF39Xq1ZD5P55EBMtMjjSzymbMI1LOhA5KVvWXWyV2ljb4MrVyyJ3A22Rkp4uLq7C+0EkhUqH03xJHm0NUr4F8iIo1UxKEBydSqB8xVr/iZrMnlhGWhoyM57UtNdlwkrVgqe0tVQj3LCmXC0G2kO/e/euYerQKYZy7oiKMjxls6GKFLG1E96VvDJf3o66jMQELvlqKMa5r+dESUqiabgs9iAUzIPwPOTppW5ja4P79+/9p0ulSlWElyB3bQTDrWdZEkxKEIo6Fod7+Rp5EoSCmEE5glBEkexVSm0xlCpdEvfuGn7M0b2cG25GKccuC2Kj3NfQMcfk5P+mxr57+wqSEk2fDtrQucl0PRMEmazBqZafZw1tHgS5rGgZ2jBByMPOssUgMEHQ72akRU2N3G6W1D4d9YVwPVLiI/YgyGt59iDo70HIdqXLa1V1aEYnM2g7JrsVOkGgQIv4uDgRiFGjXEW87Nsc6Qa787OmQwEguZM8FNRkSn35W8FK7HUZ2mjPjCLTDW3FHJ0QnyBPnQPaX0sTZbWfYLQ16BDCb2mvF/FaaRcUtX6SCGHzvXjEPg5YKlmyFDp17Cr2BHv3egsngo8jOTkZp06fRLWq1VGiRElR9ZCO8NGxWzrvf+XKJdHHnNumDTtF7vevpn2pE0HQaIrCr1lzEbxF+5jNXmguorLr1qmH/Qf2ikCuEyeOC1l8ikG5lcEEQX+CQGmWn5dqWTnLsCSTZ1Ls++a7CA+/iGPHD6NEibKo7dUQqemG1eHONisFj9AREUNbEYXKNCtFEEq4uCJagSqMZUqWwp2n9ukMxcqQ6+lI0dOlvi9eOI2YGO3xFtM93VBV8yQ3+0cXo3AnNWsdUUARtTf6vCOOELVu6S8SIVECICqU0sS3GerX98bvv29A/MM4fPThcIyf8JkhU5Hi2u+/W4qzZ0OwaPFcnQhCmzbtBaGmiG86qkUZKF1diuNaxBV8P2cJtu/YitW/LGeCoLB1mSAoTxCI9EdHF3wblr6Uc3sciTBTgGFejX5H7Xm/f/oaClpMyfVVThUfHz6MFwGGFJRIwYwU90YBhnR8MTEpAUTeSR+qMUG5Sej/6elpogAUBSdmlXWPU3hlZmWfTUl58g4tdA9C/3cGIjTsLIKCjsLaxhYOGifFgkiU+vKnFMkKfPgrZjyltjzyKq+smJIFEJSXvVKSE5CepkzqbVKJKrg182suqqJlN0rZSjcbNcqwSC9EinpWQ8trrTwvBqF589bC67Zv3y60ad0BLi4uAgeK0J4duBC7dv+ZQxDKlHAVtwU3RsBYCNyPjX/sUXx2BG0ehIXzf8SWrZtEjgJPz2r49ddf0LlzNxR3LSHKLBct6iiqNk6cNEbkL+jR43VERFxDTEw0Nm5aD29vH7Rv20nkTaBkavTypZd2YsJD3Lx1E02aNMPsOTPRt29/lC3thp9WLMF77w7CH3/+Lo5GkjeS5H8TOA0ffzgcW7ZuRpcu3TBt+iSR2fWTj0eKBGZ0Tb16DTB//hzxwfLNrO+E3nTqwbmYMyIjr4uPXKoUSfctfcBs3boJA9//EFfpI+fyRfg2biqIAlWknDd/Nt7t/4E4nRE4e7rBpjE5QaAznMlJibgeGWHwZFgAI8AIaEfgeQTBwd5BZJWko1d0hIqSwISHX0KN6l6iPoOXV12EhZ3VPgD3YASMjAARBKs+S5+MkpEOm21jgUdZW6bLfliNTZvWo3r1WijnXg7rf1uDF5u1QOPGTbF7zw5xmoESCNH2IyVKK1G8pEiMdOTIQXF08fbtm6BTD35+LYQHLikxEQETv8a5sFDh7X4QEyOOJxKhpi9/KhUwZPBQ3Ll9S5SSrlLZE0uWLhDHHocMGYqYmBisX79a3F9OTk5iG8/HpwlCQ89g6uSZ2Ld/N86cCUFsXCxaNG+NU6f+gYdHJXh51cHatatEfaJWLduInA0UfE9e0W1//I6WlPTtwG68/tobwuu3ctUykZjpRb+W+HzMMIOtYHKCYPAMWIDFI0CeB/rDLW8EiBDkPtqlxCkGxpoRMCUC+XkQ6KU9ZdIM8YWefdSRPGkeFSqKl/i48Z8+cyot29OW11HrbM8meVzpT+6tqjdIeQAAGDJJREFUB8pDkO3az44Nc3IqJrYMshttIWiLZ3p6XAcHDZKTk3KOfhMhoGDB3Fsnzs7OiIvL2lYg1z9tD9I2dvkKHujcsSsWLfnv1mJB7CUFQQj8Zp5wjdC+TJnSZcWeS3z8Q9SpUw/FXYtj46Z1WiPQyXCfjRqP6TMn4bNPx+PX337BrVtRGP/FFEyZOgHvvP0e/jkZjBMnjuWLExl31MhxmDR5LCaMn4o5c2aKJBkffzwKgYFfo+vLPREXH4u9e3dqxXvRguWYt2A2vBv4oHbtehg9dpjIqvXB4LdRrJgLXu7SPac6Xn7CFi1cgYBJY+Dd0Fe4rabNCMiR8/XUQMz631ThGtPW2rbtiH37doLiPijJB1XnG/DeEOE6HjN6Ivbs2YnfNvyiTQxe6tAFLVv6IyrqXxH4R/YJ+HIaQk79I9js2DEBGK0De33n7ffh6uoqEo3ExsZi4eLvMH/ujzh1OhgngoPQ7+0BGDr8A636aKvmqFWAyjsolSiJUrg2qN8I23duQ8P63li8dB7e7NMPVkWs8NfBfRjw7mAETB6rM5r0UF44fznGfTESFTwqiVSxmRkZ6Nv3XXwxfhSGDxuNb/V0k1Lq2dpedWFtXQQ3/r0hstN17/6a2KP1buiDv/8+KjLS6dPo/hs8pB/q128k7r81a1fgi7GThXva2dlFJMKhbRhd29TJs0T2PUqLO2rEWIwYNQSDBw3Dqp+XoVvXnjh37qzIiqdroxfY7MAFmDlrKnr06CUCUynWZsG8H8VXJHlpq1TxFG52XVvPHr1Rq1ZtTJ8xCSOGj8H/Ar/GhAlfIfJ6hEgX7OfXCitXLtXr+DdlEaS59ezxOn7bsA5/HdyLGdNmi7on9eo2ELFA9IzUpeVHECgmgDB5OkBdlxe1LmPL3kep4/00TykIAkWWH/hrL9q0aofUtEc4fSZE7L30e+d94QqinNW6pIusWbO2iD7v8UovBAf/LRbJvfv3RB76Vi3bCvfSlKnjtdqXbija3+nxyuviZqD4A8qwFRf3QLhvLl46/0wSjryE0gOQ3EhVq9bAaz17o1efrmjr/5J4ifZ6/S3halq0+Hut+hDzpebn11K4juil2b/fB9iwcS1atWor0myGhp7WKie7g1+zluKhbl3EWtyknp7VMXP6bPy6YS3WPC7nq03Y4oUr8MualfBv0x5fBowW3V/t2UecAqAHHxU+0iUhycQJXyPoxDH4+3fA56OHigcO4U774O3adRJET1tjgpA/QkoRBBplzreLsGLVD2Kfde7cQCxZvErks6d7lFLAzvl+ljZz/ef348ZOwuIl89C+XUf8czJIBJa93OUVHDp0QKTEpaCs6Bj9gs2obDWRjQoVPHD12hUcPnwAHw4ZgfkLvhVri/aY9WltWrcTzyc6CUPna+jZQC7p4ODjGDRoKA4e2ieKYunT6AVMVUUpde66dT8LVzTtG1OKXcqkR6Rdn+I/9FKk+gD07KPTJp8MHSieFbTfTvvX9IGyfMUSfVTEN7Pmirz/LVv4Y/2vq8UXLVX5pA8C0s3ZmTL46ZfEjDCkZyK5wycGjBHHcEuXLgPHoo7Ctf/n9i066agtBkEnIdxJKwJSEIR2bTti957t+GDgJyJS2o72dWxtUbEifVWki/zYFNGprdGeUUTEVVEAgx409GIN/idIeB/e6ttfPMjo5tbWKlasLIhJ61btcDLkBDyrVEX4lXAkJMSjQ/vOOP73UfEFrq0RQaCbk5hs8RIlhfeCCgH9HXRUXKrrw4rSalKjm4pqGJNOnTt3xx9/bMZbfd/FtWtXxBeJrq1cuQrwb9NBFCaa9c1U8WD5+KORCAkJxtp1q3QSQx4H+rro8UpvbNq8DiNGjMGaNSuFu23UyLEImKTbl+SA9wbjh2UL0b3b69i6bQMCAqZjwYI5IoiIHpo3b+ZdDz63ktoIAgXwUJpUCjaif1PMC+Vlp/zo5LEiOz2IfSB0r1zZU4xJLkF9HtA6gVbInb4NnC/2RKd89aVixZpGDKev+hl4841+4kVLL09Hx2IIOnFU3BuUI16fRoVrflq+RLx4Tp4MooIlIvZh27ZNGDlyLAIDp+kjTvT19W0m9nMpkOvipQvYsWOrIK+0n7vsx0XC66VP82nkK54jjX2aoESJUkhITBTpeClXPq0nKqBDzx19Wvaz5b3+WYFttOYoGI1qA9Czizwy+jTyoJYuXVY8q+j54lzMBdVr1MTZs6fFM4ju+S1bN+gjEkM//hTfzf0G7w8Ygo0b16N9+844dHg/6Eu8fbtOgjzo8hGQe1A6Ons29JR45tBHHwXULVz0PZo28RNkhvb+ucmLQKGfYpAXCtbMXBCgRWvV4UtkalxyVLY98C0yH94R/6ejQ7SlQ1Xbxo6eiP0H9mDrtk0iJ/rdu3dQpmxZsW1CEc7kNs9Iz0DE9auK5NAwJYarV20QX7bTZ05RjCCYcj48NiPACJgWASYIpsWfR2cEjI4ABykaHWIegBFQJQJGJQhU4UrXZBKqRJcnxQhIgAATBAmMwCowAmaIgHEJgnMx2Ns5mCEsrDIjoB4EKJ4nLjZWTIiC2ygegxsjwAgwAvkjkCkCaZOTkmDlXr5SgYsGUNBXYoLhtQLYXIwAI8AIMAKMACMgFwJMEOSyB2vDCDACjAAjwAhIgYBRCAKlsqTzydwYAUaAEWAEGAFGwLwQ0GgcERN93zhbDI5OTjlFccwLFtaWEWAEGAFGgBGwbASMGqTIBMGyFxfPnhFgBBgBRsB8EWCCYL62Y80ZAaMgQAVpqFGmPqr5ERNzX6TUfv+9Ifgm8Ot8x8xdwnvQB5/olFrcKJNgoYwAI2AwAkwQDIaQBTAC6kKAKsh17tQNNtY22LFrG1579Q2EnQ+Ff+v2+Hn1T6BU4D4+vrCztUdqWirOnD0Fr5q1RXpiqrNCtRuoVj2lr/b0rIakpCTMnjNDXSDxbBgBC0CACYIFGJmnyAjoi8Dc75aKolpxcbGikNarr1Jtg7qiqqmbWzlUqlgZh48eRFRUJEZ/PlHUvQg9dxolS5RGWNhZ8e+B73+EunXqISwsFGPGjdBXBe7PCDACJkaACYKJDcDDMwIyIlCtWg1U9KgsvAMBE6dhzNjheLVnb3jVqoPrkdeFylRamYgBVRitUb0WNm1eL4puUV4UqvDZtUsPnDkbgjKl3bDpd/0qKsqICevECFgaAkwQLM3iPF9GgBFgBBgBRkAHBJgg6AASd2EEGAFGgBFgBCwNASYIlmZxni8jwAgwAowAI6ADAkwQdACJuzACjAAjwAgwApaGABMES7M4z5cRYAQYAUaAEdABASYIOoCkUxerXL2oLmbu/9OvClwrU6fRuRMjwAgUFgLZ9zbf04WFuBTjWFkBmRZmcyYICi29lyb55Ui6efoe3OuXyvl/2qMM7PnqmEIjsRgZELC2t4H/aF/cPHMXZzdeFirVf7UGStcqjr8Cg5GalCaDmqyDwgjYF7NDm899hdQrB//FxZ3XFB6BxcmAQAVfN9TpWhXHFp9G7I14eDR2g9fLnrAqYoUdXx6WQcVC0YEJgsIw132lGuJuPsT147eEZPd6pVCyqivObsp6iXBTBwINetWAxtUBmZmZOL7kDCq94A7n8k44Q2Qhw8I+M9RhUp1mUbJqcRSxAe5eiNGpP3cyTwTq9awunt3Bq8JwP/wBXvnOH1s+PQCvzlVwOywady9Em+fE9NSaCYKegOXb3Qpo/Zkv9s8Myunm/aYXTq4OU3IUliUJAkQGHUtrBEHwH9sULuWdkJaSjuCV5xAVckcSLVkNJRHw6uyJav4esC1qi+3jDyExOllJ8SxLIgQ6TGyWQxC6BbbG7yP3o1bHKrDWWCP0sddQInWNogoTBAVhdXC2h1vdkrh2JEpItdXYoHH/Oji64JSCo7AoWRB4miAcXXgK6anp8B/bBNu/sBw3pCz2KBQ9rAAqSFWuYRnU71kNf45nOxcK7iYYJC+CQNsMGakZuLDDMraWmCAotPBob6rP8o74fcR+JNxLElJpr5K2Fu5eZHekQjBLJSY3QfDq4ileHA/vJcKplAbntl6RSldWRhkEyENIHkGPJu5IepCM8H2RyghmKdIhkJsgvDyjFfb/LwiN3vJC0E+hSLIQzxETBIWWJe1X0Uti7/S/hURr2yLwH9MEu6ZwcKJCEEsnplobD2iKO+DMhktCt5odq6BCozLYM+04n1qRzlrKKEQfAn4fNkRMRBzObQlXRihLkRKBZoPq49y2qyJI0c7JFi2H+yDi2E1c2h0hpb7GUIoJgjFQZZmMACPACDACjICZI1BoBEGj0Zg5VKx+fgikpqYiLe3J0T62t7rXS1JS1jYaNareaG9vr+4JW/Ds6KROcvKTYEzaSnNwcLBgRNQ/9ez7u1AIgqaYA9pPagbHMkwSjL20ns7PpO94BT2g98enhxB7K04MR+SAXxj6Im9e/ZOSEpGS8ojtbV5mK7C2sbGx4kgvNRcXFxFvw029CMTHxyM9PR2FQhAoyUTz4Y3Ui6ZEMzP0ti0oQQhZcx5hjwPzmCBItCCMpAp9YaSkpDBBMBK+sollgiCbRYyrT+ESBF83NB/GBMG4Js2SzgShMFDmMZggWNYaYIJgWfZmgqBSezNBUKlhJZsWEwTJDGJkdZggGBlgycQzQZDMIEqpwwRBKSRZTn4IMEGwrPXBBMGy7M0EQaX2ZoKgUsNKNi0mCJIZxMjqMEEwMsCSiWeCIJlBlFKHCYJSSLIc9iDwGshGgAmCZa0FJggqtTcTBJUaVrJpsQdBMoMYWR0mCEYGWDLxTBAkM4hS6jBBUApJlsMeBF4D7EGwzDXABEGldmeCoFLDSjYt9iBIZhAjq8MeBCMDLJl4JgiSGUQpdZggKIUky2EPAq8B9iBY5hpggqBSuzNBUKlhJZsWexAkM4iR1WEPgpEBlkw8EwTJDKKUOkwQlEKS5bAHgdcAexAscw0wQVCp3ZkgqNSwkk2LPQiSGcTI6rAHwcgASyaeCYJkBlFKHSYISiHJctiDwGuAPQiWuQaYIKjU7kwQVGpYyabFHgTJDGJkddiDYGSAJRPPBEEygyilDhMEpZBkOexB4DXAHgTLXANMEFRqdyYIKjWsZNNiD4JkBjGyOuxBMDLAkolngiCZQZRShwmCUkiyHPYg8BpgD4JlrgEmCCq1OxMElRpWsmmxB0EygxhZHfYgGBlgycQzQZDMIMZQJzdZyMw1wNMkIvt39PPc/fTRKWTNeYRtvSIu0Wg0sLe31+dy7mtmCDBBMDODGaguEwQDATSzy5kgmJnBdFWXPQi6IsX9DEGACYIh6JnftUwQzM9mhmjMBMEQ9CS+lgmCxMZRkWpMEFRkTB2mwgRBB5BU1IUJgoqMmXsqTBBUaljJpsUEQTKDGFkdJghGBlgy8UwQJDOIUuowQVAKSZaTHwJMECxrfTBBsCx7M0GwAHtzkKIFGNlEU2SCYCLgTTQsEwQTAW+iYZkgmAj4whxWF4Lw9OkGPsVQmBYy37GYIJiv7QqiOROEgqBmvtcwQTBf2+WrefZRxby2Gujlr+3nTBBUujAUnhYTBIUBlVwcEwTJDaSwekwQFAZUFnEcgyCLJdStBxMEddv36dkxQbAsezNBUKm9mSCo1LCSTYsJgmQGMbI6TBCMDLBk4pkgSGYQpdRhgqAUkiwnPwSYIFjW+mCCYFn2ZoKgcns/L9aAps2pllVu/EKYHhOEQgBZoiGYIEhkjEJQhQlCIYBs6iH4FIOpLaDe8ZkgqNe2ec2MCYJl2ZsJgkrtzacYVGpYyabFBEEygxhZHSYIRgZYMvFMECQziFLqcAyCUkiyHI5B4DWQjQATBMtaC0wQVGpvJggqNaxk02IPgmQGMbI6TBCMDLBk4pkgSGYQpdRhgqAUkiyHPQi8BtiDYJlrgAmCSu3OMQgqNaxk02IPgmQGMbI67EEwMsCSideJIFhZFYFVrk/SzMxM0J+nW5EiRZCYkPjMzx2dnJCengYPXzc0H9ZIMgjUrw6fYlC/jU01QyYIpkLeNOMyQTAN7qYaVStBsLaxQdv2nRF5/VqOjh4VK2Hnn1uYIJjKajqMW1APAonOvlaHYZ7pErLmPMK2XhE/12g0sLe3L4gYvsZMEGCCYCaGUkhNJggKAWkmYrQSBBtbW3h4VEJ09H1U8KiE0DMh6N6zNzZvWMsEQWIjcwyCxMZRkWpMEFRkTB2mwgRBB5BU1EUrQaC52tnZw8rKCoM+Goktm9ahfkMfJgiSLwImCJIbSCXqMUFQiSF1nAYTBB2BUkk3rQSBiEGlKp7QaBzRp29/zJo2UWw5sAdB7hXABEFu+6hFOyYIarGkbvNggqAbTmrppZUg2NrawbNqdTx4EI3YBw+QnJzEWwxmYP2CxiBkE4tnQ1B1mzTHIOiGk1p6MUFQiyV1mwcTBN1wUksvrQSBTiYMGDwUpcuUzZnzP0HHsH3bZo5BMJNVwKcYzMRQZqgmEwQzNJoBKjNBMAA8M7xUK0HQZ058zFEftAqn7/MqNtLoXM2xcGyg5lGYIKjZus/OjQmCZdmbCYJK7c0xCCo1rGTTYoIgmUGMrA4TBCMDLJl4JgiSGUQpdZggKIUky8kPASYIlrU+mCBYlr2ZIKjU3jIQhGptKqJGh8oqRZinRQgcmBWEhOgkAQYnxlL/mmCCoH4b554hEwSV2js/gkAnFLQRCCVOMTR6qzZqdmSCoNIlJqYVvCIUF3dGMEFQs5FzzY0JgoUY+vE0mSBYgL1NdYqBCYL6FxcTBPXbOPcMmSBYlr2ZIFiAvZkgWICRTTRFJggmAt5EwzJBMBHwJhpWJ4Lg7dME5SpURGLCQ1hbW+PMqX9w+9bNZ1TmY44msmIew/IWgzy2ULMmTBDUbN1n58YEwbLsrZUgODu7wKtuA5w5FQwX1+K4e/sWevftj5+XL2WCIPFa0RZjoE11jkHQhhD/nmMQLG8N5CYIXQPbwKmMxvJAsKAZbxi8GykPH8HOzg5xsXGwci9f6T/vhv4DP8L61cuRmpaKRo2b4sb1CJT3qIjjRw4yQZB4oTBBkNg4KlKNPQgqMqYOU8lNEHotewnWdtY6XMVdzBWB7eMOIuZ6/PMJQr8BH+K3dSvxMD4eL7zYEscO/4Wmfi2YIEhucSYIkhtIJeoxQVCJIXWcBhMEHYFSSTetBMHW1hY+vs1w7MhfeKlzdxw8sBsdOnXHpl9XswfBDBaBKVMt8ykGM1ggBqqYmyAUK+6EUlWKGyiRL5cVgYz0TESeiUJGRoZQkT0IslpKOb20EgQaqladeuj52pti1EePUvB94HSkpCTrTRAqNC6LFsN9lNOeJemEAJ9i0Akm7lQABE4sP4dLu66JKxv2qQWvlz0LIIUvMQcEMjOB3wbtQmpiahZB+KEDrO1tzEF11rGACPw59iAeROazxaCPXG2nGEhW9bYV9RHJfc0MgTsXYhB7I15orXGxB5FCbupF4NKe6zmTK1pSg/INS6t3sjwzhB+4gYy0LA+Ca4ViKF2TPUZqXhbZ9/dzgxT1mbwuBEEfeebct0J5D9z4N1JMwdHRCQkJD815Oqx7PgjQSR9KM3z79i3Rq3JlT2Skp+N6ZFaGQW7qQsDWxhYUyZ2WlgorKytU9ayOaxFXkJaWpq6J8mxyELCxsYWVFZCamuU9KVvWDY8ePUJMTLRFoMQEQUEz/7xqIxYsnINDh/bDzs4eY0Z/iclTvlBwBBYlEwLvvD0At27dxM5dfwi1hgwehh+WLRAPEG7qQyBg4nQsWTof//57HZ07dcPJkyfgoNHg6tVw9U3WwmdUpowbbG1tkJlpBYrHi4qKBH0IezdsjKATx5GebhmkkAmCgjfC5o270Pftnihf3gMXLpyDX7MWOHL02WOhCg7JokyIQK1adeFRwQO7dv8ptGjr/xIaN26KGTMnm1ArHtpYCDg5OcPFxVUQhK5de2LHjq2wtbVjL6GxADeh3PbtOsHaxgbh4ZdRt05dXL12Fe5u7oiMvI6zoadMqFnhDs0EQUG8R382AefOh2LPnh1ITExAw4Y+CAkJVnAEFiUTAr17v4379+5iz94d4iujRfM2aNCgEQK/nSaTmqyLQgjQlqGTUzFkZmagSuWqSExKFK7mGzeexGMoNBSLMTECJUqUgo21NWh/oUG9hjhwcD+aN2+F8PCLiIi4amLtCm94JggKY01uqMzMTPGH9inpb27qRIDsSy3bxmT77KNg6pwxz4oQyL6v2d6WsR6y7W2Jz3MmCJaxxnmWjAAjwAgwAoyAXghkE4T/AyNYJYUYHiQtAAAAAElFTkSuQmCC;labelPosition=center;align=center;" parent="1" vertex="1">
          <mxGeometry x="-1844" y="838" width="210.92" height="101" as="geometry" />
        </mxCell>
        <mxCell id="gDeRItCsJUCmX3u7agb1-3" style="edgeStyle=orthogonalEdgeStyle;rounded=0;orthogonalLoop=1;jettySize=auto;html=1;" parent="1" source="gDeRItCsJUCmX3u7agb1-2" target="gDeRItCsJUCmX3u7agb1-1" edge="1">
          <mxGeometry relative="1" as="geometry" />
        </mxCell>
        <mxCell id="gDeRItCsJUCmX3u7agb1-2" value="Prometheus" style="rounded=1;whiteSpace=wrap;html=1;" parent="1" vertex="1">
          <mxGeometry x="-1595" y="899" width="120" height="60" as="geometry" />
        </mxCell>
        <mxCell id="gDeRItCsJUCmX3u7agb1-4" value="" style="image;html=1;image=img/lib/clip_art/people/Suit_Man_Blue_128x128.png" parent="1" vertex="1">
          <mxGeometry x="-2107" y="848.5" width="48" height="67.5" as="geometry" />
        </mxCell>
        <mxCell id="gDeRItCsJUCmX3u7agb1-13" style="edgeStyle=orthogonalEdgeStyle;rounded=0;orthogonalLoop=1;jettySize=auto;html=1;dashed=1;dashPattern=1 1;" parent="1" source="gDeRItCsJUCmX3u7agb1-12" target="gDeRItCsJUCmX3u7agb1-4" edge="1">
          <mxGeometry relative="1" as="geometry" />
        </mxCell>
        <mxCell id="gDeRItCsJUCmX3u7agb1-14" value="Tracing" style="edgeLabel;html=1;align=center;verticalAlign=middle;resizable=0;points=[];" parent="gDeRItCsJUCmX3u7agb1-13" vertex="1" connectable="0">
          <mxGeometry x="0.2745" relative="1" as="geometry">
            <mxPoint as="offset" />
          </mxGeometry>
        </mxCell>
        <mxCell id="gDeRItCsJUCmX3u7agb1-12" value="Dynatrace" style="shape=image;verticalLabelPosition=top;verticalAlign=bottom;imageAspect=0;aspect=fixed;image=data:image/png,iVBORw0KGgoAAAANSUhEUgAAAggAAAD2CAYAAACz+38jAAAAAXNSR0IArs4c6QAAIABJREFUeF7svQeUZFd1NvrdCp27J+c8mpFmJI3CgEZ5QCCJjEn/M04LGxv7Pf/YxsbL9rOX7eXn9MNvAw7wLweiMWBgCVkkGxASEkggaZRGmpx68vR0z3QOFe5969v37qpbt29V3equqq6aPhdGVV333BO+c+7Z39ln732snTs/5cBK46devwU/evYY7n319ei7OILurja0drRgbCKNZCKO1Ng4BgYnsWRhAsmuTowMTmH5qnacODuA1kQ7Vq5YiPO9/bh620b0XexHLO7g2P5BHDw6gFtvX4tMegrXbl+DUyeH0NqeRDozDsdO4qV9F7Dr9vU4dOACdt68CpcGUxgdGkdLrA2DQ5PYsKoNfcOTcJw41q/pxHg6AyeVwHPPnMCxU+NwLwfdXcBb3nw9vvjlF+AgCQvAshUd2HrdUmxeuwQnTp7GwoWdmJjMoi3RCcdO49ihCxgYmMQtu9YiaSXQvbwDR4+ewnU7NmGwbwgTYzEsWpzE2fODuGrrahw8fBI9nV1oS7SjvT2D/v4Ulq3uxA9/dBT33rcdvacvoae9E9n0FMbGJtCe7MDh3gvYdNUiWE4CF85cxtiYhZf3D0AqyMt20NKWxe/9wT34yIcexdhEDJYTQ0sHcO2OZTh17AJ+8b27cez4WUyMj+OGm27Gt772CDZvW49TfUNY2ZbEilWLcWloDN9/9CWMD7fCgQXHYgEOVq1uw913rcVXvrwfWasFlsN7Nn7qHduQGRnB0uWL8cjD+3HH3ZvQd3EcW69ei8H+C7g4PIJlKxbj/PFh9Cxtx4Kli3HiQC+2X7cGF06PoqOjDWfPDeNHT5xE2o4jBofFIWZl8e6f3oZzI6vw8sFJZGHBsmzsuD6OjlgWqzeuwGD/MEYHUrjhFQvw0sEJrFvTgvFJG30XzmPFspWAlcXF81lcd+1i9PcPIdbSjsOHR7D/SBZAzOtx2wPQfBgEDAIGAYNALRCwdr7yUw4cG6+/ZzP2vNSLV1y/CvHOdqxZvQR9F4fQe2YIPT0JbFy7EgOXBrGoJ4FJ28Lze85g+aoupO0MlixYiIQFjI8OoWvRcly8cAFLl3VjZDCFp/ecwX33bUcCaSTb2rD3xVO45tpVOHbkDLp6FuLlfefwpjddh9O9A1i3fgH6h2y88OO9WL9lPWLIYs2SDgxNTKB/wMYN167A+f4xxGNxHD96Bi/tG4bjWCJrV6xswy23bsRDX98HC3H5bfnKTmzcshDXXLUKhw4fQcxqQ/eCdnS1LcCl/j4MXkqh//IYbrppJQb6RrFgzVK0O+NYsqwHl85ewsuHBnHbHVtx4lg/Vq5ajJGJISSTCaxdthhDQwMYHUtg05ZF+MIXf4K777kOqXQKCbTheO8J3LjjaoyPjOHk+X5cs2k1ek9dwA03bMQXPvME+ofiLkGwHfns6gb+5/tvx8c+8mNMTAExx0G8zcLOnWuBTBbrN3ahpS2B0ycHsXr1VTi693nceucO7D/dh5apFNo6OhBvacWjDz+PgcsWbMtBzHEZyMZNndhxw0o89NBRIVkWpbhl4w1v2Y6DL57C9TesxuDFESF7Bw5exH3334yjR05jZGIKp3uHsGb9YqxZswSXBydwrvccFq9YhKlxC60taXR0L8A3HnoRWdvNlyXGYln8/HtuwMFTi3HkRNrtH8vBtdck0Z5owYlzo9j1yh4hCIuXxnD4ZArbrl6AkZEM+i8MYXKqDdde146LfVm0tsQxNjaJvssZ9HR34rnnh2B5BMHQg1pMByZPg4BBwCCQR8AlCHCwcEESo2NpdHUkEW+No72lFRMTU5hKpZBIJtDakkQ2m0EiHsNUVtaoyDppWHYccCy0tcUxPjaJZDyJVDaL1rYEsukshobTWLq0HUkLSGeB0ZE0OrpakWwBRsfTmJxMY/HiToyNjKGjsxWpNDAxMgGrJYmEZaO9JYF0Jo1ksgWJeByplA0rEZPV9NgYqx6DFUvjXe++CT/4/gmcvzAhAonCKpGw0NYeR3t7ElOTE4gnWgDEYWfTaEvGMXR5CpOpLBYtbUM6nUGstRU337AGG9YuxrNP78exY2Po6G5DOpVBR3sSKTuFWMzGq+66EbAyONF7ERfOD6D/8gS6e7qRpXbDtjE6OoEF3T1wshmkLRvdbS1YvGIhFi5qxWOPHGXN3FWww//YuO221ehZmMD3vnMKWceR+sOKY+HCFnS3JdA/OIr2jjbYaQctLUkgm0J7WwuGU2lk0zaSLXEhTYMXJ5HiItsCLMeGFXPw6tdswMW+MezdOyBaBVl/2w66F7ZhbDiFnu44OjoTmJpKY2w0g8VLF2BqagqTkymMj2fRs7AFbW1JTE1lkIwnkE6nYWeBeIsDK57EQN84YMcED3KPRYst/NrvvBWf/eJZpFLEmwTOQWcbkMk4SNkxLF7kIJt2EIvHMTZuo7srjnTGxuR4GlYsge6eGFKZLGKwYNvA1JSDRCKG0THbp3hxNQnmMggYBAwCBoHaIOARBM7tDizbVUuL8JKpnStR3omBU7Mdc+/xotqYwjBOdb5jwY5nXNU2/1HVjDjitoOMlULcisERIZKVtJZFNTd5hZYVE8HlinUHFjOwKBxsSau1kk8nJipyXSGzykuWxvH2d+7Ap/9pD7JCGChaKAhtOCKFKTGZl6qnHRFq1MIzXcZi+6gMZ71ToibP2i2IOXEuidly2PzOci0Htp2G7diIx1oFM5sIEQ9PMMfsOJwY2+sKNFbB1u/Ubnj1yFoWkpaN97znlfjil57ExJhHHPisAOT1hPAglzgwP8LGMpkxtyPkB/mR7WP+TJVFe7eF19y7GU89cQoX+jKSRsWqkxWI4cSybt8jhhg1GtJPxJirfxejLPudeEmTiFNcxoDtNtitAzKCzV2v3oT25Wvx1HNp2VbRnRSODGmSaHzki5RLIsSGEvMEdUbyO/vEazsLdTgOOUayUh+3bEMQajMlmFwNAgYBg4An59/4ls97Up8TvTspywf/cDXgHlVw5WzuynEFT4BbVPqK+HLJBVerNgWZLStByYyTPwWKzPL6zxN2Xjki67QOufUnn3PzEBHpuHnKetgBbrltNS4NjuHIQe7tcw8/tKIioPJX/g8lJkpRBAXhKPk0bp6ukFP65EHofjh2Dh93nz+fzl1Du+3XZyQ3K4YVK7pw3fVL8P2HD4vQy2OjFI21yxM3f9kkUv7quD3gIsNvy5a34robV+LRh48gK4Lf7dZ8vV1i4VEoj3Awkb8HlDJ6XSZtcOtJ8uUSFre8eCKDN79jF55+cQQTUx253gu+bIKPjjFfbfzpfFTUh3f+V/MCGwQMAgYBg0BtEbCeeupUiVk3cCsnXXR1W6JynkzjOs8VYioUdPfYFWO8qBX3i60COe7d0Ke0RtQgaLrFizswPDKGdNrVOIhau5ANiMCudN+aOfmUJiLURMlShUvytWx0tLcinrQwPDwpWpqol9RN0yvF87pF68xtn5b2BC5fnoyabcXp/PWIxy0sXNaNgeGMWzMfwao4Y/OAQWCeIOCfq1Sr2uxN1zlf29HI7boS8a/W+LGyNvXKMptXK8+CfHKK4PzieVo5fsGd1yvkk8lWfeCpgnSqrpZUXBXnRGfuqbA8yjU4WJeZ5FGsDE/R7qufUxGB0bqF6Upy1IlKC09DUKu1t0sQ8vSOfckRRa8G1yCyNuOqXN+Z+waB5kHA1da6Kr7mqXW5mrrbu4Wa2HLPzM39KxP/amBp2R5ByK/Ha8YVqlFfk4dBwCBgEDAIGAQMAnVAoGYEQfany6weNY0yzVLt1T3v3FrVrEzrMDxMEQYBg4BBwCAwXxGYRhA8E8XIePhJAL0Ojhw5gjVr1uDYsWO46qqr0NFBY7X85ScDp06dQiwWw+rVq4uSCaYfGBjA8PAwNm3alEtXjnxEbkCFCaMQnwqzlOTMt7+/H4lEAgsXLpR20t1wbGxM7nd3d8u9StvNPEZHR+U55hGPq5dDXvXnVwWyD0+ePIkVK1agra2t4vJm0nbzjEHAIGAQMAg0HgJ5guBZpT/++OP4l3/5F/F3L7eip3D/lV/5Fdxzzz2SdHxsHH/w//4BfuM3fgP/+Z//ibe//e3YvHmz52pIr0MbD3/vYSxbvgw33ngjHvzag+jo7MD999+ft4qnW2NAO/CjH/0Ihw8fxrvf/W60tNC33vOSoDugeDO6Vgx+QefPQ39nffk97G9xp/RcKzVPptd89dmnnnoKg4ODuPe19yIW9+2+e3Vm3ppWtR5BTYm/Hv7v3/rWt0SI33333ZLHD37wA3z2s59FezsjN7bjve99L7Zt2yZ14n222/98sA289/3vfx+f+9zn5Pmenh7pLxI3rRPTDF4exHe++x3s3r0bS5cuxV//9V/jZ3/2Z7Fx40YhFOYyCBgEDAIGgfmHQAFBYPP37duH7373u8hkMjk0lixZgvXr108T3BRIV199tWgAeE1MTOALX/gC3vnOd2LPnj245ZZbcPnyZRw4cEAEFAXOP/3TP8nqlOSBgparYmocnnnmGXl+2bJluPnmm+V3vXp7e9HX1ydkgwK6q6tL0t51113y+eKLL8on68O8qG3g87JijsXRe7JXVsM33HCDrNJJNtgm5sdns9ksrr32WrS2tuLZZ58V4Tk5OSn1p5aDGozFixeLcP7MZz6DkeERITVbtm7Bvpf3YXxiHBs2bJA2njlzBq985SsFR9WMsP5sM3GgUL/uuuuEgB0/flyE8t69e6XdbCOF+NatW6UtJAj79+8Xof7Vr35VDJm2bd8mzxL3n/zkJ4LBwYMHBedVq1ZJO/k3BfsrXvEKPPfcc6LVIbn493//d8Fu+/btoiUgRrt27cLTTz+Nr3/963jVq16FN73pTfjzP/9z3HTTTULGiMHKlStzpGz+vSKmxQYBg4BBYH4iUEgQbAcnek/gqaefzq3KCQsFD4UahZauZhWu4BbDyMiI3Pq7v/s7EWwPP/ywCD4KMm4R/Ou//ivWrVuHN7zhDXjkkUfQ0d6BTDaDF154QYQl0//iL/4ikskkxsfHsWjhIhw6fAgHDh7EnXfdhf/94Q/jF9/zHnzve9/DG9/4RlHBU4gyT+b3a7/2a7Lq5iqcQv3HP/6xEIGjR4+KgH/55Zdl1X3fffcJqaC25F3vepcIxMceewwU5hTsFKC//YHfxv4D+3HixAn893//N/7kT/4E3/jGN6RMls08KeRZNuv/2te+Fg888AA++MEP4u///u+lDiQbqVQKt916G44eOyoCm2SAwvtjH/sYfvM3fxPf/OY3ZcW+aNEiqRvbzovaHNafQpukjSv/S5cugRi/9a1vFYz/8A//EF/60pdkK4f4sXxqAc6cPiNkgtsVJGvMg23YsWOH4MF6P/7Y40LmGKmSBIRtuv322/HHf/zH0l/ElRiSXPCqdHtjfr5SptUGAYOAQeDKQGCaDQIjBKrKXpv4wx/+EJ/61KdkVUph+vrXv14EWZAkqOqeAozC75d/+Zdx8eJF/PM//7NoIH7rt35LNAzXXHMN7rzzThFKFGxcQXMFTq3C3/7t3+LWW2/F0NCQCGYKUpZ78PBh3HnnHfjYRz+KD3/ow/j0pz8tq2iuzEkIuNdOEsP6ffSjHxVhztX/P/7jP8pKmMKNWyELFiwQlTs1BhSOXFWTDLCu1JqwrqwT09577734h3/4BymfmgYK/SeeeAJTk1N4xzvfIZhw9U3BzpX5z/3cz+ETn/iEkB+u7vk7NRY/8zM/I6t6aj94UZPy8z//8/j4xz8uWFMIkxTpFoHiSoJAjJie9b3j9jvwtQe/liMIrA8Jwn/8x3/ISp/bNmwHNSfsH2K3du1a2e4hObv++usFW7b53LlzUjeWy/ypGfmFX/gFwfMv//IvpX4kU+yb3//935f8DEG4Ml560wqDgEHAIBAFgUheDBRiFP78fPLJJ0VYUhVOAbp8+fICwzcWqgSBK0+q76ni/vKXv4wPf/jDosqmKp8reK6KqZHgSp6rVRKPBx98EL/0S78kq2UVSD964gkcPHQQd9xxJ/7+7/4Of/1XfyUEgUSDwptCjNsHXMl3dnaKICdB4FYDV9dUnZMYUBDzN67CqQngKpxkgPv0vDcxPoHzF85j1y27sGbtGln5U0CTLJAMUFCSTNAAk6tt4kDV/h133CFtoqaFZIW/v+Md78Cjjz4qZf3Zn/0ZPvnJT8rqnUKZ/973K+8TzchHPvIREeqso/9i26nRIC6/+qu/mlvBU9hTC/Gae16DB772AP70T/9UsCVBoBbkQx/6kHxu3rQZS5ctFc0G8X/f+94nedBg8QMf+AB+5t0/g6efeVq2G6gtYP1YB5IK9hM1GsSVWyW/93u/N428RBlcJo1BoNERaB5f/UZH8sqr31yMjbkos1TPWU4UH0MvByalRoB78hTqVMdv2bIF1193vRvjwzPU4/49V78UWtzvpyaAe/5UgVNYcWXKfXraIFCdzlUu03NLgUKWq1y/xT7V4Sx3w8aNePyxx0RdztU4yQmF2AWeHrl0qQhmCn2mfd3rXifk4aWXXpIyKcC5gqaNANPzWe6t8xmm4z2SBhIGahxYx/e///0iYPk3NRRMTxsHqv1ZHlf1e57Zg7HxMbnHNlFrQXsKkh0KcmKmdgYkFiQi3KKgNoC2CyQ6XMWT3AQvpmddqfbnRXyJPYkVtw7YB7SFeOH5F7B+w3qp26FDh6TuvHbu3CkkZ6B/ALfdfpv8RpL3g0d/gMGhQWkr28W6kviRPDA/2j7svHknzp0/J+W/5jWvyZV/5U0DpkUGAYOAQcAgEIZARQTBnwFJAAU/V+ZBIzYKRRrSUchTg0ChxO9qcc97fut4fmcaqvglnZwKlCccmgfT8VmSCv5GgcnVM0kAhTgN9Kgap/BnGvUioJDkpc+xrGQiKWUwP/VeoD0CVe9MRzX9r/8/v44kT0/0nQnB+ukz2r5MOiMnXvrb0ZJsEdsK5s3fiQnbR6PJrJ0V4sS6k1SQzKjdgR9j1lOx09+Zn3qYME+tA8tQzwY1MOU91f74jT75G/HT+iou/E3zy3lH2I60TQmKeY0MAgYBg4BBYH4gMGOCUA6eChQTJbMKc1dUYcUyKNS4kuZ3bleECVp/XYL76HpPBTiJjxpjRnXx0zyDbS5WFutPIc6yuIqfyf6+v95+24VyuEe1I2g0VVe58WbuGwQMAgYBg0B1EagqQaCwppqagloD8viFZzaTRTzhagv4u65Yiwktx3bkWGVdGetK328gqStdqso1sA9tIGg0qJeuxPU51Szwvj6vddLfWLdgHIRi0JciMf5nignvqEI7WH6YEC9FECotR2MlVHfImdwMAgYBg4BBoBkQKEoQSq26izWMbn80Auzu6sZUagorV6xEKp0SwkABzv1+GvRxn57CigKdK2iqzFnegp4FGB4ZFut/1Q5wT51/06uB2xlceTM9P6k5oIqe37nvTvc9bjVwy4FGjiQJLIeGhKdPnxZPCj7Df7xo0Mh/tFngar69rV2OZaYbIutIkkBjTJZNDwG/mr4anWtW6dVA0eRhEDAIGAQMArVAoKoEgRb7jGPAOALcw6dwff7550XAUzjToI8GhvRIoNHg2bNnhSDQloEuiiQDNFRk8J51a9ehvaNd3AOpEWB6CmoaPjKyIoU4f6cVPvOgWyFJCMuhcR+NImkHQOO/JUuXSAAkxkGgVoLW+yQFJBGbNm7Cy/teFjLBPGnEyPqSDJDwUBPCtG9729uE0JjLIGAQMAgYBAwC8wGBqm4xUGBT6NONj8KWgrq1pRXdPd0Ss4BC+tZdt6LvYp+s4inwNVYAvSFIJkgq6L5IWwIaF/I3PsvAP61trRKDgPlxxc/y1BuCZVJTQOt+/k63xyefeBL3vOYeEfIa2ZHlMqIh8ybpIIGgNwYvkovz589LcKb+gX7RhpBEkMDQsyLMvmE+DBLTRoOAQcAgYBCYfwhUlSBwBU8tAl35KMB5ccVOuwNGTKQ7ILcAKLApzKne50qdWwQU1nyGApwkQW0U6NanWwvcqhgaHBKrelX3U1NBQqAue2qdz9/4na5//CQh4PO0NWA9/TYG6hmg2x2sH+vBMrgNwH8sp9I9/Pk3nEyLDQIGAYOAQeBKQcByKMEpyENaZFXYSqdYJr7fGSpB0+mZTLnbDl0b84UG85Nn/XXy/gie/GzbrncDjQxjsbBW8GCmwsYVlEUXSzn8KZ9mWnrf41Fw8te7VPqo6bT4StIHu6cR6lEOu5m2r1y+wTFfLn2t6lFJnzRKnRulHrXCrlb5VvrOVjLmrvQ+qWX7apl3JX1YSdpK6jyr8Tw5nnYcT/DyUy+Lwto3okVghs6i4cXzV6bnI8yr1OVY7iHT+bSlRZft3XbrOD1tXrA7YN68JJU0wK1UWAm5euTaXrwerHG+feXFi2JcrM55qN18pc5F2lfAkQqwK10PrbObdxhyPnLmta/ietS0zuH9HcQu2jjicPCPu9JjLtd/HnbVGs/ue+KN0bLYuWMj/66U6e8K3qtmH8+x8Mkp102FY7/0OOJDduQ+qWQcse+iv9+FfZKbxYoOvcL5q8x4Lpifqz+Oos0bNRzPkd9tV9RGnZ+Ztpz8me387M5f5WVK1HpUNscExvOBw6MiT0vVJ8aJy+FLE5auUt4TNr49iSxZlQcmlyQsvfzmuMRB6puffGPegzwcOpyzzKAekers8T1hWRHbmKc1pdkVM6wkX4W32vVQFhg138h19rCLhEclWMygTyLXuZJ6+Jh41bGbQT0i1WEG2EXqvxnkW5PxXMs+MeO5cEKr1RitJN8ZjLtcIyLKq0jvlX/clcvXP47KyZSZj2dr4NK4J1IDstknQb11NyhYp19FFBj+9pXRIBSoGMoCWa6xWhi3EfxqkDwrk3ZMq1Mw32qCXq7OBZwzz5FydSwxWPzqmQissyS58lejIN9qYuF7GeVr6ZVOAV+c9dgIjN7IpKZwHJUleTXDLliPWmFXbnKa4XjOvXdzMJ6VSOsQiDruyo65gIq0XL7+V6ls3pXg7KtHlHwrqYcZz76JY4ZzQdk+Cc6LFcy5lcyjUerh629reHi4nPgOpQXmR4OAQcAgYBAwCBgErlwEDEG4cvvWtMwgYBAwCBgEDAIzRsAQhBlDZx40CBgEDAIGAYPAlYuAIQhXbt+alhkEDAIGAYOAQWDGCBQlCCYo0IwxNQ8aBAwCBgGDgEGg6RGYRhD0EKWoRx03PQKmAQYBg4BBwCBgEDAITEMglCAw5LD/SGWDm0HAIGAQMAgYBAwC8wsBQxDmV3+b1hoEDAIGAYOAQSASAvOaIAQPbIqEmElkEDAIGAQMAgaBeYBAJILA0wz1oo2C/q3f/Z/NhNnY2JicAlnOINPffrav2ulnihnrVa4uM83bPGcQMAgYBAwC8xuBSASBRx8/99xzWLt2LdatW4czZ86IjcLq1auFLBw9ehTLly+XI5GDAlSFmApZHrfMZ2cq2Pz58bvfVqJSgTk8PCxHS5e6Tp86jWeffRadXZ2466675LjqcnXn8dUXL14UPB5//HHcf//9csR18GJ9jx8/LnkS21LXhQsX5Fjrq666SsqfmpzCM3uewR133FG2PvN7iJvWGwQMAgYBg8BMEIhEEPbs2SPCKZVK4cYbb8QjjzwiRIHC6dy5c/iv//ov+d7X1yeEgQKsq6sLra2t6O/vx86dO+XvgwcP4tChQ7j66qvR092DZEtS6kwhz7yZPp1OSx6JREKObOZvvMe/KXiXLl2KY8eOyd9DQ0NYtmyZlMe0CxcuxPj4OBYtWoRk0s271BWFILAstoF1Zt5s45LFS3Dp8iWpK4kRhfeCngVIJBPo7OzE2bNnceLECWzfvh39F/ux+arN8hvv8aLmgnXctGkT9u7dK/kTHxKuS5cuob29HYODg1iyZIm06/z581LOwMCA5ME2nzp1CidPnsSdd94pebPtfRf6sGHjBsGFF/Nh3nzmuuuuKweHuW8QMAgYBAwCBoEcApEJwujoKKampkTwUqNAobx7925ZIVPgrVmzBhS4FKQUXBTyK1asEIG67ZptWLZ8Gfbt2ycrZgouVe+3trTCilloa2sTEkJByWe4sqdwpGCksGW5JAj333c/9h/YLwSBmgz+xpU6n1m5cqUI0dtuu02Ea7krKkE4ffo0rrnmGmnTN7/5Tdx333146KGHcNNNN4kgZ9s3bdyEg4cOYvHixdJGCmwSAKa7/vrrsWDBAtFEkASQ5JBY3XvvvXjhhReQiCdw9txZ0STwuZdeekk0BSyvrbVN8l27Zi0OHT6E22+/XXDu7urG4SOHBQdiTsJAwsJ+GR8bR3tHu9SLv5FAvPnNby4Hh7lvEDAIGAQMAgaByggCV/0U0lyJUhhxhUoVOoUhBR8FNe9RcFFVznsU7iQCFK4UkBTeFGJMQ6FOAblq1aqcZoJaAgp1fk5OTgq5oIBkHtzCYDnUNOy6ZRd6T/YKwWBeFJBcjXMVz5X9hb4LOY1Fua2AKASBwv7ll1+WVTvJS29vr5AW1p914vcXX3wR27Ztk9U/20ZBz3+8T+3LzTffnCNGogFYukzwfM1rX5MjTdROXHvttdJG1uvy5ctSJrFlW0mCSB4o7Ldv246Tp04KViQSrBNJx+bNm0WbQ2LAZ0m6ePH+6173OjPsDQIGAYOAQcAgEBmBSBoE2g3o1oEKXcd2wP9RoOWMFmHJb/I37Rot16DPb9io+agtggowkg21YfDf8z+rrdLfgul4P1jPUkhEIQgsg/94qb2Dvw2Ch9dWLd+PCX/T+vJ35qV/0y6BeSm+fnsKO2uLZsV/8Tlts79OftuLYnYYJq5F5HfCJDQIGAQMAgYByq7gcc8UQsFASX6vBRWCil6YQAp6OpR6JugJ4RfyUXooSCD89amGBiFY92C7i2GjZWv9gun8xCFUqPsIlpKKIAEKEoOwMrScKFiaNAYBg4BBwCCxvbh1AAAgAElEQVRgEMgtxqMSBKq5aTCoxoMUWlSj86JFPQ301DtBNQjUJuQ0Dp6rZJjQLiXIw4Se/7diQjFKF0fRIETJpx5phC84RNQGrBgsx6ddsHg374o6vT6FmoiC+/KYBceyYcNCnGofcxkEDAIGAYPAvEcgkgZBjQu5p01vhW9/+9tiP0CDOe6Df+5znxODOxIGGgnSJoDfuWfPvfaNGzeKLQHtBA4fPiwW9dxPz7EUqumLXDQ+pEaDe/d+1T0JCq37uS1Bewfu9weJRrU0CP6qFVPhV+piWenI4yYHeYAFG44VC3k8TxDcb37CYJUR+1l3PwhM536ayyBgEDAIGATmNwKRCAJd8WisRw0CjRBp9EYBv2vXLjHCo6CmgRxdAtevXy8GfBTqYoXf1oYdO3aIgN+/f7+QBO69U7DrHryIM28vXqzwx8eFUFDw8zlqLZjnhg0bpAwSEBpLfv7zn8erX/1q8SRgXuo+yE8aC9IFsNTeexQNAokIvTbUFZPtomcAy1ONCcuiN4baXPC+Pw3r799KmcmQm8jaGEhlkHb8ItyzfwijC56MF+VCiYvJ2mIOlrYxX8anCCMfM6mxecYgYBAwCBgEmhmBSAThJz/5CSYnJjE5NSkrdbo7UgjfcMMNQhwooGmZPzo2iq1bt4rnAgUrrenpAUHrfMZNOHDggHgoUHhS2JN4UOCSYNBlUF0gKUyZjp8UrkxDF0iSBuZHrwj++853viMulHtf2ivajKeeeko8K9T3/5577pk1QWDbSGzossh6st5HjhyRupEMkTTRe4G40HuDf7Pu/EdXTT/hYV4kNtSsVHpdnMpg76UpTNjcXgAoxr3dAcC/3ZBTy3jMIOyer3DeXpLM4pXL2t3thRLanErrbNIbBAwCBgGDQPMiEIkgkAxw5U/BRkGoroiMTUANAe/zOwU/hTgJBDUC1ABQG0AXR95nOg14REE6PDSMTNZ1CxwdGUVrW2vuObXYZ35q98A60KWQsQQY64DbGfFYHLZji1aBApj5shyWz22Q2WoQqLngtgjbTdLD7RFum5DsUJtCEsR6sJ50QSRZuPXWW0WzQhdIXsSDOBAfajyYttKLBOGFyxlM2QnPayKvGnB9LGZ6OViaSGHXsi7ERd1gthdmiqR5ziBgEDAIXEkIRCIIaghY4M/noaDHNMR8Lnn59PlzC8J+CwIZto/vf46EgwGbSALUxz+sM8K8KMLSRdlioHCnZmPlipVIZ9ISX4CaApIWkpolS5fg+eeflzgELJdbIoxhQELBi3VlvRnLgdsjr3/96yWPSq/LqQwODqUwaccQc6g/cGmBmCfOUqb3JGzctKQDMb+/ZqUVNOkNAgYBg4BB4IpCIBJBEEEkTMBdYdLand/zam4Kq5i39vRiIPAvB7Bj3NkWO3komShmPFjKANCPetAzItgj1SQI+ba7pQRtCbTOYe6O/nbSjkHDQM8kJkHWcTBpA3YZm4KZjE5yu86426dGgzATBM0zBoHaIjAbb63a1szkfiUjEIkg0KaA6v2dN+1ENmbh4tSkBERa1NqCVlgYSmfgxGJYEE/kSAJXtVT9U+zE6ZZXBdV1tV+SKBoE7fwoZdfak+FKHoimbQYBg0BxBKLMPwY/g0C1EYhEEGhw99CD/4l3/Y//gYlYDP/x0j7cvGoZ2tvasLilFc9evAQkYrh+4QJRU5MWcC06lkphZXs7FtCKv9o1r0J+UQiC37uC3+m9wC0D1QJQS0AvBl5+zcBMtASlmsQy1LZimsYEFjo6OyIdUFUF2EwWBgGDgEHAIDAPEIhEEGic99WvfBXvfNe7MBK38JmXDuCVy5biZDaDRNbBxckpLOjqREsqBaRTiNFwMZXBcCKOG5NJ3LlqOaYfdjz36EYhCNwaoNcCz4bgyYyM6cBDk+imSbsDEgHepxEmiQNtE8iOeDgVjRJpg8B7apMw01bT+JGHONEmIngxf7qSRjmgaqblm+cMAgYBg4BBYH4hEJkgPPbYY7h7926Mxyz8+MwZbF+8GN/tv4w2h8qDGJZ1dOLS2DhSdhqru7rE3uDQ6BjuWNCD7Yt6xA6h0S66Tur5D8XqRoFMd0zGeaChIV02SQjoybBly5acsSRJFO/TzZIXBTq9PUgM+MxMDBP9dWJ+PPmxGEG46cabxGDSXAYBg4BBwCBgEKgGApEJQta2EU8kxHY+zTDLcDDlmc/HabBoWdB4fK7xooUMHDAYczyWpweNtNUQhSBQMDOSJAU/T7FkvAbGWeBWA40OGd+BXgx0XaQbKAU4V/J8jlsCDChFd0hqEmZzGYIwG/TMswYBg4BBwCBQKQKRCIIayDheEB2eCSBMQeW+hADm3/Rw0Ksw1K/+2kiahCgEoVJAa5We2xUkJH63T39ZdK/kVoO5DAIGAYOAQcAgUA0EyhIECiQKJxoqdvV0u26Oji1GiPRNEBdGOShAfACn+eTT2yF3LICVd4asRuVnm0cUG4TZllHL59Up0Vg41xJlk7dBwCBgEJifCJQlCNxbp5sjwxi//R1vQ8qK4fFTZ7GkJYlrli5BuxUD/+fE6L3AjQUqF/gZQ18mi2w6hSQjHba1IhFLCMrkE+62xNzqE6IQhLAVuz++QbH7ekRzuQOjog678ayNixNp0F+CqC1qiaMnGZetHV7GxTIqkiadQcAgYBAwCERBoCxBEIFu2/jKV76Cd73r7RiNJ/CJA4fx6rVrkJ7MYGxqCsnWFljpKfSnskjGE2izbIxmMhhMtMCamMSmpYswMjSCbMbGwq5O9I2M4Z6Nq7CKFv9zeEUhCLQjoO0BoyPyHAWeLskojlTnM0Q0oyPS0PHkyZNYvGgxVq5aKbYHjLwYT8SnnTA50+b+4Mg5/OZnnsKFIQcdSQe///ZteO+d25AkQWgkw46ZNtA8ZxAwCBgEDAINhUAkgkD3va997QG8/e1vw1g8jk/tO4Tbly/DpXQW5yYmEG9pxYpkAvuGJ9CRjKPTsjE1lcHiFcthDw7CTsYxkUrBQhxt8QTs1BRuWLsC21uSVROgM0E1ig0C09BjgVqU3bt3y8FNNFK86qqrxCiRoZ95aNPDDz8sBok8/4FnM/AgK5KIamgQuJXw3SMX8Cuf3oNzlxNoSzr4i3duwq/ftdUQhJl0vHnGIGAQMAgYBMoiEIkgUH3NQ4tWrVqBtBXD4aERdCcSEgNgKpMFEnHEbXo12HJ40v7+S1jb041Vne0Ym5hEa0sSY4y26AALWpJwMhl0trdhgXo3zNEKOApBoFcCCYFqEPjJQ5noxUCSwHMaSAyYFw+l4t8kBTfeeKN8VosgPHz4PH7tU0/j/GULrS3An71rK/7vu65G0ncGRtneNgkMAgYBg4BBwCAQEYFIBCGfl3omFJHonj2iODhYjhxLLKcwBLXgwfME5oggcPVf7uhlkqOwcxb8+AbPZ1D7A6apVkTF86MTePJYHyZSWcTjFm5YswhXL12AuCEIEYe6SWYQMAgYBAwClSBQIUEonbW6ODLQssh8L05CAUEIO2xojgiChkyOssoPHsqkSPgPhgpDJ0reUTvMFvNP14OEZ1vQOLQaZ1xELd+kMwgYBAwCBoH5g0BVCULO7c6Hn2dj35CnBDaf5b8/ygSpwRwxq/nzfpiWGgQMAgaBeYtAVQmCH8VcaAT5kXsPnjBrIJnWfARh3o5T03CDgEHAIGAQqDMCoQSBYYNnu3dexlqhzs00xRkEDAIGAYOAQcAgUAkC0wgCH6aFfhhBKBbmN6zAUIKgexCV1NCkNQgYBAwCJRAopwksd9+AOx2BmUZnbQasZ9o2P0pR2hklTZSxV618tKxK8gslCMUqXQlBiNJwk6Y4AuWMH+uNXan6lIos2WjtqDduc1VeGO6mL+aqN0y5BoHmRMAQhAbst2KeD7UiaJV4WgTrEHzWf7+SfBuwGyJXqRb9MtsxUGvsa9HmyIA3YMJSeM9nrGYyDuczXo02tA1BqFGPzOTFqFFVTLYGAYOAQcAgYBCoGAFDECqGLNoDsyEI5Q6IilaD6Klmwtijtq/ebYne6sZOWaxPouLe2K0ztTMIGASaAYFpBKGcAUOpqIJhe9FRJrRSRiNRVNb1mkyj1DOIQZT2N8NAMXU0CBgEDAIGgfmFQChBKAVBVOMnFYxRVqfl0kY1kJtfXWdaaxAwCBgEDAIGgdohELrFwDgIdHU0q9/aAW9yNggYBAwCBgGDQCMjUDJQkiEIjdx1pm4GAYOAQcAgYBCoHQLTCAIDJFUjkmLtqmxyNggYBAwCBgGDgEGg1ghEIgjpdBqZTMZsOQR6g2QqmUwaXGo9Sk3+BgGDgEHAIFB3BMoSBBKD8fFxtLa2yplLgO8YJsv9qYHOX6orgDwumgSB/8xlEDAIGAQMAgaBKwmBsgSB2oOpqSl0dHTAsSyMWkDSsdAGB5ZjwbGcHEHweyOUC+tK7wb/eQ9Bd8agu6X+XcyvvpS/vf/ZMI+JYF3173I2GMSGbaBBp7kMAgYBg4BBwCBwJSFQliBQgyAEobMTey+PYO+lASCVwhu3bsaCOHUHDg4fOoqenh50d3eLSiGeiMO2qWkAVHCfP38eCxYskDQUqNRK8JP/NA3L4vfOjk6MT4yjra0NLS0t4EqdwphXKpWSZ0lYmBf/5n0+x8+RkRGpS1dXl/w9OTkp9wYGBtDW2oaOzo5cPn19fVizZo3YXLC+THf+3HksW75MnmU+pUiCbrsYgnAlvRKmLQYBg4BBwCBABMoSBApmCuG2zk48MTCEYcvByfMXcf/mddjQ1grLtnHi+AkRpJcuXRLBumrVKgwNDYnAXbx4sTw/MTEh2xQU+CQKZ86ckR6gcB4eHkYikRCywPIWLlyIU6dOYcOGDZIXn6UwpxAfHR3FokWLhBwwHYkHCQPL49+8z+co3JnvsWPHsHTpUnm+s7NTiMXY2Jh88lneU4LCrYJz585JPpcGLuGmm2+SdMUuQxDMS2QQMAgYBAwCVyoCkQkCNQjnplLYO3AZ44kE0uMTeMP6VegEcOrUaRG6/LdkyRLROFBgkwxQWF+8eFGIw4oVK2SFTwHM+/xOYjE4OCikgb9zxU+1Pe8zPQkGBfGRI0fQ2tKKTDaDlStXSlnMm5oB/iM5YR4kIyQQ69evFwJAgrBlyxYR/LyvJIRk5ezZs0IaSAxIJkgWWG57WzuydhbLly+XupCY8B/v+7dFDEG4Ul8L0y6DgEHAIGAQiEYQplLo6OpEVrYMgKzj4Mm+flzT04GV7e2YnJjM7cOr4R4FNYUpBTEJA4kABbHaA+i2AP+m8GVaahH0OzUJ1AZQqPM5JQ7sMqYjKaDAZj58hvlfvnwZMSvmkpGVK5DNZJHOpKVuFObxWBwOHHmeF++TcHArg/Xl73yWeTE9SQg1Fawb68l0/ssQBPMCGQQMAgYBg8CVikBZgqCCUrwYZFPCgkWWkEzAggWKXL8fQ9CYcNoevkMzBadgb79a5zswn1JnSQSND8POVigVGjp4zgLJBMmHEo4rdZCYdhkEDAIGAYPA/EOgLEHg6pwkQY34FCJjmOcikYgnEIvH5t/IidjiUgdcRcyibsnqdehXNRvkxzfKwWbVLHs2eQXJfDmPodmUVY1ng2NDFyKNXO9gnRu5rv4+apZ6l/Kcq8aYq2UeUeeKsgRBX2T/3nvUiodNXs0ySKO20aQLR4B9T+NSbt3QYJRXkCzMZEzVEm/1gqG2jPWmfYqOV/9nI41h1lntfUjk6b2jW2Kuws8S3BuJ0HNrb2R0ROrk9xZybOoW89rFRhofXCBxm5N4clyrhxOx1XryXqOMDdaLxtu8uF1LrDk2ZDuWjule8JpGqzO3lRVTjeqrHnE6lvl7Q+DsAKl0SuzXOGew3sS4kec6lee0+2OdOTY4z/m9CQvmuuHhYQl/pJcJtVxLETR/8uZL3d/fL5MpjU354tMoVe1S1E21IV50r1tYZxqz8pPbRrQ/4YukdjF8udR7phF60v+yq8EvjXp5XbhwQdpAg1sK3WXLlhUY2M5l/UkKWD+SMPY/bYkofDnR8m96NnHyov2Rkpy5rC/Lpj0Sja21frRH4phmG2gjxTHS092DBQvdOs/1xbFBmywNdMf6ktTwneRvxJjCgQbfjRINlvXh+6eEi3WmwXlvb6+MZf5N0sM6B+3B5gJvtZ/juFBNO+c6EnbOexwrHMfEV9/Luainv0wljjTgJynQgxlZRxr685P408GAdY6kQZjrRpnymxMBvig0UOVA4ydfGl3d8sUh224kgkCUlRBwEqWAouDlS8O/M+kMWtvygmuuhRdfdgpbTqokXJxgFy1cJIRgdGQUyZak/MZ09C5qlBU5saTw4sXvrBsFrRoic7LlBCVxVbxLV4/F/q71G8K6kRCwHqwfxwZJg67AeZ+TrWrLal2fKPlz7LL/OUYoYLlSpIBV2yl+p6eWX7s0l+8jcVVSw/oqSSepISFgvVlnEko/QQizO4uytVluK6PUlmPungMMXBrIkRcSmonxCXkH1fCdafl7o1xTk1PoH+iXd4z9zbmDn8RWSRixp1dhWYLATmGnaaCiRmlkWD3mcnCzPsUGVCNjVu26aTRuhsmy7SysuIW4eIEANlXdsRiy4nXiGrw2zMWK08jVU3GzrjF6vbANluvF4hKC3H+8v+euDe4Kxg0SRrUxx79/e0FVgw69hBrITob1EdNmbn/YDiyqjCXkmlgwy8Xv9EhyVeEWYhTMXh/wF/4tGpR6DSDirOPV8equ9eXv7APWqU71cWEpHHvuOHBtxgkVcfbHwSdm8oMLNmzH9R5j2lxOc/lOcjwLjro15lXVsWWMuFtQ7uWf673mFCAvzcgPp9Be8aMX1m8uFMH3uzClzAuss7jDe9tN3jzCZ7VPGoWcs0WuPSHnYNrOuXUXrBy+l7pN5ralLEFgZmSiZPqNfDVKB+h+WSNjVcu6jTsteOTcFC5MZOWFjsV953XI3OS+NI168QWJ1W2anx0KRDErkxLr3DxXNuvWeS5lUVS0dKS6k//ckcGo9Q2ma6Ya54T/TBtbh+eCM5esK0hY61B2tYrQOSPK2KiYIChzC1PrhDVAVXK6jxuWRlVeYXmSmERxI2wUgtDIwq9aA6xUPi+PJ/HDY32476qliGUdtCQZc8ITBp5HbKPyA12huiut5rjS3vvRPDUGMnQPbhRDswjdLHol0XQ0E8puw1xNS4RGznUSiytbT3vQ4Mf/qR6Dix1qYcT1f67xi1y+u0Umc1yESldEEFyVRF5LFVansL0fGj9oRELud3Hvg1sWDKfMUMq6fcE9Php5sAG670sDFUZMJNFQS0ump5HFVVddldtXbRSCELmfrtCETw0n0XtxGPev6cLLB1IYHuFBVjoSQ5WBHhLBWUyfCfu9krTMPkoerloWcviY/81ppDr7B43bJlUTN4nSQ+rsn2Br/hr4rPVnVpaHc9aGFaf1/MxyqftT3pCv57bH7Nro2w9oaJB9cwm3aUSz1GDbpSU6gnzGztqIJaKN5YoIggjhwPnOuuqnFuDll1+W0MYU+jt27HBPgHQcMaJ66aWXJOQxrZdJBFavXi0GYfzkuQw0oKHRD8kB09DgZ+3atWJ1S8MJ5kUrZxIHpqXB265du3J7UYYgzO71rNbTTw21oHdgGLuXdODzD6Rw6EQnHEfdkvxCXweSf8Z1D/gqVNipEq/Y70HlXiV5hKUVsVuiHt4+bg6wStJqW2aTh7+nuJfYWKYc1RpH1cxH9lZnuYpWY8TZ5lPNdpm85hYBtVHg+Iq0HJ/b6uZK90xmItWmIoJADcJoJoNWL2QyzytoZVjidBoHDx7E/v37cc0114h1OrcFuPJXI0e6glDIkyxQyF999dVygBK1CRqISf3PmYaW7yQGJA3qdsF0tBYmQSDxIOHQLQ9DECL1d80TiQah/zJ2L1mEf3sgg/0numE5QrHzC/kQ6yDXaM2rnn8yL2JJ5ORtrbjod69iVkflfi9YFAQKz+XtT+TLUAuX2+7v/iPQXaWEp4UoqIevsQXt1iVv4Uol77juNyhTvGpnrFcrw1+/QWK1B2WwzrPZ9pOeC1MiVbvS8zS/3Ja1vDizZHFlMAwqf2ZSmuTh13DQINGzrWqKLlTD3ojbIpEIAlf8IsQtC08PjmDQiSFuxbE87mBHdxvGRkbxxBNPiP8nhTzdUKj+53YBLzVw5KdaWZMk6HkMeoASyYI/Pb9rUAzVVOi5C/ybeehVq4msKTq9gSr51Ai3GC7hVUsW43MPZHDweDft0WWWzcnBnESnpXVeIOaMxGWhrb/7G+dZaRcjA+WIgExCnIcCectMUcU95hpa1xdMcu5s5Xlf1GYQ1EzbW8bCfDatCda5UrlDgifj1Ruz5LfyUzPt48wGwDo+W9hXHsGutMOi1tdH4mUimMF2UY4geOxCswxdpEStVz3TeXNTVHkZmSCIMIeDYSeOB870IWnbeMv6Vehx0kinM3IyItPoiYlc/fOfRiDjlgHv0x+eREANDzVYCv8OagGUFKiho9+FS/2OlTCojYPfiNIlezMYBfXssCusLBKEE31DeNXSBfj8AxkcIEHgFoNvZ991cnOvnLAW90L9LcgAcqmrsgecL7OQfFTLSn02K9ZKh0MwPkClz5v04QjELcYPGAFiHL+JAldXg1ltEMjP1TNZ20etU7FVRNTni81NlTw/l2l5XlF0uVgBQcjAQRYx28JkLClkoYX/dWwcO3JUYiXQLoAaBGoKqEXYunWrEARqFmhvQJLAYAz85O8MxMBP3tOJjgSCmgE9WZFhWds73PR8ltsLetIjtyFYptovcGtDT47kd7VdmMvumG9liwahbxCvWtqDr3wjhSOnugDVEvhU8Lrf4BfWlkfDwwU4B3V1Jo6w/HUxXg0+WUv1+bTxJIenNdfqNmDG1JCvSMIaxsqFJ3FprB3j6Q2A42ora7W4bUgQ6lqpQk+nWhSt77jbkd5iZLYFiVGzq/Gszuw02wqVeV40qNG1pRURhNw6TguR2ONAKuVG69IVPgU5tQS0OSBZUILAcK80NKSwJ0nQwC6Ms0BCcfLkSfFU4LO6fUBNAfNhGl7qyaD3lViwfBIFkg1GM+Nx0DSUNBqEGg+4QPZ7RpPYe6Yfb9mwGGdOTWFiqk1eHPc1ctk7BX3+dcpvwKvmv7jur1qvYJhWia5sbmNmq0mopypavKzE/a5a2NR+vNhZ1rmBjSsdC2dOn8QNW9oxNgWM24sBasFixLiYx3sDaio9A9amGRmuG1HzuJNKoDI32FRVVJu1f/WE4Yo7qVS5fPSGCghCtqD6peIg+F0d3Whv7omQ1ApoICF1ZWSmSi5IJGiUSCJBIkDhrjES+DuFP7UOJBfuRJ6PcKdlMr2G9GVac9UXgYt2El/ZP4DxbEKcARLxODKeqb0qACjPQg2G5niObcY4CM0YwCeTtRGXQElz3OFFXg1qRbOD/bh/XQfOj2ewL9MDm/YIrLPPPCb/eJgIzrdtLlqp/jLlRUB954dipUl9bc8ugBFBG6NaJWuh0WGboa7uysw1sBSCENHvoixBoOClkSIFb60vJR1hsRREi+PT74VZKgefa9QJqNY4zmX+HHrjTgIj6SycjI2WVh5kU+jAoHJh2m5gVWbSma6mvdC9EmK5KhWpSzfYjEoYb576EhQ744bOjbCAqQuGwUIorOJOFon0BGwkkE52IJ3NIM6w4QUxPWRWksf99m85x5bm6pY5wVoLdefunMtQA5BHB5bnoSBeCrkOLuxUboHHGca8Qcnu9E513PdPFuDlu7wsQdAVfj0MryS2uhdXXkKGh8QaDxIFbaIhA+U7u54pqDHK0iW2tS10xyBcyT/7Gs7UaI/Psc667TX7mtQnh6iRRutTm2il6AmIjfzOBsdROpP2DKstjGcy7mpXLeELrOOjYRA2cesZCeXN630W+MXK9p0dUuimWUoqRMi3oOJe+pwCpVjeXoIcdw9Pp9plIegFPL9MnXV1XLYforePJbYlY6Lp8jY+8p5VPgya9f1Tj8FyozUSQSiXSSX3y2kBlABoYBJ/3lG2NSqpS9S01ZrIwkhWtfKO2pZ6paMQoNaJhqJuG/Org3rVodJylCD4z0b35xG1r0qR6ah5RK07DXZZ32aKAzI5MYmWVvckuahXJWmj5lkunb8fBedEAmdGx3F4aBjtCfegm/ylbYnepvyz/tUzfy2ltA6mLaIsVm2rVCf47pUS5P42Ra1HubZrnv56hGwyFlRzpvUoRyaCfRaeXg+62rVqOeK0mXIYEXb6xXHRKMdllxvPKluVoEeZM6pKEIJbBELsvFPXtPI0OmQ6nlPv34imjQGBZuVpY8DwzLRF8OfJCIs8C1wvtVHgxB6VEUUBMZimWpPTfCMI7BcamOpFR9kMlzMNajWVpurNspCIhxwoVdG8X2YlNZNBWOSZdNpBMtFEhl0AJiZstLZWZoNQEfzVwNc7EVGzSqcZntbCEyfO4NYNq9DuqZXderlrTL38f4n49o33nEPPtDqGkY1iDQm+QOWEYm7GjIDMTOtRroeK5Rv2eyV18BMgkThl2hgtb9ojffvIGezeuAptibjbhyGhE6bSNlpbKrNCKFCOROiRaieZmmIMoWjG2FUlCFQRnT59WowEjxw5IsJeIytSsNNIkWGVGSlx3bp1OHr0qHgekBAwCuPOnTsltDK9EA4cOCDBlpgfIzLSfVHOX9h8FYZHhuUZulSSSLDcm266qSBwUrVBNflVhoBqENSglG/X3sOT+MfPDsJxkmVf48pKq05qmTrU8ns2/mwhkdVq6vpYoKGpDhZFc8m5mgSEVLl52Td1qy1ajWs6q+wdqrnlKF9P5FhA1srAXjaIj//Pa9AWdwlOrtkeK5imJ6tEls+qxubhaiJAi7tPPH4aL3zHAWhwjUQ+ImqOb3EMeMcP+AvXNZAODo6h3C5LnmnkhwYf8L9Avgf8+UqaCC9arn5BzY03wV9mBJIAACAASURBVOUYbLm8Ihz3HA66W0Jw7HPP+ctf/rLEKZADmqwYtm3fJt/f/OY3i1Dn4UskATxn4ZlnnpHfeKbCnj17sGnTJiEPa9askcBLVE+fOHFCCAJX33RdXLZ0GUZGRyScM/NlGmoaGHY5yqmPMxlExVTGs9Us1CrfmbSx2s+QIBRqEBw8sy+L//UJjpu8qVe1y515fl5oP++dyZ9x4PL9SvhCtfQHkk9JNbx7ymAka6OZA1OVJ/1tkbPoXSOjaHnXMDJl0QqooaoSBMdGJpZFct15fOaDa9EZdMUxBCFaXzZJKhKEjz56AU98rQtWlq7aLhHwb6a48tqC5R3FoLs5/F00RV5ikoMcQZBx4oZnzl0Ff3i/hsV80XSFCqvoiLJcIb0MShfh/aPnzvDwcIGc574EhXbp/QkHk7aNFy8NYsPCBbgwMYVW28GWnk48/J3v4skfPylnLTB2AT0gFi1chJ/9uZ+VFb6e3MgK8rues0ANgYZVzhM013BMgybp72wk9115T90hucUwW4FdDOlaCfJa5Rt9xNQuZThByOBDn8gi67SGMOF8JEUJh+yLmZDv9/xb5Q+aFBaN0R+4JDztdPnkkgL3dXAJQYDV5+CK8nuu1rMCeboMLRSq9TAeDmtAYdTL8k3Ug23Kp2yMFLlo3P7tgZiNlrVn8akPrkEHNQhFtAMF87fRIDRGh1ZYiwyAjz16AY8/2I14mjF7vAym9Wf4Uc+N2u2uJpNzrWtDE6xnEKYZEQRmm3VsPNU/iCcvjSDmZPB/bdqAVS0J/ODRR/E3f/M32L17t5zU+MUvfhFveMMb8L73vU+2BLgdoJMaBb/fxoCroRj39ryLRm785z9zgbc0vLKfEPC75k3SYK65RSCcIKTx4f+TRsamXUJw9Rgeatl9MVVoRycIYREaXcGfz0OOaZ0WHS//ykTJozihcPOuVvRH7c1inj1z29vRSq8VgY9W+uxTZS0bLevO4pO/swadQYIQURky+1qYHOqBADUIH3nkAh5/qAuJVGfR97jZxnQwRlE5LGdMEBgFJ20DB4ZGsbyzA8takuI3+uyePfijP/ojOY2R9gW0IXjTm94kBIGEgHYEtFEgsAxkxApTE8CtgsHLg+jo7BBNArUY1EBoeGXVFKjgYfpMOoN4Ii7EgORjdGQUnV2dWLJkSbl2m/s1RiDMBuGZfSn87/8zhazDQFfFCYJfkBdf/XukQRLn6X3hQWvu76F5iJ1AeB5+q++cMbj/gCnfYU/heeTBNQRBiZL0RI1HXW2zz1oOWtafw7/+9voCgtA/0C/zHI+55xzH82hUcND4mnOTnjWjkfeaTbDUFtnGy93dYjiPx/+zHQlqEMKq2EynOBaBuJwGckYEQeZkVw8sU2yMngpeIKMjhw/jC1/4QkF1aHz4ute9TrYDSBC4ncCoiTRG5ItCYUIyQdsEvkjcLqCNAl8uahCYll4P4xNuCGd6QvDZU6dOiVcD/2Y+tEug1TzDNptrbhGYrkEATl2YwiM/GkHWCbNB4L6cGgDkRUnQdifXqnJafr/uLEpajTBWsDU3ncR44s4H7jSztOnAc5NSNiVzlkqhPtV5v/pAhXOPTg9BmWWgpJCYIblKMDyw7J3M7XjwG/RlMhZicd/JnHNbtUilS5y4OHA6NoAPvnmLEAS9Ll+6JEbVtKHisfecs/Toep5oy3NquNV6/fXXY+/evWJQTTJhrsZFgN396WdPI9MbRyu3RL0w7CL7vJDb8lpK2HAaK9resc+FXivTbA9DInGGBdbyb19FyaMSJN33T41vS28yzJggCFC5YBw+g0WfNZcGPlJ7Bv5NwUEWTS3C0OAQunu6pW3UGKgLpB6yRBsFtVXQQ5ziMdf2gBMeCUR3N09bc20SeM7DokWLRBthrrlFgP3FidLv5ijjwTueOFT0+vb5cl/rKNjSqYwERvFvc1UHxbxLHw305LJ4wmXhFYwEqnfdZ8LdAqemUkgmE0Xj17s7NOV2GqvTypK5iFGUm2JqMo0kXceaKGLlVCqFeEsrHj12EndvWotWX/z9ifFxnDh2HKtWr8KTTz4pGgRqMUkW1q9fL+SAF+cqEok3vP4NWLBwgTsMohpq1qGLTBF5BEgQvnXkBF69cS064vRg8KHje3HTU6mci70j1oreMPfSF5ws71tLFGQX8nsYQfDttrqnvM+gw5jH5BSDfsXdCJBlrlkRhHKZl/L7572gui0YRKmc+qNY+ealK9cztb8ftsXgnsUyXUsgMiz3Znny09NO1XPlq0azzWTDkmKglgSPI64jk5rl8ElNTSGRTDZXnVNpxJIJPHKsF7s3bUBbPE/wOG54TgwJAL2vqD3gIuXypcvo6u4SY2z2D9PQ/ZsaVbp5G4Iwy4FUw8dJEL595Dju2bgW7Yk4Yj4XQ/+KPjWVQmsLzzUu9FrQqvnTFtMKVKJByOUxQ4IgBJ2LCs4ZDHdeZtqoKUEo1X+loiLWsN9N1nVCIIwgeKK/TjWorBi+4EoQeMBUs1zNSBCoXSJB4NZks1w8sZbRZR45fhx3b9yADplcp9c/N6/5XBn0N2oSqOWkfZbRcjZ2z5MgfPPoCbx2w1p0UNtVZKVCYUuCUM+FzGyRm5yaQgsJOsfwXGoQZtsQ83zzIjCdIDR+W5pRg8A6026nmTQIul3YTHXmeLaSLfj+8eO4a+NGiYNQIDTKzbTe8DcLo8afB1hDEoRvHDuBe9ev8whCeL05lqkxaqZL37+6h1quFCR6KbCSdGMMhkrmi0Q7BX5yH5uTCW0PuC1Ry7DKlbbBpA9HIIwgZLIOUplC47TCfbT8LDs9DFdtkWY9Mums7ItH2ZuLXhufcWL0hyKnTKfoBpw/mc3Fs5hVZuRsa5owNcXYJjw/IqJUrWltomWeSmVgJRN4/GQv7tniaRD8jzZPU6I1eJ6nMgTBHQA132KggOcZCvReuPbaa/MGHY6Dxx57TFY/y5cvFyNDfucnjRVJBvgsDRFp8MPvjJxIY0ZVzzGCIvf9zNV4CAS9GGh/8NLhcTzxLOvqJwn+mdXbWNPA53VulngE0EhRwuxq4W798nZ+6ongozaBtAXV9hlehh/u4/NsCGtv0DgjEBCeR2nHeJiMd3ZyMxCEbIZx4AsDVeUdThtT0tpZG3bCwoVEH/7gbRvRzjgIhiDU+Q2tX3GGINSYIFCgX7x4UfbcfvjDH6Kvr08IAkMuuxOug69//esSVplkgASCmgSmIXHgPt22bdvEsIeEgfcYuvli/0V5lmqdu+++u+nUO/Ub4nNbUpAgZBzgvx8bwWe+2lEYv6vAisdf55nY6M6uze62sWttL3HG5BQ3b0Xui+7oCvqQ+on7U5FLHvFECj/U2qj46T35jCRWq1ePgPmyzwDaTV8Uz9lhU82n88bHebxcyuiFgA0UxubT/6X+IyJYERvxdefwyd9Zj+6g9qMxeU01u21e5WUIQtUIgo0pBxhJZ9GVSGAkk0ZnPIE2C3jwwQcltgFX/a94xStEG3DLLbfkCAI1C4x/wDgHPMSJWwncPiBhIAHg/iq/M9YBP5mG30kaGPOALkRR9lHm1chukMZOIwhw8O0fjOGTX+lCUTkqC3ddA8/9jOsXScWMlEQm50RXiAgT6SaMQHqG+YSJumL5u2nzNKCifft8se6o8Ply54aJpgm7V6OxVMo7yfLFF8jV1yMINapO9GwlkuJ5fOqDq9EhNggeJytCbMplXMytNcpzFY2Dchk20P1iNhrB3+Vvj8yX83YLnigcBTtDEKpEEBzYGM1k8f2zF2HHErg8MYY3rluNFa0teOGFF/DII4+IEKdGgML/p3/6p3PDkX7yEkDF+6c3/INBv4eFV5bJ2XHE356fGpK55DPeZMP8eAXPf5jpS9tA71hDVCVIEGyPIPzrVzrFZSgo/kUQqgfkNLX69CYVi7BYvvE+8/KCxL6zIIpmEma17k8clrc/hLTPxkIOTvFIQyBbGscHJz09GyKK4X+xNMXCIfjL84eXLoVlWIjpqGdeaL5h5zkUO+OhMEJmeM2ipCk/PryJsWAsur9lYzZa15/DZ357tWwx6DU5MYnJqcncdqcKIL9gYn/qYkbjwHA+1OPt9R7nMtpecRtV5yYxkLQsmd/oCcHnuBWr9zXvKIIvavvrnY6YcKHIbWZGxG1tc8Pyc3Gp8W3YfqZhnAlilM1kJZIuF56Mf8N7usBkGtq4EROm5XY0/1aZwd+ZptgC0xCEahAEEbac+h2cm0zj2csj2L6wBxvbk3JeHzUAJ0+elOAhjCj24osv4nd/93dzY+/48ePSsRwUag1KTQE1C4ykyEuCIsENikStAjUHTKuEgIOI97gNQXsEvlgaY4EDgwNGD3viYGOdGBaVYZ47OzqRSqfkGZbD+yrYOHD4slLDETwLot4vTzOWFwyUxPPVv0UNwlebmSDke6KYcA/rK1cAF97R36YLbZdQTD9zIfooMARh9rGhwohKNm6jdd05fPq3V8thTXpx+5TREjnP6DzCeYZzFecg2i+kM2kRUpyrmI72VBpvg/MV50HOOQwff3nwsiyolAwwL85D/O3ll1+WSLG8x7mPWledpxidsVlJAtvCeZk4Tk1OIdmSzBEizuvEktpjyhC2mZgRE+LGiLpXXXUV9u3bJ/M38eJhgcyPaXlC8Pbt23MRLdWujbEo2F/qCURc9URgQxCqRBBc9aerNrV5jKu3V6prRA7kf/vcv+H5F57HO9/5Ttx///0yiNnB1DBQKPO8BRICdihtEsgYOVAouMny2KF6NgOFNb/zN+bBl46DgM8yLQOV8HcSA3Y403EQ8G++gPynLxzL4XYF75Ew8Hd+Z32Y76FDhyQk6ubNm6PPzialIBAkCFk4+O4PL+HzD2QZq9Tdgpex4pmn+b57Q7MMkn6JW2o7wt3b9on2EmcClD7WuVDwBowr3bWJr5y8Ajpfg/wzXkzJkDa6dfCX5W5L+HcavBz1hOqcfYKbiIqJsBhphWTEV6sCjYXWMV//8I6YZv1QpP1hZMfbRgpZpZfTIJQKCllcg1CuLdNbGFYPJ2YDqy/hnz+wDR0+EkcSwMUOiQIFFuchCm2SAP85DBvWb5Cj6jlHqUaUJIHpaG/FeY2RFjkXqV0WhSKJAQUXP/fv2y/Bl9SQm89zDqOw0/DNShKCavic3i7wuoSp9YOaVE1TLK1unRUQFE9byzlXNbbB+57pieB1+PBhiWJKgc6L4fR1LqcsYPs5J3PeJmHgYYDEmpoDbjeTPBEX4vnKV75SCAOf4TY38eXCk3KFi1X9jWlZBvPhnK8uwy5BOI57169HR4LxAsLnGOPmWIHAK7YXRNUOO5UdqtsJTEuhzsHDAc4Xi4OIHcRO5icZomoDqHZiHynrJvHgC8U0fI7CnZ3MAcAXrO9Cn4RxZgfyZVMtAA0dM9mMpGGddCAyD77gfCGZBwcgiQIHU7P5uVbQZTVL6t9ioDiwYWMyZWF8opQwr1l1ImWcTts5L4agNUGBDI6UWyHNCRVsIVDkfvLfC8piX+VSqSwSiRicBnUZZDOCZEXr3FxujlnEWuJ48swpvH7bGnTQa8TrIxIEzjNcXGj4d53HKFiyNvso4S6Gxsa9hZQlQlHT8R4vvjecq1RLyjz5N9PqIkm3Fzg38jvnKd7TA+2UfPjnYz9p0OEb1DZoZNvg8GY6zVMoqG8wh+XLNLoI1E+ta7G68T6N2jnX6gF9nJ85/w4MDAj5oTCnNoHyROWDam2IE/uBkQ05vxMzkSfxhGt0HIvJfc2f6Vk3Ps/fSUb0N/7uEoRjuHf9BkMQ/ANCT1Ksh/EfBz0vDgh2VI69ZbPSoTqoKOD1aGim53N8gTQ+Av/Wl0btEXRgaj7KfHWwa95MzzR8Xl8QfvqPjm6m0LsVyK6aJg0SBLGQc7gSdrl4frUXthLV5XJQgpZKq81R1URlRIQreqp3OT50oq0pQFXKnBH+5CyGKMYJVSpzttmoV1IzvVecb2ItLXjk2HHcuXEDOnOn3ZQXmNO3i/IML6zfggutcmkq6fsoeRcjAcF+r7W9VrH8w34vtjgNIzu5maKIOsoQhDxqNY+DMNvJxDzfnAiEHdbU6C1Re5dmIgjNGElRV3L1WIRUa8zlCMLRE7hzEwlCXoNAwkONJrWSQno81bpfcKshoQoytalivtSCBoWWfwUe1gZdzOjCh5jq/rl+Fmw1BAzBq4VLo+ZDXPg+q0ccFyxqFCou894CNKhNUcyMBsFFxhCERh3hTV4vQxDq04GGINQHZ47neEsLvn+0F3dsWi/HPeu+NLcmVUBT/U2BT8FEdTi3Rhmdk4SAx0GTSDAttab6PFXiVKXzbx5pr9unbJluXfC7fzuC5dDGanhoGKvXrJZYM9dccw0mxifEIJJp1YBx/br1srdfiaahPqjWrhQSBNor0A7htttuw/PPP4/du3fj8ccex85X7BSCQHsPXsSR6bdu3RowUjRbDA1DENhByrL9Ki7/b7UbTibnaiMQdHP051/M0VD63Zew2CZBqH1AFRpgNAhVADFCFlxxq9FwhOQNkSRPEE7gDmoQfASBRnK0pKfgpwaBkV+5wicJUAM9rloZMZb2ViR1TCt74PGEeC3QyJBpicuxY8eEZOgR9iQa3DsnyWA+FPwkJbS5oovllq1bxMCP+XO/nvlSm0FjPz5HA71pxoWBl1A1FqXAljy82ANROyXMXiH4bK5uvjpNq2/gIf/90Lo7QO/JXsGF5EsNOelVt2XLFsH5xIkTYoC+d+9ewevGG2/M2aoZDUIDaRD4wtB9hUxOLXb5wvHiPb48aqhDS1Sm48thrsZFoPhhTXSMBcYm6J7qzQhqzV6kOUEHh+FxBxf6M2LTsKDbxo6t7WWPLY2ClCEIUVCafZrmJgjHPYKQt2znHKWxCii4OFdRaPE3CnkVZhTW6lbnXxDRDkrds0kSiA+fY1oa7lHw6+pfPbFUs0AiwmeVnPi9I/TwMZYbFNRhtghR9/H9I6CYcJaAn4E9/nLbJppvFLISZRQSf40pQUw1+B4/iS/vK/EirjRMz8WjMEaKAnFdNAj+gaIvi9/QhKyObJsvClmdGiuS+V27/VrsP7BfmLEaNVEVFHTpiTJgTJr6IVDqNEd6NBw7a+NIr42YE0f5Q0fdersxBR2cOJ3G935oI+PEcPXmSfzVBxaiGkb8hiDUZ3xcaQQhTLAWU+cXWxmX+j0okOvTSzMrpVKS0ajbHsbNsY4aBO6X0XWQfqa9vb05oxySAqp46Jqy96W9ovYhEeBeHe/xovsJ1UR04yFhIEmgyo1aBGE4TWS9PbNXrjmfKkUQqEM4ejaLIydtWHaLLwxxfo9BvPT9ZybpMQOOg97TU/jeD+k+lsA1Wybwl7/VZQhCE70HzU0Qpm8xsD1U/3Ou0hWobi0EDQWDJFS3ULna5z9qH3QhpHk0k7dHI81W7BcNoMf+oYaA9h3coiGm6vGmWh4/ziZQUh0JAuMdUMhzW4CGIzSm2bBhg+z93HXXXfJSUWWm6jG1MOXLxZdGO041C3Lkc7Kl8FTbRhqZpi6ivlPf7elw2Dh6xnEJgpPMaQd8we3zX32GCG6wIAe9Z6bw8GP0zW4RgvDnH+ioGkFQN8dm6cJmNFJsVjdH10hxOkHgNgA1n1y0UMCroOcY4jvA+YrzGwkE3wu/RwN/Z5Af7pHzH20PiA+foUDj4opzJYWauaIjQPyomT5y5Aiuu+46WZju2LFDtrLVJoMyidszlCvcauDCVGWNIQh1IgjsKNUAvPTSSxL16vrrrxeSsGfPHtx+++3ywlBzwM7yB0fS+NwaxMKVD+6Jb3yJqFVwbDeGv9EkRH956pEyGkHgaYmJWRGEbVsm8f99oN0QhCbTIPhXyvUYj7Mto9BIcSM6497Jn4DYCVDjyTSck/g35y4SBgb3oXCn7RRtCbiCZdt5j0aEnM9uuukmmRcZYZH3OA/yb10gca7UQEoF7ajA0NCvyQjDImzfv1q2AMF8gn+Hbq8UC3kSsSOZJ409uSAl0SL+DLd88OBBOTGYtm5Hjx4VDTY9HdhHjL5I7IXYiQ1CL+5dtxYdiXhRGycTSTFihxRLxo7iy8OBz+98QXgxciKFPDuG5IACheSAITC51aAaBaalVTBfNA4sNSShyoiXpqUho/r/zrLK5vEqIFBui+H4ORvHCjQIhb4J6gLmP/lQzjZygFNnpvDoEzZspwVbN03hj99fvS0Go0GoQueXyeJK0yBQY6DaAtWGUsM5OjaaEzgiSFpac1EUOW/xiHuSAgouzoNqnKgGihrlTxdNKuSD2xZ+ey5dRKnHQe50VB+BDKbX7vJrNvibf9Hlj6To/72UIaK/HM1b4jdYMff4bm+xF/bpH0Jhi78wUhHMR40UFy1chInJidzhVqqh5n0SAmppiDkXooVxEE7g3vXrXIJQZEwbglD7+ULYsnYSX5iuzi4sXbZUWDiJADtSLU5pnMgXS19Ivlhqy2AOVapDZ0Usopibo2toaGN4zMbQKDUI+vK5d9xLYi163/V3NwojtxhGRmyc6cvAsWJY2A3suqG16AscsbqSjPvDhiBUgtjM0l5pNghRDfPCVuQq1CpZrUc1gCxVr/mocS1GKoJkSGSLOYvBnYmHh4cLlm71DLXsZ66cNDhoNWwy2bOGPPYPZo2GpWn1yFN1LZrZlGWeqjYC5bwYWF7MiYkhonuVJwhKGhz6ScZ4iqirZ4jqBVGujYYglEOoOvevNILAVaQYw3V1y8qYrnXUlNIom3OYngXjP70xqA2oDrImFz8CqrHmIpJ9pMHbaAunGu2g1kTJgomD4C3VGoEgmGF95SFQeovBPctQ9ATBqEdloWAcW56+ktcsVMta1RCEsuBXJcGVRhCo0ZQTZ9vaMTwyLAsd7nnfcfsdONF7IncYkAZO4pYBCQSPKA7bFi23Z6+dMCO7AZpsxdzTdEvZJZSzWZjpQCjVtlJalOC2Rlg+sszwYi/wPsnZk08+iZtvuhlnzp7JxaVgP9Dwk5EUucDkFjYv2iNomHVDEAxBmOkYN89FQEBtSEKNqyI8PxdJDEGoD+pXmg0Ct0dpMa+RDrlC5VhixD4aLNLGisKKhnG0pdKTGmksR42oCrZye/t+ARjsKb/A1O8Fv8mR4b5DoryIiP59e109h9kolNvz12e1XkF7gLC6++vpguA9HQiyFExXzmZB68Ln9u/fj9WrVku0SpI2Yn/11VcLMfAbKdL+gJEU9eReQxAMQajPbNjkpRQzaCrXrGY9i8HYIJTr2dnfb24NwvSzGDjWua2gxm+qvqamQI+CjsfiaGltkVUsr2wmi67urhyY5QRwjjx4ngthAthPNErlF9aDQY1C0EYhmJ+u0KcJec+40W/UmG9k3rSoWP1Ljq4ibS+wtdDgrJ5RpmpteFIrsZ+cmhSNgRqAcgHDY6XZdwy3rFvWhiDMEUFgZwYNc/g3fYD5Se8GDjq+dGTk6i7kHzhqr6BsT/f59Dzv2U9hJgf/SiC4OoiCTq0Jgiw2bP7fQWwGLn45627xkuWWhTFSjNKv1UjT3ARhehwEv7DTUxb974z/GPkwVXnULQXFPpJBY5EDT6JsS0TJP6ilCCMKxYwko+Sv+EU1AC01LsPK88ugoHaD6Q1BqDNBoPEhVUgHDh4QVn3DDTfk1GtUwVEVtGbNGlHBkXmfOXNG1D3cq6MLo7r+8B5VRbxHJsh8SSToU/za175WyEWQ/VZjUjN5VIZAqcOaKsspPDXDXwxcSuPImSxsxCvOkluV5/smcc3aBK67ph08vddsMVQM44weaH6CwNMc82cx+EHwC7Riq/Cg0DPz1YyG0YwfKtVHmqkhCHUkCBTi3/ve98Tf96GHHhKh/lM/9VPYuHGj1IKxDxisgkyb30kU+J1qObo7kjSQIPCe7mlz34+qPO4dMfQyCQUJgglLOuP3pqoPlg6UNPuiuEA6ezGFl49ZcLLJit0cSRBOnZ3AdVtjuPXGVgm0ZAjC7PslSg7NTxAKT3OM0maTprkQMAShjgSBwv7DH/4w7rnnHjz33HNyLvfq1atlz0fVOxT4uofHrQJO1hT21BRQXc1Lw8pqPHPmq+6NvEeiYNh4Y7yItSYIbOXZi1PYdzSGjO2Ga+YVdbeBrpKnzk3i2i0x3H5jiyEIdRw2zWqkGGOo5SMncNfmjejwRVKsI3SmqDohYAhCHQkCVToPP/ywkAMKDgr8N73pTbj11lulFrL94Bm3+LcISAB4KXHQsaF7ekoGVGXET5IHdR3Sg1OUWPjHFvPQ5/SwDi3LztrTwjczXz1qVevKT61LmDVwncZyQxZTH4KQwr6jcWTs/BZDVILAoXXm3BS2C0FIGoJQx1FkCEIdwTZFzQgBQxDqSBC0h+jy8+Uvf1kE89133y1uJbxooEhLUjlbwfPPpWaAxEHjm1MQU/CLJerkZO5ESE2vgZVYBgNjMCSzEgxuP9DvlYSCJ0cmkgnZtqB2Qg9BobUr/6b2gnVh+SQEavvQf7Efy5Yvkzz0DHZ+6mTHtKwvy9VDpeazNqPWBIFGhmcvprH/aBxZH0Hw7zX4YzHmNAzeFxKEU+emcO0WC7fd2IK42WKY0UQ6k4euDIKgwcBngkD0Z4LeA2HeCdFzMymjImAIwhwQBE4M3/rWtyS08jve8Q453ZEXhTVJAu9zpa5+xHwZKKB5VDSNExmZjMaIFOR6VCef598USEsWL8Hg0KDco3Cm8KeRI40ily5ZinQmLcKdx0bzhEmmX7hoodg/sBweoMKyNL52T3eP5Eehz+2Lvr4+qR8vEg7WhcSA5IJ5kpww2AbLnc/kgPjUmiDYsHFpJIvzF+gVE8u/976g6RqEKR+tMR+YiTYMl4YyWLkshi3r44hbcWODEHX2nGW65iYIx70tBhIEd7BxzuBpjjwlkHMR5wHOJ5xXbr75Ztka7WjvQP9Av2yt8uLcphpO9eJiOs5xdIzlAAAAIABJREFUBZpRL7ARTyXknMPFB42yOYfSVivsClroz7K75uXjhiDMAUHQF4OffgGqxICf9FAgGaDxIU9qnEpNycvEF4+/8+UjgdBzGvhJAc2T0kgMKMipJaDPMb0jqAkgSaDwV39Xair4MqqGgfeZNy/WgS8hhTztIvg3CQbdL/mbhoKmBwXv81JNAtvE3zX4ybx8s7xG19rNkQRBginSP9EiSfAK9vYY/IerBIM1MmSM9JucCmGBR8fEEDMEoU4D9kojCMePH5c5hscFP/7446IJ5RxFw+z3vve9srXK30gaOH9wQcR5icc8c6Fy5513yuLjmWeeEZLB+zxEiIsmEgyeQMg5jkbdXKAwwA/nO52raMvFxcrWrVtx6tQpeW7Xrl2SZr4vVGY6pAuPew73WGHe5rCmmSJc4XPKernyVMPDKD6wTCMeD3H/PrQbSlSJSJR8ijFxkgM+H6YVCNpABIlPhRBcUclr7uYoQt6SUM0W/8P4GmqkmFMZeNRAToH0KIOkFaoqhz25B0S6a0HjxVCfIdjcBGG6kSJX9D/5yU9kUcPjhbmY2LFjB5599lm89a1vFQFPLeQLL7wgQp6kgGTi4IGDcsrgPa++RwL48KA6Eg3OK1xkUOiTMFA7ocfbU0NJjQXz6+3tFZKhbt96Oi41C8yHdTAEYWZjupAgmNMccyjOxWFNM+tC81QjI1BrglCLthuCUAtUp+d5JRIECmkJpTxwSbQF3T3d4pbNbQFuB3ChwXeCJILCm5/UQHJxwxNquRIlIaAGlAsSLpL4DIkCn6egp6aAY5TaBBIEEhNqGpieGlDdiuVv6VQai5csNgRhhkPaEAQXuIY4zXGGfXhFPhYliEczNNwQhPr0knroNNNK8cogCHkjRf87G9RcqldW2O/+30Sn5RloB+eAKNpQNZ4OjoNmGhf1eWOileIShF7cu24tOhLxou7TZoshGp4Vpwpa4xJoDmbdXuBeHdmy2h/4twvUdsB/fGpwm6HiCjXQA8GJo4GqFrkq840g6NmS3NnKn1CZt37g74zWWO0J2xCEyENyVgk5P7lxEGikuKkgDoJ/LgtuZ1a7v0s1Yi7LnhW4Dfiw0SDMgQaBQpxGhpzUaM2rVrxUtdHQhyo6XjQSpMqOF9Vo3GdThkz1He/xaNVFixflQi1Tnbdz586qT8ANOHabokrzjSDYjo3JlIVz/Ta8sB5ePzGmhoXRoRS2bmxFd1flYaFLdbghCPV5HVyCkPQFSsp7MdSnBqaUeiLgEoTjuHf9enQkjJFiDvta2CCQ2fI4VFr2fulLXxIr2/e85z2y98aLRjs8U53p+H3lypXyXbUH1CZwL45kgRMi9+JICPQsBn7y+dtvv90QhHq+RSXKmo8EYXgMeOGgjYkpn9slPSRiNk6fncDr72rH6uX5qI/V6CpDEKqBYvk8CglCoQah/NMmRbMhYNwc66hB4FbBX/zFX4hFL11+GCCJcQN4CBMvEgBaAdOVkVoGCny1yF27dq24ANF18WL/RaxYvgIX+i7IVgQJA8kEn2caEgQ9rrPZBuSVVt95SRBGgeeFIPi0BBZPmwROn5nAG3a3YvXyRFW72hCEqsJZNLP8FsMJ3Lk5fxYDN5Fs7h/J/x1YBUE3fNnl3HC93/zpojQhv2+VT53zzImSgT9NoeMvPXjoHVzP7ZBKa1zv9IYg1JEgsKjPfvazIsgZm4Cag9tuuw1btmyRWqi2QAeBHs/pH7DBfb5pJ6XxeD95WV2XR/99jV2gZWn+Wq6GWg66LfrroXYPmsa4OJZ+ZecfQXAwPObguYOM/ukjATQ8ixmC4B8tzWqkGKcNwtHC4545hzx75hL29F6G7bhus67rrPvFH49DMfAcsHP36GbrPVHipQpG83ALyD/J72FpwrIsTMc23LyqC5sWtSAeOY96i+zalseFJT1I1K7NEIQ6EwRuK3Cb4cknnxThzQAgt9xyi9SCbj/8R9cdtTWgNoHuPFwh0YXHf64C3X+6u1x3ICvmhj7mFgR/p0sQXYg02iKfo/sQNRHMm/mRMLA8Dga6BPGTAk1DK/O7BjuipoLP0IWINhIx+s7H3DgLfI6THctiGj1cSuta2yHd2LnPS4Iw6hGEVIAgWBZOnx03GgRvyDY3QejFHZt43LNrg8DTYv7mu/vwoQcPYQpJgKeAeWE3couJaa+qSyNcpYD73bHc54pf1E/kBbtLDZR+6Pdyefhzz6eNOVl84NWr8PbtHYjnIo419vxS7dpxvmeMCjWSty0L3zh2DPeu32BsEPxg18IGQfMnSfj4xz8u9gO/8zu/k9tioFaBZx1w9Z/NZNHZ1SkCl8KbByf1XewTgc1tCUYZ04iGFNIU9ro1QQaotgwkG37SwK0IEgludzCcKSOOMdIYg5poIBJqNkgwaDSp5zSQpKgmgfnRyJL3aDjJuvCiMCR5oP0Eo5lpCOlqD+Jmym++EQTHzmJonFsMaUxOxvJuUQ5kVXb63ARet7sDq5a3VLUbzRZDVeEsmhm3GMI0CBSzf//IAXz0m4eQsrzAXQ5jc7o6gYIthxpXdUZbBKLlyOD9d6zEW7b3IEaCE6b2qHHd5zp7zu3c8iZB4GUIgtsjdY2DQIFOAUvhwWhfOqAZApmrfwpmruwpYEkO1M1RtQgLehbg7LmzIviZF1civLhyJ7GhpkGNGfXwJKahkGeoZRX2JAIaL51EgoJdCQHroocx8TeSGRISkgo9CIr1Yf35HD0uxsfGsWTpEiE1TKeDbK4H/VyWP98IArHO2jZSKVfRK3Ms96X5xQYyNtDRbiFRXSeG3BHoMxIOczRAmluDwC0GahBcy3b29WTGRopbnAHBGlXhLxOxN17kmy+rSkwVom8xFHa8YzloiVlojXoU6hyNm1oX63+HDEGYA4JQrIP16GUKfV29qx0B72mwEd0KUAFM7QH/URh1dXaJCk7V+3yGv8dj8ZxdghziJC91PgyzHjWt6TSegpbFlQOJCt0rST70eGcSA3+8Ak56LFtPgWymCbsWL958JAhqqMbRRcNETvaqyI3xi9+5oUqgGw1ClYAsk00xDYIr19m5GjgpP79UWrMcv/Azi6irec9IMqzM0nORzoYxd8sjanmVNq7J0hsbhAYiCGFjJyyaWJhhoD4rr6cZ3A3zGjYrQSCAJH9Vv2o0+RqCUPWeCs3Q78Vw1+aNBYGS6lODKKWEGzKWfrLQvSIYbElo7jzULBiC0OAEQZi578Cl4CAPC10a5RUyaeqDgCEI9cHZEIT64NwcBGH2WNSbIISV1wikxBCEBiMI5ciAbg3MRzY7+9e+/jk0B0Fwl/W6uE9n0qIonokGIejmXi3E1aicizjxsw+oyQxBqBbSpfMpRRDEv0BOFfVUmCGeAKHzVo20SrNB5EomCMHw/qVwMgRhjgiCP56AvjTc49+/f78ESGKURO7j8zfu6XOypp2APkcvAxoPMp25GheBZiAInNhTGQfD4w5ijoVs1rV3icULDcXkhGjf9lXOoMxNJpdtAW1JB53trqFBUJBX1lOuDXwqa+HEqQyymf+/vXONkeu48vvp7pnunhc5w6f4FkWRelJPUis59gJyBEOK44URex3Hj8Ax4LWx+8FJDGTz0QiCBF4b/hRvDMdGEHthRFgFli1Zjr2x14m0lkxZEmlbL1KkSYqkJHL4GM770fcGv7r3dFffuT19+3WnW6xLEDPTt25V9am6df516pz/Ebl+Z7/ksp70G9rXyuUAQmOSbbZ0LaplRurIuSvy25OXZfNYUR7cu1EujY+bNQynZhyncbrmfSBiCids1jMNr2a+scax3mmIXbN9rLUbb6S+tDdgjfS52b4RJUfEGfpkbHRM3nr7LRMRhw6hTvVDs+XvAEKKAEEnAYvZk08+aV4cqJZ5SbjIw6COgMePHzcAgGgCDW1UJsWSVzJcCQAJ8qQ3O2EaeWFc2eYk0CsAYXxiSX772oJkvH7jalYGAhZ3jU18Y5S/ddRrA4ftGxbl5j0DITho1SHGl4tTnnztm+MyN9Mnf/GvRmXdUEnWrasOk3QAobn52ehT1cma8EGo8CB8/eevy3/44Wvyj2+/Tv77J/fL1YvjJsrp6aefNuHP69etl8mpSRNnDxeMroescVzwthBhtW/fPhMxtSIpnGV1WLYjrmeRCO/Xtdau4HOgId/L5Fejbbv8Sj5kjY5HvfJ2Wz/5yU/KEW6Ep//iF78wbL7oktG1o3L4yGEDFu64446y9bA6WZPLxVCWdyd4EEBo3//+9+U973mPMFggan7fs2ePaZcXBQsCA8aLgrWAl4ZBJjETn7MQAhxAfoAJYlYdQKj3mqze/V4BCOcnPPntq0sipYIBBxq/vozcztb3EV8wAyAyIts3zcpte4otWg+CMcO6cWXSk//015MyPdUvf/6Zgly/xZfhwepcDg4gpDPHax0xACq/++vj8t9+eULu27NB/uOHbpXz587JurF18uaZN806hdUTywEAgM0RId2sXURKMX7UjRUBMjd2sShw1mFV5AoEooBA/66leG3lXM+8Xuu+9kGjw6J9MnM1TFO90kjQFxORFjqTR5/RaDUDwBtwitTvWAY9kfq5/8ILL5St0cgZ4jyAAm2yTjEe6JbbbrvN/ORy2RxTtCAAEL72ta8ZYiIYCQEGMCkySHrxAjHI/GeQ9CXh2b5cn3mJcn058wItLixKcSCwPtSaTCuh8LoT2goZamSyprNU9UYrvQEQRC5c8eS3r3nieUHkQpncLqGY7dTO2zfPyS3GgtD65YkvE5Oe/Oe/hhskJ3/+mQHZvllkdLg6wsIBhNZlnaSGWgCB+XJpdkEuzy7IUH+fbB4uyOLCQlm5s5ZpKnt+573QUGlVmgoUDHur5nTIBGytqgBr7tzDNTDWd8AK6ba/40qAQhV+nEzMcyE4Vn8YO2Q8rg+6jter1w+p8vXlqfhzBGC51hWVi+2rpvKDfG9uPghDV4ZerNdqwcFqw8VPbdcBhBQBAgN19uxZY147fPiwQc733nOvHDh4wPSCF4hLebBttMqzmitBJwnlC/lCFe+BQX2lUpn6GFChk20lQDA/Ny8cXegkUS3BZzynfAdMHAcWkiylQZleAQjjVzw58qonnt8GgLBpTm69cSC5kFYoWQUQZrLybz83JGMjIuvXVjMtOYDQFnHXrWQ5QKgwqhgHRet4Ci+Usp9iaHqPWztWMvXX65CtjFfaJGk9caCg3nM2OKnXn3r3YwFMaCmodS/uOyb53vX6omDF1gtRWZQBwo4dMthHbp/4Wo0uCq0OSdrthjL0Wfl66vUnFSZFHdQL5y/IY//rMUOn/OD7H5Tbb7/d9A8HEo4SoEpW0iQQHscNfBmUN6ABhA2REkCAsupcQv0QGZVzKFgWAGN5CHMmoOwVxauVgrZxHqIu2qB99WLnM+rmSINjEUehXG86Ve53PUAIEvDJ+ERJfvdaSUpYEGxq+yRf1a9wH7EB2rZpXm7hiKEBE2mtZtg1XZ7y5KvfnJSZ6az8y48X5abrczJccAAhydC0u0y1D4Kmew52t7MzszI7MyO5fL8hbLs6MSGLi0tl3wLWH9YrdbxmfkSJ1hrtbxJwsZKCXWmO2nXXtbYm7Hi0Th6LghbbGrDMMhADJpK+Z1D8M36aXwe9whE2OoM1H5BNXcudFE/KQztDgFDjezqAkHAC1CvGBGEgnnnmGXMm9/DDD5sB4uLYQRMtwUjIy8SA8WKhsCkPSCDV8+k3TxuFTjnqY4A1xbPSJTMhqI9yXPxNXfgyMKAofpS9TpRz586ZyQGb4siaEZNGWk1Q/KQtHCM5Ikk6KevJ491+vzcAgi/Tc76cv7hkAgjDPDsmGVeSy6TICa2fnEUPD3myaV1fiDNap02cWfDkH16YlNJiRv7owJDks0syVAzOSPVyFoQkI9V6mVpOitR86tQpOXr0qHFIvPXWW42fARsZ1hvWHsAACokNElENmzYHOWDapXxX+nZRIFFvBx63m7eVeT1JRo9FtHwSgLBS3Y1YQOx6aBdnUdZ6dAg6h99xGKVO9MDrr79uPr/lllsiTop/kId27nTJmmyBdsJJ0a5fLQSq1LnHIsfnmjURj1JF2Fqev1HioPW+/oDm2KZaNhkfM1lDq6z31PTD32oZIPkT8e6KGpk0NrJXK4LmclDnGdAnfXAAod4SEdzvfoAQuCMaYICHYQZLUcmAg0aycWb1TDYTJO2tMHomAxk1pekTOumXQYvBLBmcvAAelbodQEg2H1stFW9BCMaBxG9EYgEQSGHPcerc7Jxs2bpF2HxomCPWSjY/+F6ZzQ9htSEYNUeYUHP7Qait+iKYBjjCCLPWlv0AMmLmqVo+WeOigCOqVPW+fm6HnHNPHSOj7eu9Kv+D0EfCrrPch9D3wV4r+V19L4y/gSG+DWip7aOMKECJWhJseWjZKPiwHTz5/dChQ2bTh47QPuBEyu+XLgcJ9wAIRDaolcGFOQZvTCpHDNGXsxaqtSe4XSY6SXTC6ssR9/JHz89sZJtksbAndz3UnaS+a61M9wOE8t4mTLcbHCWp5SrpeFVUtU2V1CI4CJUCAMG8pGFIRYXSyQGEpOPTrnIKEH75xkl54IZd5XTPZqjU4SDibxC3a262P3E7aDM3QkWt9UY3MM30YSVTv93/uLZrre1x/YprJ27dXul7rvj96oReEj4PeNONpN1HBxBWESDUekmSmLdWMlU1+/K559ovga4HCDFfuRmA0H7JNVajsyA0Jq9mS6+UrKnZOt1zqyeBqMUlCmAcQOhCgLB608W13G4JOIDQbonG1xcABLysl/s8LAPcsR71gZXCJnEODl4C20Unrt5P91xtQeiEjFydqysBBxC6CCCo/wELmpp7OJ/j7/mFIIxEQyDtcydzbufCD1f3TarRugMI6QzL4uJCCBBCXwpj7g4Uu2F5DIkdqnie9DQkCxTwwvPgnPFu4JOSlCTjk6o6I32ZamrndnwrBxDaIUVXRycl4ABCygBBnQ1x6MFcB1mShhPi6fviiy/KddddZxxlcBg5+YeT5id8BPzcuHGjAQo4+uCFquGKW7ZsMfec82AnX5fG63YAoXGZNfMEFoQczrPiy9vnF+Wt8aUKOChbATSJUIAYFGRns75s3pCTTRvzkiMHRejrAEiYmoZAalLuuGWNjAxWh1Y200/7md4HCDtlKFebfrdV+bjnV18CDiCkCBBYkJ599lnZtWuX/OAHPzARBB/96EcNDSkXHAgnTpwwXqXQYAIUcEAkwoD/JNsAFBAaBLjgP2GHR44ckYMHDxqKTAcQVv+lsnvgAEI646EAgdaOv7koJ85kywcEVewuNhld+Hs268murSW5YUde+rLV6aUuTZTk75+bkvc/MCxja9oPEPAWbyRaJB1p1m7F+SCs9gik274DCCkCBJT9V7/6VXnk4Ufk0POH5H3ve5/JqaA8BdzHMoCS53csBjiMcRFTvGZkjTGDKhmSEloQukJIpE2Rme40cq3VkoADCOnMjQpAyMgbBiCgzEMPgpqETbA2BB7wu7aUZM/OPiGBZfkYwhe5NFmSXz47LQ8+MNR2gKDc970GELL5vPzijZPy3htI1tRcxs6ol386s8S10qgEHEBIESBgGXj88cflueeeKxNVfOQjH5H777/fmDvteNxaA1kOibG4ynWRs0OA1DtVSZbiwhU1Vl0BSdSPQWN2tX77Z6MT7Vot7wBCOiOvUQy4FSYDCOV0VA4gNDBEtXIxUAUWTo5NIFIj6RyZZgE/HJ2yecn35yWbCxj7sJZu2LDBHK/yjPK72IRvDXTLFe2QBBxASBEgKGom7pQjBhTwgQMH5N577zW90GxnyqyIclcKTCwJ6rjIy6TZtyC90Etj12nn6sRV49hIfCvAA2uDIVgKM6hRhnq0ftqGvASTp/IrUJ/SNiuAoW9KotGhOfmuqtYBhHSGswognFmUP7xZOWKofewGyoagRmTXVs+yIKivgsilqyX55XPOgqCjuBJAgCSJNPUQIJFrBrIklD/JgDgu5VksphAosZ6wNr399ttm3YFtkXeFsbrrrrvcUWk6r03dVhxASBEg6GhwJPCjH/3IHCd8/OMfN34EisBVsXPEwEujeRZ4cUDiAAKQNy8WgEGdHrmP4uYl27F9h6n78pXLZcIbnuMF5WXldwAH7QJWeI46x8fHTXv8TduUVQsEwIC/t27dal5s5+tQ990yBRxASCanVksZgAArXyYj5y4uyflxTwhMMAZwEIB9bqCNGXxgOCRl8/qMbN6Uk5yJVghCJQmEmJ4uyZHXp+TOW4ZluM1Oir17xNAfHDHsuV4Gjc9GIFzWpFdeecVsRJj3asXEeZrvioWBdYR1bOOGjTI1PWXo5QESULnjuM169sgjj5g63LX6EnAAYRUAgioOO5yRz3BAZKHjZcLngJcJdG2XR3nDZ44ToyZX4jkUOz8x7/GSAQDUGgAwII30tq3b5OVXXjb82yh+6gHxg/JB9mo54GXFJEg/1NIAOOB3Xnb65QBCspfXAYRkcmq1lIY5Yg4oEZroq5pfuWYl/8tlsSRw7KAxDGFkJFTmni85cp20mQ6hdwECPgh/kPfeoMmaAsEw11mHWFs0nTNrkfL+K4trCNtMKCmfqaVUozpY8zScu9V54Z5vTQIu3fMqAYS4YTNHEKFvAUChnFUrDOm2XzD9XX/ClwB/Oemdldc72AUFvg36IvIS6hGGghIARNQqUOYHD8jCq/jNHThI/tI5gJBcVq2UrBAlUQvHC8G/eJIjmw46SDQF34HhS4gaG5j7UCS0nnNq2dfrbYCw3EnRdjzU3C1lY405ygl5KazfbT8nAxzCMm6NaeVtaN+zDiB0EUCwhzXq5buMDS4s7F6k9r0MnajJAYROSHV5nb1ItdyrACFHFMPxk/Ke3Y5JMZ3ZvXqtlAHCjjDdcw0rmkv3vHpj5FruYQk4gJDO4HUCIETtD7XsEc1+w94GCKfkPbshSqr4IDQrB/dc90rAAYQusiBgJeAMD6uAxkbXshC4OOLufansnjmAsHycfGz2wWlacBnbfvQ0QLcqNrNRFVGyVXFGFhcWpD8fpCHnpM6U5LigJgdC/fmDjyNEy54XODr6fpgGO0xoXb+GlUv0NkBwFoRWx78XnndHDKsAEFDuk5OTBgxAcKSLGE6GMCmSTx2AgKMgn+GLgN8AZhye4XyPSAg+w7mwlUWwFyZpL/fRAYTq0Vss+QI74fyiIgRL6Ydpnav9Bqr9BSq1VQOHpQVPcrmM9Gc9GR3NSTFP4qbWAILJx7BUkjdOzcno2oKMru2TfH9ADNQOf8XeBwiOarmX16YkfXdRDCkDBAhCUPyPPfaYCff59Kc/bUIMuc6cOWNCgXAYJPyHyAObc4AFRb2EiSYgFJGYY7NZamGnlGSiuDLNScABhGq5zcz58vvjSzIxZVsPwmxKVVpXvQIDtsOKiUEzL9kAIWtiEn0/I8Xcoty8NysbRsnL0OJ74ZdkZr4kf/vjKdm+bVD+0d0FyRcCcOAAgrMgNLcidOdTtgO83UMHEFIECJyTfuUrX5EPf/jDcujQIdm3b59s377dhB1yEZr4q1/9ylgGlJFMCY4AFlgWIDQCYBDiCIjYu3evy+TYne+c6ZUDCMsBwm/f8GRiEpN9AALahW05Wij0LcltN4psGMu1BhBM/KMvM/OePPrUrNy0pyj7b8wJvGTZkCeh1WnHO96LuRgqVMu7ZNDyQVDuAyVHYp1iLeOnu9orAazISnpXjkrzxUSyaXg6oaKQ4bERJfxdj6UZJ3hyIK+yL/QPG1DC3PVyACFFgMCgfuc73zGDhqWA3f/BAwdl9w27TS+UWKS8XzLnnvZOydpLhfdqhQXVQoS1pmktnwbn69Dai+0AQi2AkDO+Au0ECDg1ABBuvVFk46hJEtCaZc0XAxD+5xPTsnNrQd57oF8KheZyD8TNol7N5lidi6Fy3ILSQcmo9RNggLLZvXt34HBSx+wSXbNqrWE1y0XasNeu8u9WHGu5ngR9CxboyHdI+lxrS0jV0+Wwds8zjJSnT582egQWS0Nnnc+bz/bv3y/nzp0zm8pjx46ZhICQ4mkCQHh22JgyVugjfoceu5AvyF1331XOMOwAQooAgcFlYPAzIK0zyh2a5fvuu8/0Ar8C/AyUiEidFZWAhJdNAQFID6SoVMv6Ob4LC/MLMjM7Y4iQ+FuBh8Yca84FnWz8zUTBWqH1cY9neeGVQ4E+KqlJG+f8u7oqBxDiAcKVq8zLeOuBjYnVuhA4CdbyRwh0D3cLuSW5da/IxrEgDXFLR29+aEF4YlJ2bi/KA3cXZKAI82J7SBHebQCBNQQ2VtYpdq2sY5qins1RdC0KwGEwrvb4ajmdObU2SfZ9fcbmWtBNV9U9K4eN7/mSibBfRfllootT1f0IR0zcZkrX0ZW+g/1c1TwP+xq3YeSZU6dOGV82jqTRKSj6u+++W15++WUDCCDT27JliwEGXAA4AAPjA+vltm3b5NLFS1IoFoz8Was4ur7hhhscQIgMfObq1atVW3UmFZO73ZnWGFhepG9961vmJfr85z8fIOww2QmDiRJWJkQGjr85nsBhkUnA8cLElQnpx2MqtDzYypvy+DVgpWDQeYbn1cmRCaIvDX4MapKiLcoo+xl9BZFqMhXaZzJCt9zSwvuuhgTVX84BhEAe+nLNzvny8rEFmZjwxIOEqGxCCJW5RjSEYgzIjioAwJaubkgN0REOhRmRfF9JbruxTzaM4YPQCkCg3ZLgM/HYk+Oyb+8auX1fvwwNcHQBQGjdC6G3AQJMimRzrLhsKoMr64+9y2/3Glpv+VjJ6lrv2V65z3dkTdeLDSNyVpprHQMbXKj/mpJYGTn5YhJooW80UVaZoM+8ASJPnjghD+3cJYN9AeiOuxwPQptmju7mMQmxQNxyyy1lEAJg4DNQIUobCwDKXUMfsTCg0AEImJfxjU1YAAAgAElEQVQwKXFPaU1N8qVM1gAHQAD18Iw6QQJMUPBMBHV4pA0UP2Wok8lBjgf+q5MkdWjeB8rRBwcQkk0IBxAqAAGV63m+zM564pWC6MZKqGMoz6gHoBaImBtsJQBAWCr5ku3PGDrkwUJW8n0BrGh2ngbNelIqeXLhiieFQlZGilnp72uXi6KYd533rZdohYNkTWEuhghAiFPMcRaC6JgYMEFAqe+1xZ/qWgEIAbaufQxda4VaZumIyQxcBh4OIAQblLQsCCsNmqZ7Rumj3FHyKH2zVIV0yYoS1cGJwYZmeam0ZHb/KHxWXf5m8mjyJX0pUVgmEYovUvJK5hkWKP7b/gw2AlXzE/1Qp8lk6tGVcgBh+RzwQlgQZD1Q84I6JMT73NR8b8LHDTV5X8CDUNnjNH8UELgoimSJjlDsUq64desBVfYuQCAXw3KqZb4P69HM9IzJJMtaxfpCKDfrGRsbrLK2dYHfNTMtmxA2PXqfzxlXNiTuao8EkOfZM2elOFAsJ9RSi7Xqi127dpVBq7MgBHJfdYBQb/irdkx1nBfr1eXupycBBxDSkXWQrKm/aYtBXC877YP2bgMI+FfxnznPWbc6Y6NwcIDjJ+sYfgpsePB3AjgADDQCAjCBdRMgwc96R5q1rBbpzLreawVr8EsvvVT2OcAPgSyaHCUTUcecvOmmm8pWbQcQehQgmI1XTIRDsybV3pvqvdFjBxDSGadOUC13uue9SpRUK4oBnyfG4eL4Rdm4aWMlWmvHTjl1+pTxtcI5jjWKcG3OvTXtPMecWBg05TzWB5QWmR1xnDO7uMjGKM68blsnos/oUcZK7iP2+hm3vtqOljo/7GOU6Lps9zHuuEX7mGQ9j/anqj4vSE5mO2Ta5dVZkjnH8faePXvkmWeeMeGPALTXXntN7r//fjMeADm9HEDoEYAQu8OxsqJ1ejFz9TcnAQcQmpNbo0+1BhAq0RGJeBtj2J+DIwnO0s2Sn8iFsRmAYDfNUU3Wx8+iUWk1Xz7wQYg/YkC5cPFTjyw54uRYkp9YFLSMOtWxY0VB2eVgr8SPSh3fog53qkxt50cFBuXz9Wg4o3FjDR1eLYEtey5yLw4ERI9IyiMeZr0tK/1wsEyflE3cymhp162/x/UnCnpsHwIFPdpGErBCWcYCa4KOFe8Px9NYdmxyPgcQVgEgRI8LdHLgS3D02FFzZoczoI0Go2iZweW+hiU2/8q7JzspAQcQOindSt0tAQRyoOA8uRA4Uca5IUYxAY6RQQRG0Afjr5AVKRayks0mAwiNHDEYAGJytWTk0pVFGVkDCY5Iv6an7kQ+6pihq3JS3HO9DJrvWknjrMoxbo2rpejKCjViFY11ZoxJGZ3ODKtYbFey0ib5jmn1tx3tOICQMkBgAoHann76abl69ap88IMfDJwGQ6pljVR44403zPkbJjfO4yC44HyPRcU4ZPX3GxBx2223tfXctR2TytVRkYByWJTZznpAOMxPDa/tge6aLrYGEETGryzK6yeWZK4EwVIQXlHemEecEYKwSmIcKgAh64uMDJfkpj15GSwm41psBCAYEML5/aQnf/Poefnww2Oyfl1ORgbpSVYyqwEQbtgtg4aPKpAU4IE+8hPfAnV+w8mQ78oRAtYCvaI78ah53/67llJ2x6y139DpqWlZXFqssggYS8HIGsP/gOywYhFaT06fudk56evvM5tOtc64ZE0pAgTMaE888YTcdddd8sMf/tAo+YcfftgQU3ARhggwYIAACigXXirMPgwinys/AgQYDDCOJc7voHvVmHJP9BLd7LUGEDxf5PzlJXn5uC/zSyj35Tb7OCt+NN5ibKgk+/flZKAYV8PyOdowQBBfLkyIfPO7F+Uj/2RIdm8ryEA+MCGktQasdMTABgZgwMYHKyjrG5+xvh09etSsVYCGqxNXjeLSBHQoIz5nfdQLMzdtYQpnHYSWXq/oWX4tvwMDXEKzf71dv123gjF9Ju5IYaUVp5avRBIfilp+CgaL2taT8MikFqgyYPLCuPzmhd+YjSbyJYye32+++WbzN1FysC4iZ1gXkT8OivggaL0OIKQMEMjFAMsVloEbb7xR7rzzznLCJQYVkMDgAAqUOVHDDO2XRgkxcOKJu+IcWppRo9GXr5k6ruVn3BFDOqPfigUBgHDhckl+fxzyGWiQAiIk5WyqxfhoFm09ZxaR0eGS3LE3IwNFo7HrfvFGczFwhn5hwpdvfndcPvJPR2XX5pwMFbOmrQTN1e1PkgIrAQSlWCbMESdFlBCfbd2yVU6eOmnWOdj8UEQXzl+QtaNBUjrWNf6z5nFvbHRMZudmze6Wi89vv/32qlBv2wpRq99xCrVeWQUHceXinCLtNurJT9dSGwQoaZG2G2WRtL+ntrVSm3bdRCecPnXayJl6AW7oCwAbv69fv97oIYAD6xTzkagG9JNyc5QBwo4dMtgXZEiNuxxRUr3RT3CfCXLi+Anj0QsdJkr+nnvuKVMtM0hc6uCjZh7lQNBBox7+syjyYkXRMeWV74B7+n+lLlIXz9kmQH05aauXyFwSDEVqRRxASEfUrQAEAAAA4XcpA4RGnRQNQLgi8s3vvSMf//CYbF2XlcGBkPuhPh5py0CsBBA0FT3rSNRJEauUkr7pMSvrG0oJOWBx0E0N5fhd1z3WL9ZK2zmv3peJ263bz8RtoFSB2+1E24yWseuMU9xxoEKfaeReEiASrQ/Zqtz1Hv3HEq1/897YjqKMm61TAoBwSh7asd0BBHuwO0G1rJMN1Pb4448btPzAAw8YKwIXYUIcJejLQnllRGQQ1VRE3zRvA0cQ6olKfXo8QX0oe53QvNgMPM8pYlcQkcvm5K233zKxy1xKzazexbyo+p++DRQHUjVr1lsMuvm+AwjpjE6rAGH88pK8csKX+cWQXMnHkrAyaVMQuRB6CfoioyMluf3GPhkcSKatGwYIvi8XJ0T+699ckn/28JDcsD1vGB6DtNbpyLmaSbHaB0HXN93AwOqqxx9xvgIr7dZtJaobFXsHHVWYtQBBHKio5bdgf87vcbkj2iHlRi0RKx0jROUUJ9N6z0cBkR0d4o4YAgmnSpTES/azn/3MxAKT+lmZwtRExzkeigVAoEyI5kxpfNwwjeGwyJkRz7EwUlZRtoapoMgBHAACfue+mvNQ/MrjTRu0RxlilPU8EFMUz3JOiAnKdjTatHGTAwgJVwoHEBIKqsVirQEEX6ZmluSdcZF5EkSEF46HK+ldQx1tsSsOFnzZujEr+f5kPgjNAITpWV/+3/OTct8dwzIylJH+fAgQWpRf0sfLAOF4yKQYE8UQt6uOq78WaFhpVx61libtd6Pl4iwFjbRd67s1UkejfW62/ErH0S6KYRUAAk2yoDEwdsyperzzE2VOXKqa1tTkxt88owxkWpeSjpRpSUMqZdoBVKD4FRRgIQBI8Dcxx3i0Rh2GjNNQeE9Nh0xuyvF8kmOLZifsu+k5BxDSGc1WAIJhMMCk7WeDyITwqpd1QemY7fI5E+LQ/jBH04ahffZlsZSRvpz5QCQDQAhyGaRxJQIIFplEWv1q93cPOC1C7oQwiqVXv0tTsgmnkwMIqwQQ6g1a3NkXz9jmqW5Eo/W+17V23wGEdEa8NYDQvj4CMOoBC22t0SiG4LlKzGU5X0T7ul+3prIPwvET8se7d8sA5A96hdkB61bS6QJpnbd0+nusYv0mkVqYTO3JE6floZ3bZChnUGnlsjCpc1JMebAcQEhZ4B1qzgGEDgk2Um23AIRGvm1zAMHSx+Gv6dgOgsYUILzw5jnZMLpW1mBNDEkjiAaJXvStsfRbjUiwRtmoQAKjTvr9aOKrmK6XSbhWRXqm19oPuDFffPuCPLRrmxRyWcnY6dgdQBgoE0Y0MdZNPdKIp25TDbiHUpWAAwjpiHv1AUJoO7DpFWOUo73kz8+T7jnfxBpTtnkHbpLmz3RgAgChP5+XqwuL8ubEVXM8qS1HgUDQr/QVsy0JZaDMkschnanYUiuGgCvMq5DL1nOTbampFR82VrBQYIOFvOwYGZbAfmBJ1wGEdAGCggMWO44P9Ky/c9PA1dxpCTiA0GkJB/WvLkCoeCN45EawFtGVcjssoGz7++MBgqXNTO1hsEQmDHHG96BkggR8yYVEDcF63VmgoNFQrE9LpKA3TXa2zZZmUBgumY2ax1uqtLMPl8KcFia0fJVlG0TIENETYRaNTDV3xNCmOYFzIBdOiDgWkqlMw0ogryDD1sjwiIyOjRpCC8qxiAAWpqamyoQiMCna4Sht6p6rps0ScAChzQKtUd3qAgQ65ctSyZcz5xZkZq5CtGT7JJTNx+GuulTyJJetVq5lDwPLJl6x6voykPdkw1i//O1TV2V6ISf5zLx86AOjsn40KwN5FvGqpbztwrcBgnr6t72RNlaozt29xOOiCa2US6KN4miqqmV+NTGo1wGEpkRb/RDg4He/+52g3B977DGj8D/1qU/J1q1bTcG33npL3nnnHcN9QIgiP2HDAghAgXnkyJFyVMMjjzxiIgrc1d0ScAAhnfHpBoCwuCRy5JUFuTiJpq4wMdoSMEmelp2RB4fOVce7kZ1jABx8GR2ck53bC/KXfzUvU9NFGey7Kl/8fFFuub5Phg09SXoAIZ2Rba0VBxBakx9PO4CQEg8CyPDrX/+6fOADH5BDhw7Jvffea+hHNd854YRnz541LGSEJrLoYUEACAASsC5AzwyhEXzZvYSKW5+mvVmDAwjpjFu3AITDryzIpalCRyz9HC+sHZyTXTsK8u/+akGmp4tS7Lsi//rPBuXm60nchKwdQLBnnAMI6bx/zoLQJjl/73vfk8OHDxsSJIQKUdLBgwdN7VEmL+UaUL5uXQTjGL6ibFnKBJak2z7ux1ZSk2hd2jfHfZBEmtVlXLKmxmXWzBPdABCWFkWOvLog4x0CCFnfl5GhOdm1vSD//isLMjVTkL7MJfnLv1gjt96Qk3x/cF7cyXh9+4ihmXFK+xkHENKRuAMIbZIzExY6ZbI68jJDs3zgwAFTOz4IMzMz5mjB7AWyWXOkwC6UBVCTN/E5n8HEViZGCvtHeQYL1kWScVAW/wUuLBiADcpgrYBi2fM9w5jIZ4RdQc4ERWrJK5X9HegTVgwFMFg3HAdDsgnh0j0nk1OrpboBICwu+XL41UW5ONkfvh9JnPciuaTLgljuc28sCMPzsnMbAIEjhoIU+yfk33xuQG7alZNhk3s5yL3SqcsBhE5JtlJvt/kgJPnGDiAkkVLCMvgePProo4bCGB8EcnFzkemM/5rVDEWsTo38RJEDEjhiAGQU8oEpU8ug5L2SZ7J3UQ/ggCMKjjCYdORpuDh+sZwLvL+vX4ZHhk1ZUrFSP32iDc3rwE8GH4AAUOBYQ9NTd3IhSijKri/mjhjSGaKuAAglX46enJfJ6fwKan65PAhCWHZlLE7H0DkBvT88uCSbN+Tlv/yPKZmZz0mxb1o+85G1sn1TTgoFBQidk7kDCJ2TrdbsAELnZUwLJmS3VhRRpAup5mJAoaNsUb7s2FXRag4GFDWKHYCAhYCdOwsgEwdFzTPkYiB/AnUBOLTM6NpRyeay5lnq4P+mTZtMWxs2bCgDEM0ESV0ABNqhXcrxrFowsD7QVwUtxUJRrttyXUd3KelMj3RacQAhHTl3A0DwxZOlEkeFORNDXi/ufnFhUXJ9ufhoJA1CV/GFlWUyvnm/ycngiSe5jCcDhayJUc8YVsPOWQ90UY3LIJvOKDfeijtiaFxmzTzhLAjNSK3BZ9QSwM6f4wM9aoirJhpipAocq4BmUOM5BRBYD2qFRcZlF7Pb1LYczXODAypijoIAdgq6Gq8h/SfoL2PdS06w3QAQGh0pjvTyECXlLLriWpWUCZg0gxQxDV7AYmhAQVbE98K4+c6BBGdBaHSUGy/vLAiNy6yZJ7rWglBzDQhtjVHTfS3aZbseZ+5vZop0/hkHEDovY1pYfYDQ+PdsNJtj4y20/wkHENov02iNDiB0XsZqDevKI4Z0vr5rpRsk4ABCOqPQiwCh1VwM7ZVsLWfJ6lYcQGiv1ONqcwCh8zLuSYBAuCHRA1y2eVetAygbfALqhTmmI95rq5Vmc2Q4gJDOPLkmAYLt5GB8Fup5PehYBGmtq7NOhk4Tpp7aRx4OIHR+PjuA0HkZdzVAQNmwe+AnTocKAHASfOPYGzI0PGRCDPFBUL8BJg3sijgV4k+AbwERB/xNHTgX4mioIY3piPjaaaVZWlkHENKZI9caQJhbLMnEJG4HgReCH4Y22r6NysxY+cyXfJ8na0Zy0pezMzewMfHl3Pl5WT9akMGiAwjpzNr4VhxASEf6XemDANcB1oHHH3/cRBh88pOflLGxMSOR6alpOXzksHFs42yEcgAFjS7Ys2ePYVocKA7I5NSkeYb6AAxENNx2223mOXd1jwQcD0I6Y9GLAKGRBSoqxfNXluTV454sLvSJr2kTw0Ll7IqKDDRMUnwZG16UW/fmZaAAsKhQKs0vevLU/70gB/avkx2b4U2Jd3R0FoTOz2cHEDov4660ICjV8gc/+EF59tlnZdu2bYY6ee/evUYihDm+8MILxnIA0yJ/E2LIT3IxnD592pAfAShOnjxpLA9YEq677jpjadi3b58LP0xnbiVuxQGExKJqqWAvAgQTxZBvJt2zyIXLnrz6hi8zCyalo2RjFPqynA/iy7rhBbl9b58UC4g7V04WOLfgyZM/vygH7x6VnZtN0GTsWuIAQkvTNNHDDiAkElPLhRoB6KnwIGCm/sY3vmH4CEjMhNLfv3+/7Nixw3xZ7tt0ywoaWEQKBfNGm6tWWGJcGKOaxm0Tud2GHm/UMqHHlW15ZK6hChzVcjqD7QDC8h1/HEAYG16Q/ftyUswDAAACwRUAhEty8K61svM6BxDSmbXxrTiAkI70uw4g8LXPnDkjx48fN1kdue677z7z37yks3OyVFoyuwqNQ+cnix+WAj5XgIDPAWFSNu2xKnt2JtxDuY+NjsnC4kK5Tj6z49z1mUsXLxkQgv+DghXuIUR1jNRcDM067KUz7N3VivNBSGc8rjWAcP5ySV55Q2R2IWusALH5FyzMQAS1yQY5vCB33oQFIeROcAAhnQnaQCsOIDQgrBaKdiVA4PvgbPid73zHHB984hOfMEcDXDAa4mPAEQOTBB8ElDZggAWQn1gJcEZUXwaUt35OHZQfGRmRiYkJuTpx1TC1UR9KnZ+kk8axMUABsK9lyrkY+Jw+AQQAI/RB80HQ/vzcvGy+brM5/lCg0sL4XBOPOoCQzjBfawDhnctL8vtjJVlc6JdMlhc5RANWIEPZF6E8BBwxLMr+m/skn88ZUKFlsCA88ffjcvDOMdnljhjSmbQ1WnEAIR3xdy1AQKFjQYAi+YEHHiiHNKLU2fmj/LECoIjLVKHZnFy+ctkod3Ir4I8AEGBh5D8XSp26t27ZaiIcpmemgzzzEoADJh4gBIdGU27rVhM1URwomrTTJ46fkHwhiJ4AhOBECUDAesFnOEuSs0GtFo6cqf5EdgChvozaUeJaAwhzCyW5OlUSLzxHwOGQC6xQuXzhduCrGNzvz/myZm1WslnAQcVzwSv58taFOVmztiDDxTDCISbpk/NBaMdsXbkOBxA6L2Na6FqAYDbvIWuinZYZpU2yJY4ZUPAoYiwClOEeF1YFrAYACLUuMKG4jzICNCiooJzmaEAYAA58H8jNoEcYJG+amZ0xoEP5FbQNpX6mXermIqRSORocQKg/kR1AqC+jdpS41gBCmfPA5+BAUUH0oKGKKMEqR1gkkCIECFYxz8Q2BH5OcZcDCO2YrQ4gdF6K9VvoaoAQ133bIdDOfxAtG3VktO/XerHjnBUVqNggpb5YXYlGJOAAQiPSar7stQcQmpdV8GQy5sRoKw4gtCr3+s87C0J9GbWjRM8BhHZ8aVdHd0nAAYR0xsMBhHTk7ABC5+XsAELnZUwLPQcQau3yVVz2/TirQbNsf+kMx7XZigMI6Yy7AwgJ5YxPkjleaMyIoKcQzOd8f3/5CKJyOmEzMybsSwrFyj5cuUpIZwrNttSEAwgtiS/xwz0HEOjwiRMnDPERjoT2xT2NRMA3ACdFHAkhTuJYQX0QbOrmxJLqsYK9BIQcQEhncjmAkFTOvswu+LLk4YEQui7GRD7YteltHB6nppek5EOwFACCYt6XNcMhUVOtcMukXetAOQcQOiDUmCrRTzZXTzqtttZKzwEEHBN//etfG4ZFAABOg4AFHAsBA0Q4EG2A0gEkUO7VV181REtwKxBpAKeC8iW0Jr7ufdoBhM6Ojc2T0dmW2le7AwjJZIlD42vHlmR8Ihs4M5u0TZUr3jWR+yXxMln53Suz8tpRT5ZwcMx4ct+dnnz8Q2NSKGQkF8vnmKxfnSrlAEKnJFtdrwMIbZAzQkS5o8iVowBFT+QCFgPCEn/zm9+YiILSUklGx0bl1KlTBq0DEHgODoXNmzcb+mWiEl566SW59dZby7kbdu/eXZUJsg3d7roqHEDo7JA4gNBZ+WrtrVAtN9tDz/fl8GuenL8U0CyXAUGmXi5IwIQvL/x2QY78vl98H5N9Sd5337R87p8PG4AQWCRqQ4xm+9zKcw4gtCK95M86gJBcVjVLnjt3To4ePSq7du2Sw4cPC8p83bp1cuzYMXnve98r2UxWzpw9Y8IbOSogTPHChQuGvIhn4CVgILAqwJlgwIXnmbKAB8AHoMFOFd2GbrsqWpCAO2JoQXgNPOosCMmEhcJ88ZgnFy5ClKQcCSE4WEG3E5XNEcNvjszJkZcDgJCRkvzxQQDCiBSVOyFZN1Ir5QBCOqJ2AKENcubYgF3Dyy+/bHwG7rnnHkM8hNUAwiSb7wBwoL4FNM0CiOKnjN4zhr9SqQoQOG6CNgxUG6twAKGNwlyhKgcQksm57QABC8LHHEBIJv1kpZyTYjI5tVqqq3wQUOTkYYAJESWOzwA/79h/h5y/cF62bNliLAXnzp4zVgXIkiA9wv9AvwiWA/wQ1EKA5QBLAtYDBRBkeoxL2tSqMN3zzUnAAYTm5NboUw4gJJMYAOHIa568fSWwIFQoluo974nvZ+T5Iwty+NU+EZ8skp687+CM/NnHhkz6aC53xFBPjvXvO4BQX0btKNFVAIEvxMtpkxzZWRn5fXx83HxvLASkc8YrFH8DLuiXARn8xAkRmmRok5cWl6TklUwKaPwTyBD5bndSbMfkSKsOBxDSkbQDCMnkzPpz+lxJrkyRzdHiYDTJnFa+CI48dnJOTp3jtz4R8eTmPYvy/veskXyfC3NMNgL1SzmAUF9G7SjRdQBBQYJ+uWjaZhwTr0xcMZYF7TzOiZpvQY8PNGETjop8hhLqD2OTsVA4C0I7pk976nAAoT1yrFeLAwj1JBTcD87kAQa4FFYlbqhTQQAApufmJZPrlyDVk0g260uhP8go2Y2X80FIZ1ScD0I6cq6yMESJkRRQRP0M1Cqh6ZhT6qprJoEEHEBIIKQ2FHEAoQ1CTFCFblyia1C3+j45gJBgUNtQxAGENgix0Spq5VyIHk3YAKHRNlz5zkrAAYTOyldrdwAhHTk7gNB5Obsjhs7LmBa68oih3levF+MfBwbsZ2o970BEPcl35r4DCJ2Ra7RWBxDSkXMVQLA8HM2mJZ0uWK1okuu4hoMzD7UgZFeNajlIitXICYwDCOlMpJ4DCBrmSJRC1GSHotH0zbaPAQuj+h/YL4TNhUC9RD/gvBhXdzrDcW224gBCOuPuAEI6cg4WVUKwsyEHI8oPRd2ICmxTX3GyNKgkJhZDnSJwDPf81fPLCpNeNOLC6QBCm+ZHnWq6EiBAbMQEgA8BZQ0pkoIBiJAOHTpkmBEJXUSh65d4/fXXzWcQJ+3Zs8eEQFLX2bNnDeUyIIH35MWXXpQN6zfItu3bTBTE9PS0cWI8e+as5At5uf7668uoGvkVC0VZWFyQI0eOmAgIQIjNqU10RLeeL6YzjVprxQGE1uSX9GkHEJJKqrVywXqUNyr5rfPzMjXHLl0kqxaElHAC7Ze8rLz++rRcnTaUT+aLZTNLcvftI5LPE5YBjTQUkfyeUsfCnhh7ip+R/pwn27YUy1EeSaTvAEISKbVepisBAgrj6aeflh//+McmhPELX/iCUfZYBVDmzz//vAEPc7NzMjwybCiY33n7HRPKSGImwAB8Ckwiwh41JJK6oGgmn8Mdd9xhcjQAGs6fPy9DQ0OmLX7HmoDSB1j09/XL+g3rDZcCHAw33nijKaMpXWFlBDQQSeGu5iTgAEJzcmv0KQcQGpVYc+V1UfX9rBx5ZVbGJ/PiQdmcogIOzw5ksZSR//13k3L+UjGMyshILjMrH/uTIRkctC0LChAqIEF/s49F4j6jlsrnYelISKj51Ho4PNwwnxX6F+TA/qIMF4gaSXY5gJBMTq2W6jqAgOJ/9NFH5bnnnjOWAAiR4DP47Gc/a5Iw0WGUv1oZUOwjwyMyfnHcfEYIIyBCFTb1caHg+Wzd2LpymCTlsUAYEJHrk6HhIZm4MiHZXFaGh4ZlcmrSgAUNoQSgUD91MkEhYeI/4MXxKjQ/FR1AaF52jTzpAEIj0mq+bNmC4IscfnlOLk4VxU8bHITdX1ry5am/m5Z3Lg4ZGmj6kcvOyr/4UFEGBgKdbeeaKFsRLAXPc3plLLRQ/twqSy6KFctGqKupo9A3L3+0Py9DAw4gND/rOvNk1wEElP+Xv/zlcmIllDKMil/60pfkwQcfDIGxH4vGjfOhOe1bfl8dExXFR6Mfan2uYo+GSdZzlOzMcL07a3UAIZ1xdQAhHTkrQEBXvvT7Obk43XsAIRYIWMrd2B6WWQSsz2qVjQEIxb4FuW9/nwwWHUBIZ4Ymb6XrAMLU1JR8+9vfNoyJJGtix86RwRe/+EXzk907Jn4990exc0yAFQAnQ6VZ5tgBC4E6K+LLwD3K8jv38CNQYBAHEGYzBV4AAAIBSURBVKIkTWVkvEq7geTD2lslHUBIZ7wcQEhHziyqff39xi3xpVdm5NLVKECwCZzr96m8gbe38lUk0GEdRqtryslgJ88RwxP/Z0bGx815glnvctl5+dif5GVwwAsMBlpvWT8HvyhIqLIgGGRgNRPXdHlXZZ0q2O4NocXBz/iS8TNS6FuQg3f2yZA7Yqg/GVIu0XUAAcUNCPjpT38qTz31lDxw/wPypx/7U+MjgLLnqOCdd94xxwWwJOJfgNJX5c8iiKMif7PLV5ZFQAEgAlAACOHvHTt2lI8GUj8fTHmgu7k5BxDSGR0HENKRswKEUiYjrx2dkYnJXOgAWMnFUCFwtvukwCHUwIGaNgoZZcqvlZ19tTdAteeAH5QXX5ZKOfn5P0zIpctFyYWRFNnMnDz80FopDniSDR0FFTwEvbG1edRxMWmgpj5Xy2uBZjzzfQq5Jbn95qIMOAtCOhO0gVa6DiCo6R6HwCuXrxi/AM74lQGRPAtkfNSUzSh6PgNUaJIn/APUeqC+CPyNIvJKnni+Z0AFyZ801NEBhAZmTZuLOoDQZoHWqM4BhHTkrACB7fnCgiclL4zyzwSBjvVjBWyAoFv0MNAg5ivE1WcASBicMD1XkpKfNe3mzPOeDAzkwqgKQhwDLoRstn7P2irBsDn6lM83RkXtnBTbOhI1K2sEIPx/8fHDSdW3A7MAAAAASUVORK5CYII=;labelPosition=center;align=center;" parent="1" vertex="1">
          <mxGeometry x="-1989" y="1200" width="205.04" height="97" as="geometry" />
        </mxCell>
        <mxCell id="gDeRItCsJUCmX3u7agb1-18" value="Feedback loop" style="ellipse;whiteSpace=wrap;html=1;fillColor=default;labelPosition=center;verticalLabelPosition=middle;align=center;verticalAlign=middle;fontSize=20;dashed=1;strokeColor=#999999;" parent="1" vertex="1">
          <mxGeometry x="-1166" y="229" width="499.09" height="242" as="geometry" />
        </mxCell>
        <mxCell id="qDQUPD7SwhjbJuxFwGtx-1" value="Pipeline ML GED" style="ellipse;whiteSpace=wrap;html=1;fillColor=none;labelPosition=center;verticalLabelPosition=top;align=center;verticalAlign=bottom;fontSize=20;dashed=1;strokeColor=#999999;" vertex="1" parent="1">
          <mxGeometry x="-795" y="2894" width="1289.5" height="631" as="geometry" />
        </mxCell>
        <mxCell id="qDQUPD7SwhjbJuxFwGtx-3" style="edgeStyle=orthogonalEdgeStyle;rounded=0;orthogonalLoop=1;jettySize=auto;html=1;entryX=-0.006;entryY=0.402;entryDx=0;entryDy=0;entryPerimeter=0;" edge="1" parent="1" source="qDQUPD7SwhjbJuxFwGtx-4" target="qDQUPD7SwhjbJuxFwGtx-6">
          <mxGeometry relative="1" as="geometry" />
        </mxCell>
        <mxCell id="qDQUPD7SwhjbJuxFwGtx-34" style="edgeStyle=orthogonalEdgeStyle;rounded=0;orthogonalLoop=1;jettySize=auto;html=1;" edge="1" parent="1" source="qDQUPD7SwhjbJuxFwGtx-4" target="qDQUPD7SwhjbJuxFwGtx-33">
          <mxGeometry relative="1" as="geometry">
            <Array as="points">
              <mxPoint x="-445" y="3422" />
            </Array>
          </mxGeometry>
        </mxCell>
        <mxCell id="qDQUPD7SwhjbJuxFwGtx-36" style="edgeStyle=orthogonalEdgeStyle;rounded=0;orthogonalLoop=1;jettySize=auto;html=1;entryX=0;entryY=0.5;entryDx=0;entryDy=0;" edge="1" parent="1" source="qDQUPD7SwhjbJuxFwGtx-4" target="qDQUPD7SwhjbJuxFwGtx-10">
          <mxGeometry relative="1" as="geometry">
            <Array as="points">
              <mxPoint x="-417" y="3283" />
            </Array>
          </mxGeometry>
        </mxCell>
        <mxCell id="qDQUPD7SwhjbJuxFwGtx-4" value="split to pages" style="rounded=1;whiteSpace=wrap;html=1;fillStyle=hatch;fillColor=#FFB570;" vertex="1" parent="1">
          <mxGeometry x="-505.5" y="3168" width="120" height="60" as="geometry" />
        </mxCell>
        <mxCell id="qDQUPD7SwhjbJuxFwGtx-5" style="edgeStyle=orthogonalEdgeStyle;rounded=0;orthogonalLoop=1;jettySize=auto;html=1;entryX=0.25;entryY=0;entryDx=0;entryDy=0;" edge="1" parent="1" source="qDQUPD7SwhjbJuxFwGtx-6" target="qDQUPD7SwhjbJuxFwGtx-12">
          <mxGeometry relative="1" as="geometry" />
        </mxCell>
        <mxCell id="qDQUPD7SwhjbJuxFwGtx-6" value="extract text" style="rounded=1;whiteSpace=wrap;html=1;fillColor=#808080;fillStyle=hatch;gradientColor=none;" vertex="1" parent="1">
          <mxGeometry x="-298" y="3098" width="120" height="60" as="geometry" />
        </mxCell>
        <mxCell id="qDQUPD7SwhjbJuxFwGtx-9" style="edgeStyle=orthogonalEdgeStyle;rounded=0;orthogonalLoop=1;jettySize=auto;html=1;entryX=0.25;entryY=1;entryDx=0;entryDy=0;" edge="1" parent="1" source="qDQUPD7SwhjbJuxFwGtx-10" target="qDQUPD7SwhjbJuxFwGtx-12">
          <mxGeometry relative="1" as="geometry">
            <Array as="points">
              <mxPoint x="-95" y="3209" />
            </Array>
          </mxGeometry>
        </mxCell>
        <mxCell id="qDQUPD7SwhjbJuxFwGtx-10" value="ocr" style="rounded=1;whiteSpace=wrap;html=1;fillStyle=hatch;fillColor=#666666;" vertex="1" parent="1">
          <mxGeometry x="-298" y="3253" width="120" height="60" as="geometry" />
        </mxCell>
        <mxCell id="qDQUPD7SwhjbJuxFwGtx-11" style="edgeStyle=orthogonalEdgeStyle;rounded=0;orthogonalLoop=1;jettySize=auto;html=1;exitX=0.75;exitY=0;exitDx=0;exitDy=0;entryX=0;entryY=0.5;entryDx=0;entryDy=0;" edge="1" parent="1" source="qDQUPD7SwhjbJuxFwGtx-12" target="qDQUPD7SwhjbJuxFwGtx-16">
          <mxGeometry relative="1" as="geometry" />
        </mxCell>
        <mxCell id="qDQUPD7SwhjbJuxFwGtx-12" value="feature engineering" style="rounded=1;whiteSpace=wrap;html=1;" vertex="1" parent="1">
          <mxGeometry x="-125.5" y="3168" width="120" height="60" as="geometry" />
        </mxCell>
        <mxCell id="qDQUPD7SwhjbJuxFwGtx-13" style="edgeStyle=orthogonalEdgeStyle;rounded=0;orthogonalLoop=1;jettySize=auto;html=1;entryX=0;entryY=0.5;entryDx=0;entryDy=0;" edge="1" parent="1" source="qDQUPD7SwhjbJuxFwGtx-14" target="qDQUPD7SwhjbJuxFwGtx-18">
          <mxGeometry relative="1" as="geometry" />
        </mxCell>
        <mxCell id="qDQUPD7SwhjbJuxFwGtx-14" value="prediction" style="rounded=1;whiteSpace=wrap;html=1;" vertex="1" parent="1">
          <mxGeometry x="74.5" y="3168" width="120" height="60" as="geometry" />
        </mxCell>
        <mxCell id="qDQUPD7SwhjbJuxFwGtx-15" style="edgeStyle=orthogonalEdgeStyle;rounded=0;orthogonalLoop=1;jettySize=auto;html=1;entryX=0.25;entryY=0;entryDx=0;entryDy=0;" edge="1" parent="1" source="qDQUPD7SwhjbJuxFwGtx-16" target="qDQUPD7SwhjbJuxFwGtx-14">
          <mxGeometry relative="1" as="geometry">
            <Array as="points">
              <mxPoint x="104.5" y="3118" />
            </Array>
          </mxGeometry>
        </mxCell>
        <mxCell id="qDQUPD7SwhjbJuxFwGtx-16" value="training" style="rounded=1;whiteSpace=wrap;html=1;fillColor=#fff2cc;strokeColor=#d6b656;" vertex="1" parent="1">
          <mxGeometry x="-5.5" y="3098" width="90" height="40" as="geometry" />
        </mxCell>
        <mxCell id="qDQUPD7SwhjbJuxFwGtx-17" style="edgeStyle=orthogonalEdgeStyle;rounded=0;orthogonalLoop=1;jettySize=auto;html=1;fontSize=20;entryX=0;entryY=0.5;entryDx=0;entryDy=0;" edge="1" parent="1" source="qDQUPD7SwhjbJuxFwGtx-18" target="qDQUPD7SwhjbJuxFwGtx-23">
          <mxGeometry relative="1" as="geometry">
            <Array as="points">
              <mxPoint x="274.5" y="3118" />
              <mxPoint x="274.5" y="3118" />
            </Array>
          </mxGeometry>
        </mxCell>
        <mxCell id="qDQUPD7SwhjbJuxFwGtx-18" value="score&lt;br&gt;validation" style="rounded=1;whiteSpace=wrap;html=1;fillColor=#fff2cc;strokeColor=#d6b656;" vertex="1" parent="1">
          <mxGeometry x="154.5" y="3098" width="90" height="40" as="geometry" />
        </mxCell>
        <mxCell id="qDQUPD7SwhjbJuxFwGtx-19" style="edgeStyle=orthogonalEdgeStyle;rounded=0;orthogonalLoop=1;jettySize=auto;html=1;" edge="1" parent="1" source="qDQUPD7SwhjbJuxFwGtx-20" target="qDQUPD7SwhjbJuxFwGtx-4">
          <mxGeometry relative="1" as="geometry" />
        </mxCell>
        <mxCell id="qDQUPD7SwhjbJuxFwGtx-20" value="eml" style="image;html=1;image=img/lib/clip_art/networking/Email_128x128.png;labelPosition=left;verticalLabelPosition=middle;align=right;verticalAlign=middle;" vertex="1" parent="1">
          <mxGeometry x="-601" y="3027" width="45.5" height="51" as="geometry" />
        </mxCell>
        <mxCell id="qDQUPD7SwhjbJuxFwGtx-23" value="" style="image;html=1;image=img/lib/clip_art/finance/Graph_128x128.png" vertex="1" parent="1">
          <mxGeometry x="294.5" y="3088" width="80" height="60" as="geometry" />
        </mxCell>
        <mxCell id="qDQUPD7SwhjbJuxFwGtx-24" value="" style="shape=image;html=1;verticalAlign=top;verticalLabelPosition=bottom;labelBackgroundColor=#ffffff;imageAspect=0;aspect=fixed;image=https://cdn3.iconfinder.com/data/icons/brands-applications/512/PDF-128.png" vertex="1" parent="1">
          <mxGeometry x="-654" y="3066" width="53" height="53" as="geometry" />
        </mxCell>
        <mxCell id="qDQUPD7SwhjbJuxFwGtx-25" value="" style="shape=image;html=1;verticalAlign=top;verticalLabelPosition=bottom;labelBackgroundColor=#ffffff;imageAspect=0;aspect=fixed;image=https://cdn1.iconfinder.com/data/icons/bootstrap-vol-3/16/filetype-png-128.png" vertex="1" parent="1">
          <mxGeometry x="-581" y="3078" width="41" height="41" as="geometry" />
        </mxCell>
        <mxCell id="qDQUPD7SwhjbJuxFwGtx-27" value="" style="shape=image;html=1;verticalAlign=top;verticalLabelPosition=bottom;labelBackgroundColor=#ffffff;imageAspect=0;aspect=fixed;image=https://cdn1.iconfinder.com/data/icons/bootstrap-vol-3/16/filetype-tiff-128.png" vertex="1" parent="1">
          <mxGeometry x="-553" y="3000" width="33" height="33" as="geometry" />
        </mxCell>
        <mxCell id="qDQUPD7SwhjbJuxFwGtx-31" value="" style="shape=image;html=1;verticalAlign=top;verticalLabelPosition=bottom;labelBackgroundColor=#ffffff;imageAspect=0;aspect=fixed;image=https://cdn1.iconfinder.com/data/icons/Futurosoft%20Icons%200.5.2/128x128/mimetypes/Files-Word.png" vertex="1" parent="1">
          <mxGeometry x="-625" y="2979" width="44" height="44" as="geometry" />
        </mxCell>
        <mxCell id="qDQUPD7SwhjbJuxFwGtx-35" style="edgeStyle=orthogonalEdgeStyle;rounded=0;orthogonalLoop=1;jettySize=auto;html=1;" edge="1" parent="1" source="qDQUPD7SwhjbJuxFwGtx-33" target="qDQUPD7SwhjbJuxFwGtx-12">
          <mxGeometry relative="1" as="geometry" />
        </mxCell>
        <mxCell id="qDQUPD7SwhjbJuxFwGtx-33" value="vision transformer" style="rounded=1;whiteSpace=wrap;html=1;" vertex="1" parent="1">
          <mxGeometry x="-298" y="3392" width="120" height="60" as="geometry" />
        </mxCell>
      </root>
    </mxGraphModel>
  </diagram>
</mxfile>
